<?xml version="1.0" encoding="UTF-8" standalone="no"?>
<!-- Created with Inkscape (http://www.inkscape.org/) -->

<svg
   xmlns:dc="http://purl.org/dc/elements/1.1/"
   xmlns:cc="http://creativecommons.org/ns#"
   xmlns:rdf="http://www.w3.org/1999/02/22-rdf-syntax-ns#"
   xmlns:svg="http://www.w3.org/2000/svg"
   xmlns="http://www.w3.org/2000/svg"
   xmlns:sodipodi="http://sodipodi.sourceforge.net/DTD/sodipodi-0.dtd"
   xmlns:inkscape="http://www.inkscape.org/namespaces/inkscape"
   width="210mm"
   height="297mm"
   viewBox="0 0 210 297"
   version="1.1"
   id="svg8"
   inkscape:version="0.92.3 (2405546, 2018-03-11)"
   sodipodi:docname="Characters.svg">
  <defs
     id="defs2" />
  <sodipodi:namedview
     id="base"
     pagecolor="#ffffff"
     bordercolor="#666666"
     borderopacity="1.0"
     inkscape:pageopacity="0.0"
     inkscape:pageshadow="2"
     inkscape:zoom="0.49497475"
     inkscape:cx="-125.24404"
     inkscape:cy="490.26674"
     inkscape:document-units="mm"
     inkscape:current-layer="g913"
     showgrid="false"
     inkscape:snap-global="false"
     inkscape:window-width="1920"
     inkscape:window-height="1017"
     inkscape:window-x="-8"
     inkscape:window-y="-8"
     inkscape:window-maximized="1" />
  <metadata
     id="metadata5">
    <rdf:RDF>
      <cc:Work
         rdf:about="">
        <dc:format>image/svg+xml</dc:format>
        <dc:type
           rdf:resource="http://purl.org/dc/dcmitype/StillImage" />
        <dc:title />
      </cc:Work>
    </rdf:RDF>
  </metadata>
  <g
     inkscape:label="Layer 1"
     inkscape:groupmode="layer"
     id="layer1">
    <g
       id="g913"
       transform="translate(10.156242)">
      <path
         style="fill:#c3a877;fill-opacity:1;stroke-width:1"
         d="m 100.93212,125.11073 c -0.36257,-0.36258 -0.75491,-1.21018 -0.87185,-1.88353 -0.11687,-0.6733 -0.32716,-1.76947 -0.467423,-2.43578 -0.168385,-0.80104 -0.10252,-1.71752 0.19485,-2.70508 0.247073,-0.82147 0.449523,-1.61534 0.449523,-1.76414 0,-0.14879 -0.995617,-0.27058 -2.212462,-0.27058 -3.073382,0 -3.188094,-0.20489 -2.102899,-3.75449 0.477591,-1.56208 1.49028,-4.28777 2.250375,-6.05709 1.873226,-4.36018 2.995426,-8.876332 3.357386,-13.510988 0.44819,-5.739536 0.46028,-5.61684 -0.57022,-5.822937 -0.48746,-0.09747 -1.196396,-0.613731 -1.575422,-1.147245 l -0.689059,-0.969987 0.908534,-3.428805 c 0.499577,-1.885827 1.117957,-4.010429 1.373917,-4.721313 1.04582,-2.904245 3.73668,-7.680691 5.85457,-10.392173 2.05096,-2.625857 2.68217,-3.169188 7.07718,-6.092274 2.65396,-1.765134 5.75418,-3.760101 6.88939,-4.433247 1.13528,-0.673133 3.45142,-2.328711 5.14703,-3.678994 1.6957,-1.350298 4.31347,-3.310002 5.81736,-4.35488 1.50396,-1.044864 2.82629,-2.031745 2.93856,-2.193013 0.35652,-0.51185 0.72436,-4.161213 0.6284,-6.231864 -0.0737,-1.585164 0.0384,-2.183377 0.55465,-2.904996 0.50886,-0.714763 0.64744,-1.421768 0.64893,-3.311656 9.4e-4,-1.321584 -0.11778,-3.047548 -0.26396,-3.835507 -0.24047,-1.297014 -0.14863,-1.662335 0.97516,-3.860257 0.8742,-1.710043 1.63453,-2.712956 2.57218,-3.392749 0.73219,-0.530761 1.51578,-1.405347 1.74135,-1.943491 0.92617,-2.20962 4.78433,-5.253261 7.30437,-5.762333 0.55754,-0.112657 1.16244,-0.659808 1.74176,-1.57552 1.25617,-1.985621 3.33805,-3.1842254 5.83396,-3.3588594 1.09776,-0.07685 2.4502,0.01824 3.00538,0.212313 0.88055,0.30696 1.13909,0.253134 2.02512,-0.421671 0.68573,-0.522279 1.65462,-0.845605 2.98209,-0.995277 1.96549,-0.221702 1.96651,-0.221246 2.29828,0.730524 0.18281,0.523765 0.25652,1.6201904 0.16451,2.4365944 l -0.16737,1.484335 -0.95149,-0.49198 c -0.75594,-0.390916 -1.16081,-0.419087 -1.97016,-0.137143 -2.00066,0.696727 -3.34222,1.834852 -3.63824,3.086506 -0.21985,0.929898 -0.50143,1.262597 -1.30949,1.547703 -0.56619,0.199714 -2.48273,1.159354 -4.25912,2.132472 -2.96117,1.622128 -3.22987,1.848207 -3.23081,2.718273 -6.7e-4,0.738138 0.0848,0.863198 0.38501,0.563034 0.2123,-0.212354 0.8693,-0.386039 1.46001,-0.386039 0.85562,0 1.41502,-0.331366 2.75045,-1.629395 0.9221,-0.896187 2.32788,-1.983188 3.12407,-2.415567 0.79613,-0.432278 1.69141,-0.959033 1.98939,-1.170348 0.42838,-0.303921 0.91227,-0.267474 2.31229,0.173856 1.38359,0.436094 1.92391,0.806304 2.4724,1.69376 0.6986,1.130305 0.7051,1.132754 1.38713,0.520405 0.37689,-0.338459 0.9085,-0.69313 1.18126,-0.788334 0.59717,-0.208226 1.73676,0.552612 1.47127,0.98217 -0.28088,0.454588 -3.1285,1.31661 -5.35539,1.62114 -1.31894,0.180373 -2.18895,0.495304 -2.65444,0.960781 -0.65247,0.652387 -0.66077,0.724164 -0.14424,1.240714 0.51657,0.516606 0.50939,0.589704 -0.12305,1.262975 -0.89998,0.957973 -0.59406,3.120813 0.54715,3.868586 0.44089,0.288943 0.67324,0.662329 0.54258,0.872167 -0.12612,0.201731 -0.21867,0.656446 -0.20626,1.010296 0.0172,0.493733 -0.008,0.513088 -0.11263,0.08329 -0.15015,-0.625411 -1.2959,-1.530865 -1.9374,-1.530865 -0.27916,0 -0.35303,0.254361 -0.22415,0.769159 0.25999,1.03641 -0.17506,1.239907 -2.82572,1.320763 -1.97721,0.06035 -2.33097,0.170084 -3.05043,0.945932 -1.0429,1.124691 -1.62406,0.695324 -1.09866,-0.811792 0.47732,-1.369305 0.27602,-1.500747 -0.59952,-0.391254 -0.87487,1.108688 -0.76446,2.914591 0.30461,4.985909 1.44039,2.790406 2.98017,3.797073 5.80771,3.797073 2.7572,0 3.926,-1.0112 4.27603,-3.69942 0.0737,-0.564063 0.14591,-0.258908 0.17397,0.734119 0.0985,3.467627 -1.65028,5.217132 -5.2145,5.217132 h -1.74984 l -0.16298,1.367192 c -0.96101,8.059041 -1.20032,12.009944 -1.13704,18.77236 l 0.0698,7.432755 -0.8543,1.746126 c -0.46979,0.960392 -1.53266,2.424542 -2.36186,3.253687 -1.60752,1.607537 -3.63116,2.478298 -7.34956,3.162513 -1.05605,0.194306 -2.47569,0.636771 -3.15483,0.983252 -1.88979,0.964091 -3.03559,0.297925 -2.19355,-1.27542 0.21209,-0.396051 0.0848,-0.785039 -0.46708,-1.426468 -0.41717,-0.485056 -0.89218,-0.881872 -1.05553,-0.881872 -0.16298,0 -1.38371,0.495248 -2.712,1.100567 -1.99314,0.908319 -2.61167,1.05621 -3.54079,0.846651 -0.61925,-0.139674 -1.29815,-0.360441 -1.50888,-0.49066 -0.21058,-0.130149 -1.54822,0.09998 -2.97228,0.51135 -2.57787,0.744951 -2.59744,0.758745 -4.47673,3.168854 -1.03811,1.331359 -1.82358,2.638301 -1.7454,2.904328 0.58857,2.003727 0.56439,2.195669 -0.33632,2.667585 -1.19773,0.627594 -2.32375,3.58319 -4.3152,11.32706 -3.04083,11.824612 -8.43769,23.387882 -12.96535,27.779652 l -1.44436,1.40096 z m 1.70756,-15.15511 c 0.18605,-0.3011 -2.42371,-1.65072 -2.711803,-1.40226 -0.211655,0.18255 1.680363,1.6824 2.139833,1.69629 0.2108,0.007 0.46813,-0.12584 0.57197,-0.29401 z m 24.50896,-54.921044 c -0.13877,-0.138631 -3.10659,1.497521 -3.10659,1.712726 0,0.08426 0.72458,-0.241012 1.6101,-0.722814 0.88554,-0.481983 1.55899,-0.927424 1.49649,-0.989857 z m 8.05586,-5.354957 c 0.11235,-0.182042 -0.90998,0.439462 -2.27218,1.38125 -1.36229,0.941704 -2.5689,1.861147 -2.6814,2.043203 -0.11249,0.182042 0.90997,-0.439476 2.27224,-1.38125 1.36223,-0.941718 2.56883,-1.861147 2.68134,-2.043203 z m 9.42576,-10.293379 c 0,-0.172031 -0.36172,0.07773 -0.80423,0.555192 -0.44228,0.477324 -0.80423,0.957945 -0.80423,1.06814 0,0.110127 0.36171,-0.139674 0.80423,-0.555191 0.4423,-0.415532 0.80423,-0.896208 0.80423,-1.068141 z m 3.55139,-9.875888 c 0.70072,-0.35752 1.27396,-0.869218 1.27396,-1.137247 0,-0.383579 -0.11972,-0.412431 -0.56305,-0.135572 -0.30988,0.193374 -1.14195,0.702861 -1.8497,1.131964 -1.58955,0.96384 -0.69205,1.074926 1.1387,0.140855 z m -1.89202,-1.487134 c 0.29423,-0.266222 0.62648,-0.849585 0.73857,-1.296653 0.20435,-0.813752 1.09157,-2.234227 2.20458,-3.529128 0.37775,-0.439225 0.47068,-0.765405 0.2565,-0.897793 -0.52806,-0.326388 -2.3045,0.715153 -3.96483,2.324595 -1.15188,1.116557 -1.43498,1.572594 -1.1725,1.888817 0.24706,0.297689 0.24448,0.708187 -0.008,1.436661 -0.19572,0.560795 -0.35569,1.066986 -0.35569,1.124691 0,0.226204 1.79841,-0.594765 2.30274,-1.05119 z m 8.23264,-5.170537 c -0.48653,-0.0737 -1.28274,-0.0737 -1.76933,0 -0.4865,0.0737 -0.0883,0.134042 0.88464,0.134042 0.97314,0 1.37125,-0.06035 0.88469,-0.134042 z m -4.42326,-4.990454 c 0,-0.18828 -0.20434,-0.157069 -0.48258,0.07364 -0.26512,0.220234 -0.4825,0.450553 -0.4825,0.511775 0,0.06114 0.21724,0.02837 0.4825,-0.07364 0.26512,-0.101839 0.48258,-0.332126 0.48258,-0.511776 z m 11.01792,0.182352 c -0.22127,-0.08917 -0.58313,-0.08917 -0.80426,0 -0.22099,0.08917 -0.0392,0.162136 0.40202,0.162136 0.44229,0 0.62328,-0.07279 0.402,-0.162136 z m -6.942,-6.433998 c -0.0628,-0.06199 -0.57662,-0.02061 -1.14331,0.09323 -0.68595,0.137143 -1.18773,0.51027 -1.50105,1.116151 l -0.47053,0.910037 1.61389,-1.003248 c 0.88767,-0.551819 1.56314,-1.054068 1.50106,-1.116151 z m 19.18545,64.163582 c -0.37559,-0.405937 -0.916,-1.533035 -1.20117,-2.504593 -0.43261,-1.474147 -0.45556,-2.046762 -0.13933,-3.460145 0.20864,-0.93154 0.29819,-1.774673 0.19895,-1.873648 -0.0987,-0.09886 -0.99074,0.277638 -1.98177,0.836904 -1.34156,0.757173 -1.80181,0.895818 -1.80181,0.542789 0,-0.260716 -0.3094,-0.679418 -0.68732,-0.930372 l -0.68734,-0.456343 0.98034,-3.759266 c 0.53922,-2.067606 0.90227,-4.057859 0.80685,-4.422777 -0.0951,-0.364946 -0.73399,-0.949421 -1.41895,-1.298891 -1.47233,-0.751125 -1.58772,-1.47768 -0.40933,-2.576773 0.75585,-0.704974 0.81769,-0.939827 0.64344,-2.444176 -0.17225,-1.487802 -0.0994,-1.777773 0.68671,-2.73437 1.1206,-1.36359 1.42231,-1.571759 2.01566,-1.390691 0.26512,0.08107 1.6406,0.232739 3.05607,0.337081 4.89279,0.360886 10.58478,1.59747 12.61586,2.740863 1.0231,0.575938 1.90813,1.083548 1.96671,1.127974 0.0585,0.04463 -0.0462,0.36699 -0.23418,0.716793 -0.48076,0.898433 -5.08037,3.520493 -7.84134,4.470137 -3.10044,1.066375 -4.22049,2.161185 -4.74641,4.639372 -0.49017,2.310106 -0.47306,2.350194 2.59368,6.040798 1.74158,2.095874 2.19183,2.846262 2.04906,3.41515 -0.10053,0.401474 0.058,1.194981 0.3531,1.765802 0.2947,0.570209 0.41503,1.147412 0.2674,1.282747 -0.14795,0.135294 -1.64882,0.342393 -3.3356,0.459847 -2.9227,0.203733 -3.09911,0.17908 -3.74974,-0.524365 z m 14.86528,-26.614195 c -0.12013,-0.378419 -0.7836,-1.062147 -1.47426,-1.519255 -1.44036,-0.953134 -1.3808,-1.395947 0.18776,-1.395947 1.42602,0 2.52117,1.100414 2.23805,2.248689 -0.28857,1.169771 -0.70018,1.458198 -0.95144,0.666472 z m -22.58717,-3.065902 c -0.49639,-0.436751 -0.72972,-0.798638 -0.51839,-0.804213 0.21123,-0.0056 0.79032,0.347134 1.28671,0.78387 0.49644,0.436695 0.72973,0.798638 0.51848,0.804227 -0.21124,0.0056 -0.79036,-0.34712 -1.2868,-0.783884 z m 22.89364,0.140856 c -0.32492,-0.359315 -1.72273,-1.264032 -3.10561,-2.010568 -1.38294,-0.746522 -2.51459,-1.439275 -2.51477,-1.539431 -6.5e-4,-0.389975 3.76222,-1.725352 4.87252,-1.729274 1.09724,-0.0028 1.14491,-0.04463 0.73565,-0.629026 -0.38853,-0.554483 -0.33925,-0.71735 0.43515,-1.446366 0.91249,-0.858956 2.64201,-1.210609 2.64201,-0.537213 0,0.212855 -0.50662,0.978914 -1.12591,1.702382 -1.23267,1.440081 -1.37765,1.940932 -0.64335,2.222672 0.58129,0.223019 0.62766,1.64832 0.11012,3.376342 -0.42712,1.424869 -0.58899,1.492919 -1.40563,0.590357 z m -3.63797,-7.486552 c -0.26712,-0.321674 -0.0349,-0.621101 0.99004,-1.286766 1.49373,-0.968555 2.85393,-1.116544 3.46748,-0.377238 0.4724,0.569305 0.5463,0.485653 -1.2227,1.383933 -1.56239,0.793381 -2.72525,0.89408 -3.23482,0.28014 z m 3.96855,-4.562938 c -1.56825,-0.736552 -2.13243,-1.334974 -2.40726,-2.553384 l -0.2591,-1.150096 1.2529,-0.04769 c 0.68903,-0.0267 1.43387,-0.06271 1.655,-0.08037 0.48991,-0.03935 1.59094,3.129072 1.32669,3.817625 -0.22757,0.593666 -0.33273,0.594695 -1.56796,0.01516 z M 156.8545,33.742174 c 0,-0.461946 1.28966,-1.952432 2.0342,-2.350888 0.62625,-0.335273 0.60737,-0.25507 -0.18583,0.784788 -0.48578,0.636938 -0.88333,1.312532 -0.88333,1.501262 0,0.188772 -0.21726,0.343171 -0.48261,0.343171 -0.26511,0 -0.48251,-0.125143 -0.48251,-0.278305 z m 5.84121,-1.330135 c 0,-0.442285 0.0729,-0.623284 0.16213,-0.402072 0.0891,0.221115 0.0891,0.583057 0,0.804227 -0.0891,0.221129 -0.16213,0.03991 -0.16213,-0.402072 z m 17.77511,-0.504592 c -0.54617,-0.26942 -1.63186,-1.150708 -2.4127,-1.958272 -1.22802,-1.270081 -1.31108,-1.436508 -0.61551,-1.232649 0.44227,0.129732 0.96596,0.364501 1.16364,0.521987 0.22041,0.175451 0.49269,0.125839 0.70339,-0.128202 0.49639,-0.598144 -0.43831,-2.369396 -1.61431,-3.059451 l -0.94622,-0.555206 1.07056,-0.190093 1.07056,-0.190106 -1.36718,-0.253138 c -2.09628,-0.388125 -1.75811,-0.858275 0.88464,-1.229784 0.80327,-0.113046 0.80303,-0.113602 -0.16078,-0.520458 -0.96475,-0.407188 -3.6526,-0.336093 -4.74864,0.125561 -0.41928,0.176536 -0.51962,0.116522 -0.38639,-0.230723 0.34052,-0.887753 2.09926,-1.886759 3.64329,-2.069635 2.08792,-0.247173 3.98514,0.622435 6.34577,2.908875 1.55408,1.505225 1.77821,1.860076 1.43561,2.272855 -0.30282,0.364862 -0.32062,0.734355 -0.07,1.453832 0.20715,0.59471 0.22015,1.036369 0.0349,1.151626 -0.16688,0.102895 -0.30248,0.734981 -0.30248,1.404874 0,2.090075 -1.57359,2.840769 -3.72734,1.778079 z m -5.27996,-5.92924 c 0.26513,-0.171474 0.69971,-0.303931 0.96507,-0.294198 0.31808,0.01251 0.26368,0.111934 -0.16078,0.294198 -0.88438,0.379991 -1.39227,0.379991 -0.80423,0 z m -5.0947,-2.430313 c 0.0569,-0.363513 -0.15994,-1.063719 -0.48248,-1.555936 -0.32248,-0.492175 -0.52247,-0.958793 -0.44438,-1.036854 0.24935,-0.249342 1.83958,0.4897 1.83958,0.854854 0,0.209949 0.29125,0.269851 0.72378,0.148629 0.71036,-0.199006 0.70929,-0.190941 -0.0603,0.427156 -0.43105,0.346341 -0.9856,0.898335 -1.23219,1.226503 -0.43018,0.572448 -0.44396,0.569778 -0.34448,-0.06438 z m 11.04597,-8.378926 c -1.94623,-0.929696 -4.39569,-1.842671 -5.44327,-2.028807 -2.39095,-0.424811 -4.16088,-1.578863 -5.02776,-3.2780104 -0.36958,-0.724646 -0.61522,-1.374489 -0.54565,-1.444055 0.0699,-0.06975 1.28081,0.431736 2.69174,1.114057 1.41082,0.6823044 3.81491,1.5351044 5.34237,1.8951974 2.0798,0.490291 3.16339,0.949558 4.31535,1.82916 1.35725,1.036335 2.54659,2.795253 2.29436,3.393077 -0.0487,0.115355 -1.68091,-0.550974 -3.62711,-1.480619 z"
         id="path1076"
         inkscape:connector-curvature="0"
         sodipodi:nodetypes="ccccssccccccccccccccccccccccsccccccccccccccsccccccccccccccccscccsccsccsccccccccccscccccccscccccccccsccccccccscscscscccccccccccsccccscccscccccsccccccccccccccscccccsccccccccccccccccccsccccccccccccccsccccccccccccccccccccccsscssccsccccccccccccccccccccsccccccccccsccccccccccccc" />
      <g
         id="g1186"
         transform="matrix(2.5466953,0,0,2.5466953,12.464741,52.430854)"
         style="fill:#c3a877;fill-opacity:1;stroke-width:0.39266571">
        <path
           id="path1178"
           d="m 49.910745,15.981232 c -0.860973,0.02754 -1.831049,0.167741 -2.86856,0.419613 -0.291922,0.07087 -0.31506,0.10614 -0.119372,0.18035 0.221684,0.08403 0.223346,0.11845 0.01704,0.382923 -0.18238,0.233804 -0.209479,0.240741 -0.13901,0.03617 0.04815,-0.139729 0.02671,-0.254248 -0.04754,-0.254248 -0.151527,0 -0.497329,1.149081 -0.380854,1.265556 0.04109,0.04109 0.283493,0.0017 0.538985,-0.08733 1.433113,-0.499585 4.722572,0.23092 5.219319,1.159102 0.08949,0.16721 0.282705,0.652592 0.429432,1.079004 0.294965,0.857334 0.185613,1.595004 -0.302308,2.036568 -0.230428,0.208519 -0.304167,0.201987 -0.846976,-0.07493 -0.326932,-0.166791 -0.594278,-0.273721 -0.594278,-0.237711 0,0.03604 0.527651,0.437473 1.172538,0.891935 1.065369,0.750785 1.620877,1.383589 1.404565,1.599902 -0.04547,0.0455 -0.268105,-0.01222 -0.49506,-0.128157 -0.297076,-0.15177 -0.478335,-0.168892 -0.646991,-0.06046 -0.128857,0.08287 -0.351173,0.106 -0.494024,0.05116 -0.246536,-0.09458 -0.245645,-0.110793 0.01654,-0.314193 0.266745,-0.20695 0.261245,-0.227 -0.159165,-0.583943 -0.239501,-0.203346 -0.705988,-0.531681 -1.03663,-0.729672 -0.330642,-0.197995 -0.634825,-0.488801 -0.675925,-0.645955 -0.09888,-0.378131 -0.466604,-0.362801 -0.742075,0.03049 -0.194048,0.277104 -0.267856,0.294458 -0.599964,0.143144 -0.478231,-0.21789 -0.61365,-0.131582 -0.725019,0.461987 -0.07808,0.416229 -0.200853,0.52378 -0.985469,0.86558 -0.492917,0.214707 -1.158997,0.390684 -1.480532,0.390674 -0.629719,-2.2e-5 -1.229897,-0.322789 -1.229897,-0.661458 0,-0.321084 -0.257442,-0.249482 -0.514699,0.143143 -0.21249,0.32425 -0.211445,0.383043 0.01603,0.730188 0.335294,0.511717 0.153136,0.635222 -0.368453,0.249598 -0.500002,-0.369664 -0.849895,-0.405141 -0.967899,-0.09767 -0.130902,0.341134 0.293489,0.857821 0.946711,1.152384 0.754909,0.340422 1.452798,0.182077 1.729095,-0.39274 l 0.187586,-0.390674 0.581875,0.23306 c 0.65551,0.262282 1.769348,0.184138 2.15284,-0.150895 0.37718,-0.329518 1.135798,-0.669812 1.491382,-0.669209 0.183595,2.91e-4 0.54777,0.131003 0.809255,0.290421 0.461912,0.281633 0.469331,0.301374 0.261998,0.702283 -0.117358,0.226944 -0.418396,0.570115 -0.66921,0.762227 -0.975008,0.746893 -0.986989,0.779914 -0.301273,0.829924 0.396475,0.02894 0.750824,-0.0409 0.983403,-0.19327 0.813662,-0.533127 0.56956,0.20747 -0.436666,1.3255 -0.802926,0.892137 -1.673471,1.29832 -3.071648,1.432988 -0.558837,0.05383 -1.987127,0.223461 -3.173966,0.376721 -1.186846,0.153308 -2.190988,0.278535 -2.23139,0.278535 -0.268949,0 0.409044,0.45379 1.399916,0.936895 1.018529,0.496591 1.20623,0.648732 1.457793,1.183907 0.158779,0.337791 0.351113,0.653106 0.427363,0.700215 0.07627,0.04715 0.246304,0.410411 0.378272,0.807704 0.131972,0.397293 0.295908,0.757145 0.364318,0.799433 0.06843,0.04233 0.404212,-0.01931 0.745692,-0.136943 0.341479,-0.117642 0.637738,-0.196837 0.658357,-0.176215 0.02074,0.02074 -0.01609,0.376864 -0.08165,0.791681 -0.0656,0.414811 -0.0927,0.754478 -0.06046,0.754478 0.03224,0 0.496316,-0.282837 1.030946,-0.628386 1.3653,-0.882425 1.344313,-0.872074 1.244886,-0.612883 -0.169987,0.442973 0.185208,0.210238 1.110009,-0.72657 0.985983,-0.998791 1.776851,-1.575355 2.039667,-1.487765 0.08587,0.02862 -0.04394,0.278678 -0.288353,0.556038 -0.405784,0.460528 -0.576324,0.867132 -0.363802,0.867132 0.04677,0 0.50746,-0.112546 1.02371,-0.250116 0.883586,-0.235442 0.93296,-0.270902 0.84801,-0.609264 -0.04962,-0.197686 -0.251991,-0.509908 -0.450101,-0.693497 -0.414139,-0.38381 -0.352417,-0.591256 0.325559,-1.092957 0.461587,-0.341571 2.539408,-2.612278 3.719672,-4.064868 0.371922,-0.457739 0.74187,-1.078041 0.822171,-1.378728 0.08032,-0.300686 0.335479,-1.20898 0.566891,-2.017964 l 0.420645,-1.470712 -0.581877,-1.115177 c -0.320177,-0.613424 -0.743214,-1.225236 -0.939993,-1.359607 -0.196765,-0.134355 -0.630073,-0.51358 -0.962731,-0.842326 -0.633064,-0.62562 -2.90562,-1.845464 -4.29328,-2.304769 -0.602427,-0.199412 -1.354397,-0.284893 -2.215367,-0.257348 z m -6.708635,4.02146 c -0.05537,0.0037 -0.110373,0.01243 -0.163814,0.02584 -0.597278,0.14991 -1.670944,2.045016 -1.463995,2.584338 0.08859,0.230828 0.817692,0.261471 1.084173,0.04548 0.103518,-0.08391 0.329747,-0.354408 0.502811,-0.600997 l 0.314709,-0.448552 -0.544153,0.471806 c -0.484198,0.419709 -1.11466,0.632714 -1.11466,0.376721 0,-0.05217 0.164398,-0.442384 0.365352,-0.86713 0.406104,-0.858456 0.768885,-1.128259 1.393198,-1.036629 0.27717,0.04068 0.418579,-0.002 0.418579,-0.126091 0,-0.250122 -0.404598,-0.450508 -0.7922,-0.42478 z m 1.71204,0.28267 c -0.01307,-3.18e-4 -0.03008,0.0054 -0.05064,0.01809 -0.07894,0.04879 -0.14366,0.150189 -0.14366,0.225309 0,0.208783 0.104013,0.162581 0.200504,-0.08888 0.03715,-0.09712 0.03302,-0.153596 -0.0062,-0.154512 z m 1.207677,0.01137 c -0.163428,0.0014 -0.314677,0.02343 -0.439248,0.0708 -0.72409,0.275307 -1.403133,2.26641 -0.933278,2.736267 0.243231,0.243195 0.254238,0.228412 0.192238,-0.261483 -0.03032,-0.239491 0.01252,-0.435116 0.09508,-0.435116 0.08265,0 0.115631,-0.08997 0.07338,-0.199987 -0.04223,-0.11002 -0.0038,-0.273746 0.08578,-0.363286 0.0896,-0.08955 0.114843,-0.16278 0.05581,-0.16278 -0.106752,0 0.03596,-0.201521 0.520898,-0.735873 0.139708,-0.153914 0.433639,-0.279219 0.65319,-0.278019 0.316614,0.0018 0.354092,0.03299 0.181385,0.149862 -0.160954,0.10894 -0.112358,0.122846 0.187069,0.05323 0.285019,-0.06626 0.489712,-0.01787 0.689879,0.163298 0.254331,0.230286 0.284221,0.232106 0.284221,0.02067 0,-0.382969 -0.93822,-0.763758 -1.646412,-0.757577 z m -1.746663,0.717786 c -0.180681,-0.01144 -0.497763,0.35092 -1.020093,1.146183 l -0.641821,0.976684 0.735357,-0.400492 c 0.749027,-0.407672 1.23734,-1.136864 1.064016,-1.588534 -0.03244,-0.08455 -0.07723,-0.130029 -0.137459,-0.133841 z m 3.130558,0.399458 c -0.181168,0.01673 -0.600903,0.438571 -0.90537,0.931209 -0.302175,0.488924 -0.935495,0.704286 -1.364776,0.464055 -0.142539,-0.07981 -0.225308,-0.06834 -0.225308,0.03101 0,0.08638 0.146957,0.216154 0.326596,0.288354 0.533664,0.214509 0.788575,0.169554 1.251085,-0.219624 0.499052,-0.419925 1.112171,-1.344011 0.979786,-1.476396 -0.01511,-0.01511 -0.03613,-0.02099 -0.06201,-0.0186 z m -5.464781,1.955953 c -0.04145,-3.1e-5 -0.09433,0.007 -0.160715,0.01964 -0.21185,0.0405 -0.3048,0.137045 -0.255281,0.266133 0.111355,0.290186 0.436224,0.25039 0.518313,-0.06356 0.04169,-0.159347 0.02204,-0.222114 -0.102317,-0.222209 z m 0.22841,2.520777 c -0.421473,0 -0.45217,0.03527 -0.45217,0.516764 0,0.374662 0.04979,0.486797 0.181385,0.407727 0.134734,-0.08099 0.132498,-0.04918 -0.0083,0.12454 -0.159322,0.196631 -0.147468,0.258964 0.07286,0.390157 0.318254,0.189465 1.671736,0.142839 1.738395,-0.05994 0.02625,-0.07986 -0.206129,-0.422955 -0.516247,-0.762228 C 42.85286,26.034682 42.616121,25.89071 42.269316,25.89071 Z m -0.425297,1.747697 c -0.103134,0.0094 -0.172082,0.05095 -0.172082,0.128674 -3e-6,0.07397 0.114035,0.164511 0.25373,0.201021 h 5.29e-4 c 0.139708,0.03653 0.384517,0.07195 0.544153,0.07855 0.286126,0.01206 0.286208,0.0092 0.0083,-0.201021 -0.196585,-0.148687 -0.462698,-0.222862 -0.634585,-0.207222 z m 12.566674,5.822382 c -0.152344,-0.0021 -0.31156,0.01045 -0.470773,0.04031 -0.265417,0.04979 -1.186492,0.513664 -2.046904,1.030427 -1.16776,0.701353 -1.699699,0.939478 -2.097545,0.939478 -0.680376,0 -1.503482,0.537839 -1.563211,1.021125 -0.02434,0.196842 -0.133914,0.651536 -0.243396,1.010793 -0.109532,0.359251 -0.227343,1.128418 -0.261485,1.708938 -0.03424,0.580514 -0.08779,1.078193 -0.119372,1.106392 -0.03155,0.0282 -0.746289,0.417724 -1.588016,0.865063 -2.086083,1.108652 -3.787968,2.510571 -4.730978,3.896921 -0.722968,1.062861 -0.744622,1.080371 -0.694531,0.56999 0.02842,-0.289598 0.07932,-0.920224 0.112655,-1.401464 0.05758,-0.831554 0.044,-0.874239 -0.266134,-0.86093 -0.179475,0.0079 -0.567563,0.156734 -0.862478,0.330729 -0.294921,0.174016 -0.567616,0.316262 -0.606166,0.316262 -0.03855,0 -0.318408,0.261508 -0.622184,0.580842 -0.631579,0.66393 -0.82614,0.714589 -0.969967,0.25373 -0.05604,-0.17962 -0.151414,-0.359021 -0.211873,-0.398941 -0.124291,-0.08203 0.350729,-1.40883 0.623734,-1.742012 0.316846,-0.386686 1.955196,-1.741498 2.105816,-1.741498 0.08029,0 0.186586,0.163174 0.236677,0.362771 0.05008,0.19958 0.171472,0.362338 0.269751,0.361733 0.39719,-0.0026 1.612112,-0.844365 1.83193,-1.269172 0.128564,-0.248457 0.462656,-0.73364 0.742074,-1.077971 0.504579,-0.621803 0.504838,-0.623782 0.07234,-0.29559 -0.239501,0.181748 -0.917913,0.662906 -1.5074,1.069187 l -1.071769,0.738973 0.101285,-0.56224 c 0.284488,-1.584441 0.364025,-1.723599 1.618507,-2.81895 0.33855,-0.295608 1.521383,-1.195326 1.604552,-1.220597 0.01066,-0.0032 0.06481,-0.218027 0.120407,-0.477491 0.06674,-0.31165 0.04596,-0.471805 -0.0615,-0.471805 -0.263522,0 -2.789941,2.001758 -3.366719,2.667537 -0.29174,0.336752 -0.840097,1.066009 -1.218531,1.621089 -0.378436,0.555083 -0.841494,1.194033 -1.029396,1.419553 -0.857882,1.029566 -2.374532,5.003615 -2.374532,6.22236 0,0.399087 -0.09635,0.899136 -0.214455,1.111044 -0.11811,0.211899 -0.435967,1.185209 -0.705901,2.163175 l -0.49041,1.778185 h 0.383955 c 0.517599,0 1.613665,-1.144783 2.710429,-2.830319 1.037881,-1.595044 1.743572,-2.395202 2.112018,-2.395202 0.609264,0 0.444934,0.441717 -0.556556,1.496034 -0.551839,0.580935 -1.474669,1.641281 -2.050521,2.356445 l -0.527246,2.765351 0.781714,-1.375553 c 0.406165,-0.82732 0.802309,-1.327692 0.838478,-1.363861 0.181025,-0.181025 2.218481,-3.812069 2.218481,-4.186928 -3e-6,-0.238808 0.05913,-0.397859 0.131773,-0.352949 0.254566,0.157329 0.583925,-0.09626 1.032497,-0.7953 0.544007,-0.847765 1.309044,-1.560182 2.264976,-2.109949 0.38916,-0.223809 0.862007,-0.524529 1.051099,-0.668176 0.189111,-0.143629 0.821264,-0.490974 1.404565,-0.771531 1.10386,-0.530936 1.860476,-1.081153 2.099098,-1.527037 0.09518,-0.177861 0.06391,-0.568246 -0.0987,-1.227315 -0.234061,-0.948438 -0.232269,-0.981572 0.09508,-1.792139 0.425463,-1.053481 0.574444,-1.206294 1.178224,-1.208196 0.271573,-0.0011 0.657201,-0.06878 0.856795,-0.150379 0.354845,-0.145071 0.479245,-0.208833 1.669147,-0.858345 0.319337,-0.174307 0.791795,-0.500729 1.049549,-0.725535 0.507236,-0.442426 1.203931,-0.633709 1.979724,-0.543121 0.437253,0.05106 0.473443,0.02945 0.331764,-0.197403 -0.1479,-0.236805 -0.54342,-0.379981 -1.000456,-0.38654 z m -10.568863,3.027207 -0.567407,0.375171 c -0.453059,0.299813 -0.876951,0.935178 -0.876951,1.314648 0,0.02797 0.0816,0.05116 0.181385,0.05116 0.221433,-8e-6 0.930061,-0.866637 1.122413,-1.372526 z m 8.68164,0.579808 c -0.08796,0 -1.205793,1.492811 -1.42627,1.904793 -0.09245,0.172736 -0.356976,0.872295 -0.587561,1.554427 -0.371774,1.099836 -0.419097,1.441218 -0.419097,3.015838 v 1.775602 l -0.428397,0.09405 c -0.23558,0.05176 -0.719051,0.05019 -1.074352,-0.0031 -0.664337,-0.09963 -1.25522,0.0034 -1.25522,0.218591 0,0.101952 0.804376,0.461047 3.592544,1.605071 0.17961,0.0737 0.326597,0.241771 0.326597,0.373102 0,0.202105 -0.116904,0.225616 -0.761712,0.153996 -0.419132,-0.04655 -1.093266,-0.146815 -1.497584,-0.222724 -0.404323,-0.07597 -1.350986,-0.174715 -2.104263,-0.219625 l -1.369944,-0.08165 1.615406,0.267169 c 0.888508,0.146814 1.699607,0.318804 1.802474,0.382405 0.126188,0.07799 -0.06268,0.225851 -0.581359,0.454752 -0.880916,0.388779 -1.236916,0.413943 -1.747697,0.121957 -0.506566,-0.289671 -1.580396,-0.283861 -1.69292,0.0093 -0.120555,0.314171 0.150963,0.773363 1.214913,2.053103 0.948979,1.141449 1.030529,1.318675 0.73949,1.609722 h -5.3e-4 c -0.135474,0.135464 0.05635,2.646392 2.499538,2.646392 1.937599,0 3.643193,-2.527893 3.698533,-2.617455 0.04934,-0.07984 0.186886,-0.145211 0.305406,-0.145211 0.118523,0 0.555355,-0.34258 0.971003,-0.761709 0.415641,-0.419126 1.14296,-1.056166 1.615921,-1.415417 0.842711,-0.640236 0.879586,-0.652434 1.850533,-0.619086 0.910683,0.03126 0.990637,0.0099 0.990637,-0.261482 0,-0.162378 -0.103912,-0.496287 -0.230995,-0.742072 -0.12706,-0.245787 -0.200861,-0.60303 -0.16433,-0.794268 0.09387,-0.491054 -0.08928,-0.540848 -0.750342,-0.203605 -0.356087,0.18166 -0.786839,0.601247 -1.130162,1.101741 -0.305057,0.444704 -0.631548,0.919332 -0.725538,1.054716 -0.15435,0.2222 -0.213193,0.198993 -0.606682,-0.240294 -0.239702,-0.26761 -0.501377,-0.445601 -0.581877,-0.395843 -0.251761,0.155577 -0.430334,-0.365313 -0.29042,-0.846977 0.160309,-0.551807 0.04832,-1.113787 -0.397909,-1.999361 -0.398545,-0.790937 -1.050854,-1.332436 -1.871205,-1.553911 -0.319341,-0.08621 -0.783733,-0.281953 -1.031978,-0.434596 -0.397695,-0.244549 -0.462391,-0.378339 -0.544153,-1.126549 -0.120364,-1.101957 0.41987,-3.129832 1.113629,-4.179588 0.898091,-1.358974 1.00448,-1.532207 0.93586,-1.532207 z m -9.215974,13.208497 c -0.09265,0 0.06548,1.466054 0.194302,1.802474 0.06994,0.18134 0.306737,0.2272 1.124995,0.219107 l 1.03663,-0.0098 -0.610815,-0.271301 c -0.399547,-0.177602 -0.794086,-0.526116 -1.138949,-1.006139 -0.2901,-0.403805 -0.562724,-0.734322 -0.606163,-0.734322 z"
           style="fill:#c3a877;fill-opacity:1;stroke-width:0.39266571"
           inkscape:connector-curvature="0"
           sodipodi:nodetypes="sccccsccccccsccccccccccscccsccscccccscccccccccsccccccccscccccsccccccccccccscccccccsccsccccscccccccsccscccccsccsccccscccsccccccccccsscccccssccccccccccscccccsccccsccccscccccccccccscccscccsssccccscccccscccccccccccccsccccccscccscscccccccccsccscscccsccsccccccsccccccccccccc" />
      </g>
      <path
         style="fill:#c3a877;fill-opacity:1;stroke-width:1"
         d="m 192.83963,113.13151 c -0.6806,0.0149 -0.5774,0.28372 0.42995,1.12292 1.72884,1.44028 2.78998,1.42709 1.48208,-0.0186 0,0 0,-5.1e-4 0,-5.1e-4 -0.55898,-0.61754 -1.41952,-1.11409 -1.91203,-1.10381 z m -10.73268,2.00711 0.98806,2.40192 c 0.62018,1.50752 1.8602,3.03558 3.33158,4.10518 1.41899,1.03149 2.22674,2.01043 2.04639,2.48046 -0.23407,0.60995 -0.91547,0.44582 -3.17759,-0.76636 -1.5837,-0.84866 -3.13625,-1.86026 -3.44992,-2.24792 -0.3467,-0.42847 -1.561,-0.63961 -3.09697,-0.53847 l -2.52697,0.1664 -9.92498,16.54162 -9.92549,16.54111 -0.25993,4.86637 c -0.2802,5.24332 -0.62199,6.32802 -1.84537,5.85856 -0.43203,-0.16575 -0.78548,-0.034 -0.78548,0.293 0,0.32705 -1.89489,3.95237 -4.21111,8.05584 -4.30114,7.61991 -4.83308,8.81289 -3.39411,7.61866 0.88127,-0.7314 1.28781,-0.58159 4.12326,1.51619 1.43874,1.06444 1.7131,1.53854 1.22732,2.1239 -0.51227,0.61724 -1.18584,0.44616 -3.71916,-0.94413 -1.70137,-0.93373 -3.16703,-1.61068 -3.25716,-1.50482 -0.0902,0.10595 -1.62564,2.42592 -3.4122,5.15576 -1.78655,2.72983 -3.56945,5.08675 -3.96203,5.23741 -0.39261,0.15066 -1.22386,5.6e-4 -1.84691,-0.3328 -1.70561,-0.91282 -2.13033,0.33693 -0.65009,1.91254 0.99748,1.06179 1.11503,1.52413 0.62063,2.44792 -0.86557,1.61733 -0.76435,1.94581 0.4992,1.6154 0.61005,-0.1596 2.07515,-0.0451 3.25561,0.25477 1.83925,0.46685 2.62445,1.23484 5.48855,5.36763 1.83826,2.65254 4.05906,5.9828 4.9351,7.40058 1.39182,2.25251 1.54563,2.36545 1.21957,0.89348 -0.20522,-0.92652 -0.73231,-2.08334 -1.17151,-2.5709 -0.43919,-0.48757 -0.7984,-1.6459 -0.7984,-2.57348 0,-1.44625 0.28716,-1.7742 2.0159,-2.30477 3.38735,-1.03958 4.26222,-0.1311 2.94814,3.06079 -0.55187,1.34053 -1.5852,8.03827 -1.24024,8.03827 0.0634,0 0.60777,-0.82149 1.20975,-1.82521 v -5.2e-4 c 4.3092,-7.18486 5.30627,-9.49406 4.98626,-11.54606 -0.28359,-1.81863 -0.23137,-1.94895 0.4284,-1.07022 0.69819,0.9299 0.77735,0.8968 1.12086,-0.47181 0.2033,-0.80993 1.97394,-4.44726 3.93516,-8.08271 4.42706,-8.20629 5.93297,-11.58012 5.93297,-13.29324 0,-0.73281 0.21769,-1.33222 0.48369,-1.33222 0.266,0 0.36455,-0.62502 0.21859,-1.38855 -0.37681,-1.97117 2.30998,-6.32066 4.57027,-7.39851 1.53103,-0.7301 2.62562,-2.40463 6.83834,-10.4619 2.75852,-5.27599 6.74252,-12.64204 8.85321,-16.36902 4.99613,-8.82203 7.67343,-14.12019 7.67343,-15.18512 0,-1.05395 -0.0536,-1.05445 -2.04174,-0.0171 -3.44502,1.79671 -7.1731,0.56696 -5.83892,-1.92597 0.66748,-1.2472 2.75687,-1.5365 4.47105,-0.61909 0.84726,0.45344 1.24555,0.10431 2.48977,-2.18178 0.81467,-1.49683 1.47676,-2.94 1.47122,-3.20704 -0.007,-0.26704 -1.93347,-1.09433 -4.28397,-1.83864 -3.40312,-1.07761 -4.48591,-1.22047 -5.31647,-0.70177 -1.36473,0.8523 -1.62006,0.82236 -1.62006,-0.19069 0,-1.28952 -0.84683,-1.00369 -1.6893,0.57051 l -0.75654,1.41335 -1.58957,-1.52342 z M 52.167602,135.2144 c -0.480023,-0.009 -0.965229,0.0227 -1.419034,0.10697 -3.956391,0.73492 -5.853054,4.53429 -6.477124,12.97388 -0.194186,2.62499 -0.04697,3.07392 1.57458,4.79764 l 1.789038,1.90169 2.411222,-2.41432 c 2.787095,-2.79065 6.023742,-4.5572 13.872538,-7.57215 l 5.615162,-2.15697 -3.895886,0.34778 -3.895886,0.34727 0.890902,-1.3193 c 0.677635,-1.00383 1.374195,-1.30394 2.912999,-1.25522 1.112401,0.0352 2.022615,-0.12051 2.022615,-0.34623 0,-0.59692 -5.210215,-2.66485 -6.024438,-2.39107 -0.379524,0.12751 -1.217194,1.16039 -1.861386,2.29495 -0.64421,1.13455 -2.21157,2.69439 -3.482991,3.46645 -1.271423,0.77211 -3.1208,2.09938 -4.110342,2.94969 -2.249908,1.93335 -5.858041,3.5257 -5.858041,2.58538 0,-0.36104 0.592254,-1.438 1.316199,-2.39366 1.971106,-2.60201 2.686055,-4.15556 2.957959,-6.42493 0.250616,-2.09159 1.422339,-3.44792 2.992065,-3.46335 0.481433,-0.004 1.245801,-0.24279 1.698603,-0.52917 1.038688,-0.65694 -0.948655,-1.46609 -3.028754,-1.50533 z m -9.024773,1.89962 -2.716112,0.28887 c -1.493814,0.15896 -3.009619,0.59876 -3.368786,0.9772 -0.667279,0.70305 -0.529389,0.68798 3.079398,-0.34416 0.965242,-0.27608 0.806646,0.0544 -0.796335,1.65726 -2.082377,2.08238 -2.256282,3.65472 -0.588595,5.32526 0.407411,0.40811 0.740524,1.10289 0.740524,1.54409 0,0.44117 0.265454,0.80253 0.589629,0.80253 0.388967,0 0.458439,-1.15635 0.204637,-3.39979 -0.364411,-3.22094 -0.299463,-3.48986 1.235586,-5.12527 z m 44.563172,6.6735 c -0.354795,-0.0418 -1.887709,0.2879 -3.710884,0.80925 -2.083652,0.59588 -4.420926,1.09858 -5.193998,1.11673 -1.292858,0.0303 -1.32324,0.0865 -0.374656,0.70176 2.922217,1.89531 2.861617,2.00656 -0.653706,1.19786 -1.954321,-0.4496 -4.034856,-1.07483 -4.622974,-1.38958 -0.824199,-0.44109 -1.6826,-0.24272 -3.746024,0.86455 -9.117735,4.89274 -15.620915,10.37795 -16.249655,13.70666 -0.308936,1.63556 -0.225237,1.86674 0.568441,1.56217 0.738503,-0.28337 0.931725,-0.0126 0.931725,1.30949 0,0.91681 -0.252891,1.66656 -0.561721,1.66656 -0.308829,0 -0.561723,-0.35401 -0.561723,-0.78703 0,-1.04714 -2.930041,-2.02055 -6.083351,-2.02055 -2.666145,0 -9.203335,2.89599 -11.713495,5.18883 -2.376056,2.17036 -2.782112,6.29098 -0.427366,4.33669 0.893173,-0.74125 1.079947,-0.13958 0.326081,1.04955 -0.342363,0.54004 -1.170554,0.64321 -2.978632,0.37207 -2.150798,-0.32254 -2.736958,-0.18125 -4.149616,0.99942 -1.192305,0.99642 -1.954358,1.25228 -2.768307,0.93017 -1.913424,-0.75724 -4.069828,-0.57973 -4.432286,0.36484 -0.535194,1.39467 -0.44018,1.43848 1.2423,0.56844 1.293577,-0.66893 1.832938,-0.69121 2.948141,-0.11989 1.09124,0.55907 1.71322,0.55743 3.103169,-0.008 0.956161,-0.38979 3.988265,-1.01832 6.73809,-1.39682 5.48486,-0.75489 7.06673,-1.66643 8.16591,-4.70617 0.585086,-1.618 0.94479,-1.82692 4.072104,-2.36264 1.886831,-0.32323 3.655486,-0.38025 3.93051,-0.12713 0.28631,0.26363 -0.205606,2.20467 -1.150835,4.54133 -1.506357,3.72371 -1.918859,4.24212 -4.711342,5.91953 -4.059045,2.43824 -12.775343,5.20222 -17.659903,5.60018 -6.452354,0.52572 -8.22914,2.51523 -5.682856,6.36292 1.626984,2.45853 5.884175,5.61722 7.571113,5.61722 0.631243,0 1.28094,0.49244 1.481047,1.12293 0.396862,1.25039 1.68497,1.40008 3.33933,0.38809 v -0.001 c 2.964916,-1.81367 5.869379,-4.06625 8.842873,-6.85798 3.078456,-2.89025 4.319921,-3.77646 3.553788,-2.5368 -0.197371,0.31929 0.362135,0.29676 1.372007,-0.0553 2.068838,-0.72119 2.303714,-1.05401 1.882574,-2.66444 -0.198855,-0.76066 -0.629248,-1.13617 -1.096057,-0.95705 -1.174795,0.45082 -0.927876,-1.15774 0.580326,-3.78116 1.355442,-2.35774 2.346968,-5.6614 2.09858,-6.9913 -0.07343,-0.39298 0.223678,-1.07117 0.659908,-1.5074 0.683196,-0.68322 1.075176,-0.60129 2.829284,0.59066 1.120019,0.76108 1.975888,1.66048 1.901693,1.99884 -0.07407,0.33836 0.216405,0.74278 0.645438,0.89866 0.523221,0.19015 0.633267,0.046 0.334346,-0.43771 -0.294421,-0.47635 -0.222467,-0.58309 0.211873,-0.3147 0.36159,0.22348 0.519504,0.62874 0.351401,0.90072 -0.168082,0.27202 0.207137,0.76861 0.833541,1.1038 0.668255,0.35767 1.13843,0.38867 1.138433,0.0749 0,-0.29396 -0.315706,-0.66242 -0.701768,-0.81907 -0.541536,-0.21974 -0.52416,-0.40957 0.077,-0.82992 0.610593,-0.4269 0.246563,-0.9328 -1.684136,-2.33887 -1.355037,-0.98683 -3.158739,-2.15733 -4.008022,-2.60088 -1.66315,-0.86862 -1.962687,-1.34267 -0.842328,-1.33325 0.386038,0.004 2.212788,1.14046 4.059701,2.52698 1.846913,1.38649 3.52316,2.52077 3.724838,2.52077 0.201616,0 0.519573,-0.44192 0.706417,-0.98237 0.766387,-2.21689 2.497177,-4.38357 3.896402,-4.87773 1.92427,-0.67962 2.449211,-0.10583 1.509985,1.64899 -0.412692,0.77114 -0.556048,1.59209 -0.318844,1.82418 0.674476,0.65994 4.249354,-3.81884 4.249354,-5.32371 0,-1.6681 0.602729,-2.80962 3.719152,-7.04298 1.351643,-1.83608 2.458654,-3.87886 2.4598,-4.53977 0.0011,-0.6609 0.51884,-2.04934 1.150316,-3.08508 0.998056,-1.63707 1.393129,-1.85421 3.022555,-1.66399 1.291222,0.15068 1.793901,0.011 1.61644,-0.45268 -0.141769,-0.36923 0.253836,-0.83373 0.878498,-1.03198 0.974477,-0.30929 3.437517,-3.46167 3.437517,-4.39973 0,-0.0217 -0.02683,-0.0354 -0.07752,-0.0413 z m -58.730781,1.45365 c -0.652539,-0.0384 -1.191152,0.59431 -1.519804,1.90376 -0.253844,1.01141 -0.06944,1.80742 0.586526,2.53215 1.155525,1.27685 1.324239,1.28854 2.87166,0.20464 v 5.1e-4 c 1.174965,-0.82298 1.184299,-0.9087 0.265618,-2.51819 -0.78482,-1.37498 -1.551464,-2.08446 -2.204,-2.12287 z m -3.994589,1.07126 c -0.48686,-0.0214 -1.209744,0.54744 -1.209744,1.08572 0,0.7176 0.969311,0.66939 1.426784,-0.0708 0.203525,-0.32938 0.235117,-0.73333 0.07028,-0.89814 -0.07542,-0.0754 -0.174969,-0.11185 -0.28732,-0.11678 z m 10.533207,0.77824 c -0.329258,-0.0167 -0.513146,0.18124 -0.513146,0.57258 0,0.95439 0.03264,0.96499 1.029909,0.3328 0.603018,-0.38226 0.575596,-0.5412 -0.140559,-0.81598 -0.140669,-0.054 -0.266452,-0.0838 -0.376204,-0.0894 z m 21.337715,3.36052 c -0.223496,-0.0447 -1.189379,0.32403 -2.33784,0.90434 -2.898132,1.46443 -5.407959,4.28469 -5.045689,5.66994 0.346967,1.32688 1.092354,1.28341 1.528072,-0.0894 v -5.2e-4 c 0.19164,-0.6038 1.598676,-2.22154 3.126425,-3.59513 1.527747,-1.37356 2.777609,-2.65355 2.777609,-2.84427 0,-0.0239 -0.01665,-0.0386 -0.04858,-0.045 z m 11.566736,1.4056 c 1.589164,0 0.619265,1.29928 -3.058729,4.09742 -3.558278,2.70708 -4.276187,2.97634 -3.660759,1.37253 0.490435,-1.27803 5.639856,-5.46995 6.719488,-5.46995 z m 22.092192,0.23926 c -0.2501,-0.006 -0.46175,0.0299 -0.604099,0.11782 -0.344461,0.21289 -0.03268,0.6737 0.748792,1.10691 1.6231,0.89968 2.742986,0.9841 2.742986,0.20671 0,-0.61332 -1.803922,-1.40701 -2.887679,-1.43144 z m -54.342421,1.43196 c -1.895231,0.0312 -4.097221,0.87573 -7.224881,2.64221 -3.889052,2.19651 -5.019723,3.17603 -6.878648,5.95985 -1.638615,2.45382 -2.224154,3.90606 -2.224154,5.51335 0,1.20015 0.106117,2.18178 0.235643,2.18178 0.129678,0 0.65046,-1.24886 1.157552,-2.77554 0.507072,-1.52668 1.368513,-3.35872 1.914613,-4.07107 0.546076,-0.71233 1.16736,-1.77189 1.380794,-2.35438 0.36004,-0.98266 0.461092,-0.99285 1.398365,-0.14469 0.891982,0.80724 1.136917,0.81803 2.093928,0.094 1.533287,-1.15994 1.925982,-1.05194 1.925982,0.52865 0,2.87653 4.022362,2.96997 9.85366,0.22893 4.058515,-1.90771 3.886576,-4.77819 -0.419095,-7.00474 -1.049967,-0.54297 -2.076619,-0.81715 -3.213759,-0.7984 z m 51.403065,0.0842 c -0.340231,-0.003 -0.299027,0.32601 -0.0894,0.9865 0.271182,0.8544 -0.02515,1.12506 -1.542542,1.40974 -2.923596,0.54847 -10.267469,9.17048 -13.796058,16.19694 -1.923738,3.83073 -2.268273,4.18992 -5.697326,5.94176 -2.721771,1.39049 -4.120536,1.79089 -5.500954,1.57509 -1.605529,-0.25102 -1.93647,-0.0887 -2.494939,1.2237 -0.354142,0.83219 -0.992434,1.93284 -1.418519,2.44533 -0.675153,0.81206 -0.62611,0.97907 0.383956,1.29966 0.63746,0.20226 1.382736,0.22953 1.656231,0.0605 0.773858,-0.4783 6.028346,1.25528 6.866762,2.2655 0.412758,0.49731 0.885336,2.03848 1.050066,3.4246 l 0.299722,2.52026 4.490683,0.26975 c 2.469901,0.14855 4.807196,0.53321 5.193998,0.85421 0.806733,0.66953 0.970481,2.362 0.181386,1.8743 -0.639414,-0.39518 -3.955254,0.38154 -12.393044,2.90215 -9.095557,2.71712 -9.13503,2.73653 -8.651669,4.23747 0.222989,0.69236 0.407901,1.57456 0.41083,1.9606 0.0064,0.97771 1.170765,0.83632 5.763471,-0.6997 v 5.2e-4 c 4.253487,-1.42255 12.584763,-3.1674 12.584763,-2.6355 0,0.17635 0.342599,-0.14787 0.761193,-0.72037 0.493295,-0.67465 1.108689,-0.90725 1.749248,-0.66146 0.840349,0.32248 0.949899,0.11876 0.732772,-1.36064 -0.244441,-1.66556 -0.0018,-1.90942 5.690608,-5.71955 6.650804,-4.45151 10.15752,-7.13253 10.15752,-7.76644 0,-0.23334 -1.83203,-0.28612 -4.071069,-0.11731 -2.478773,0.18696 -5.388444,0.0149 -7.439856,-0.43873 l -3.369305,-0.7457 2.807581,-0.37155 c 1.544151,-0.20438 3.691906,-0.69638 4.772835,-1.09295 1.080908,-0.39655 2.664399,-0.96819 3.518649,-1.27021 1.400413,-0.49515 1.459555,-0.6172 0.602546,-1.24385 -0.851212,-0.62242 -0.699199,-0.87712 1.45211,-2.43551 1.321229,-0.95709 2.894867,-1.89647 3.497458,-2.08773 0.847101,-0.26884 0.952749,-0.51996 0.465606,-1.10691 -0.468021,-0.56394 -0.451371,-1.09264 0.06459,-2.05672 0.513522,-0.95953 0.765316,-1.08625 0.965317,-0.48628 0.14877,0.44631 0.610237,-0.51724 1.025776,-2.14095 0.65446,-2.55732 0.641408,-3.17321 -0.09818,-4.60334 -0.469569,-0.90806 -1.100034,-1.65106 -1.400948,-1.65106 -0.300894,0 -0.547253,-0.75697 -0.547253,-1.68258 0,-2.05588 -3.156757,-5.76111 -6.255949,-7.34219 -1.316648,-0.67171 -2.038434,-1.00786 -2.378667,-1.01131 z m -48.699354,1.99833 c 3.263014,-0.0333 4.762847,2.53712 1.003041,4.48138 -1.71037,0.88448 -6.992662,2.87518 -7.839316,2.95434 -0.241321,0.0225 -0.581773,-0.33161 -0.756541,-0.78703 -0.550619,-1.4349 2.050804,-4.85677 4.513937,-5.93762 1.113269,-0.48851 2.165236,-0.70175 3.078879,-0.71107 z m 17.906402,8.75915 c 0.279966,-0.0149 0.731536,0.1132 1.337387,0.4253 1.627174,0.83824 4.39973,3.38675 4.39973,4.0442 0,0.55512 -2.634708,-0.91109 -4.922179,-2.73937 -1.218089,-0.97356 -1.430867,-1.69742 -0.814938,-1.73013 z m 23.015133,3.20962 c 0.313605,0 0.715724,0.37909 0.893485,0.84233 0.177845,0.46324 0.235598,0.84233 0.128675,0.84233 -0.106958,0 -0.50904,-0.37909 -0.893488,-0.84233 -0.402928,-0.48548 -0.457353,-0.84233 -0.128672,-0.84233 z m 9.5343,4.50981 c 1.463082,0.017 1.487974,0.0601 0.478525,0.82424 -1.072927,0.81215 -2.022615,0.66487 -2.022615,-0.31368 0,-0.2906 0.694807,-0.52036 1.54409,-0.51056 z m -66.006823,6.73809 c -0.683705,0.0311 -2.357477,1.48773 -2.357477,2.05155 0,0.29797 0.820997,0.53665 1.824693,0.5302 1.003721,-0.007 2.267128,0.19137 2.807581,0.43925 0.540452,0.24792 0.982885,0.26289 0.982885,0.0336 0,-0.52214 -2.726608,-3.07878 -3.257682,-3.05459 z m 37.946523,1.97714 c 0.143356,-0.0174 0.274103,0.0385 0.36845,0.1912 0.211167,0.34179 0.228,0.87405 0.03721,1.18287 -0.404778,0.65497 -1.407848,0.75617 -1.395265,0.14056 0.01591,-0.74868 0.559531,-1.46228 0.989606,-1.51463 z m -7.703408,3.62045 c -0.290621,0 -0.684522,0.25237 -0.875397,0.56121 -0.190791,0.30883 0.04717,0.56172 0.528648,0.56172 0.481478,0 0.8754,-0.25289 0.8754,-0.56172 0,-0.30884 -0.238048,-0.56121 -0.528651,-0.56121 z m 10.916648,9.03821 c -1.205484,-0.0396 -2.946779,0.83919 -2.510441,1.2671 0.145584,0.14261 1.022226,-0.0757 1.948717,-0.48524 1.303531,-0.57631 1.430745,-0.75323 0.561724,-0.78186 z m 4.819343,0.0155 c -0.195067,0.008 -0.362493,0.0597 -0.455787,0.15296 -0.186545,0.18655 0.145095,0.31895 0.736907,0.29456 0.654142,-0.027 0.786921,-0.15977 0.338997,-0.339 -0.202676,-0.0811 -0.42505,-0.11656 -0.620117,-0.10852 z m 78.692871,4.54856 c 0.96525,-0.0126 2.19751,0.97629 1.79834,1.62212 -0.50339,0.81454 -2.34121,0.56528 -2.69854,-0.36587 -0.18931,-0.49315 0.0287,-1.00139 0.50849,-1.18545 0.12146,-0.0466 0.25382,-0.069 0.39171,-0.0708 z M 36.435745,199.1314 c -0.03078,0.002 -0.05944,0.015 -0.08578,0.0413 -0.167444,0.16744 0.08017,1.40269 0.550355,2.74505 0.114194,0.326 0.216358,0.59222 0.310576,0.81907 0.183375,0.77925 0.417227,1.77941 0.774628,3.35793 0.304004,1.3246 0.416928,2.22099 0.464056,2.71922 -0.02757,0.45304 0.0032,0.94834 0.09509,1.29966 0.141343,0.54046 0.256831,0.0986 0.256831,-0.98237 0,-0.002 0,-0.003 0,-0.006 l 0.05271,-0.0238 c -0.02752,-5.20221 -1.019699,-7.2944 -1.37201,-7.8791 -0.301334,-1.10046 -0.75964,-2.10686 -1.046448,-2.09134 z m -3.164147,2.19779 c -0.119282,0.009 -0.241869,0.0518 -0.367938,0.12971 -0.392572,0.24264 -0.325334,1.10862 0.205674,2.64997 0.785487,2.27991 0.651082,3.33778 -0.424264,3.33778 -1.245254,0 -8.979371,3.93244 -8.681641,4.4142 0.175511,0.28411 -0.310097,0.92933 -1.079521,1.4335 -2.066502,1.354 -1.81202,3.25768 0.706419,5.28082 l 2.105813,1.69137 -1.544092,0.38912 c -0.849283,0.21399 -1.54409,0.7407 -1.54409,1.17047 0,0.42976 -0.252894,0.78135 -0.561724,0.78135 -0.308829,0 -0.561723,0.37908 -0.561723,0.84233 0,0.46324 -0.315727,0.85252 -0.701765,0.86506 -0.386038,0.0125 -1.576578,0.77071 -2.645833,1.68465 l -1.944068,1.66191 h 2.257742 c 1.241859,0 2.650236,-0.31624 3.129526,-0.70228 1.053211,-0.84828 4.396631,-5.75736 4.396631,-6.45542 0,-0.27371 1.892552,-1.81854 4.205428,-3.43338 4.318301,-3.01505 5.624989,-4.57343 5.482352,-6.53552 -0.447204,-6.1511 -1.279861,-9.28972 -2.432926,-9.20564 z m 116.487462,0.57671 c 0.56874,0 0.83376,0.16254 0.63304,0.48731 -0.19079,0.30882 -1.2796,0.5362 -2.4195,0.5054 -1.86161,-0.0503 -1.92962,-0.10151 -0.66869,-0.5054 1.01406,-0.32477 1.88641,-0.48731 2.45515,-0.48731 z m -99.321587,0.48731 c -0.963014,0 -1.636601,0.51569 -2.268077,1.73684 -1.084895,2.09796 -0.878834,2.40375 1.108977,1.64797 2.072487,-0.78795 2.589927,-0.72582 2.209684,0.2651 -0.207558,0.54098 0.01067,0.84232 0.612365,0.84232 0.514519,0 0.778954,0.25237 0.588079,0.56121 -0.190791,0.30883 -0.22061,0.56172 -0.06615,0.56172 0.154498,0 0.426424,-0.23547 0.604097,-0.52296 0.177633,-0.28749 0.07711,-0.67424 -0.223243,-0.8599 -0.300384,-0.1857 -0.411204,-0.68905 -0.246496,-1.11828 0.503335,-1.31164 -0.839137,-3.11402 -2.31924,-3.11402 z m 25.88731,0 c -2.052474,0 -5.89048,2.62352 -8.756055,5.98568 -2.926461,3.43364 -7.19886,6.72348 -7.80986,6.01359 -0.231177,-0.26859 -0.969166,-1.21746 -1.639691,-2.1084 -1.503659,-1.99795 -1.609791,-1.22943 -0.138494,1.00252 0.811128,1.2304 0.94773,1.95952 0.558107,2.98432 -0.685808,1.80379 -0.657558,4.65191 0.04599,4.65191 0.308832,0 0.561208,-0.33472 0.561208,-0.74414 0,-0.7153 1.772533,-2.5924 3.222543,-3.41271 0.476339,-0.26951 0.583395,-0.10219 0.340545,0.53071 -0.195035,0.50821 0.239725,3.2904 0.965835,6.18257 0.726085,2.89216 1.14241,5.43599 0.925007,5.6534 -0.217406,0.2174 -1.028049,0.10689 -1.80144,-0.24546 -1.084897,-0.49431 -1.409401,-0.48268 -1.419037,0.0496 -0.0064,0.3794 -0.493204,0.0637 -1.081069,-0.70125 l -1.06867,-1.39113 -3.931026,2.68562 c -7.636401,5.21774 -14.788867,14.08535 -15.571658,19.30529 -0.19546,1.30282 -0.517501,2.3483 -0.715719,2.32285 -1.982208,-0.25437 -7.935121,0.20282 -7.695139,0.59118 0.17148,0.2776 -1.51943,0.67851 -3.757392,0.8909 -5.545069,0.52624 -11.096496,1.8081 -12.876216,2.97295 -7.9394416,5.19645 -11.1264528,7.49676 -11.1264528,8.03207 0,0.36901 0.404029,0.47964 0.9658323,0.26405 0.5310309,-0.20373 0.7874167,-0.1928 0.5699911,0.0248 -0.2174031,0.21741 0.04322,0.72803 0.578776,1.1348 0.894891,0.67953 0.868431,0.74115 -0.3276285,0.75758 -1.2059721,0.017 -1.2826624,0.20402 -1.0381795,2.55024 0.1829388,1.7558 0.6686892,2.86959 1.5828492,3.6313 0.7251964,0.60425 1.002538,1.10696 0.6164998,1.11726 -1.1157535,0.0298 -2.6720686,-1.82835 -4.1279133,-4.9284 -0.7407949,-1.57739 -1.47339336,-2.87385 -1.62780763,-2.88097 -0.15450079,-0.007 -1.12597775,1.27961 -2.15955827,2.85978 l -1.8794716,2.87321 2.30218504,4.64625 c 2.19417686,4.42804 2.52790906,6.70097 0.89141828,6.073 -0.41400915,-0.15896 -1.03743782,0.24324 -1.38544512,0.89348 -0.348007,0.65026 -0.8555916,1.04507 -1.1275798,0.87696 -0.8046958,-0.49734 -1.2300638,0.72874 -0.6371704,1.83658 0.8843233,1.65237 -0.079256,2.54656 -2.2510252,2.08825 -1.4884225,-0.31414 -1.7539456,-0.25236 -1.2371337,0.28887 0.3619077,0.37899 0.524547,1.03732 0.3612182,1.46296 -0.2430828,0.63344 0.9614109,0.76388 6.64145483,0.71882 4.15711427,-0.0329 7.41308917,-0.31904 8.12198487,-0.71366 2.3252072,-1.29432 5.2418212,-4.24103 5.5965572,-5.65444 0.214113,-0.85307 0.122991,-1.43814 -0.223759,-1.43814 -0.321521,0 -0.728091,-0.5053 -0.903304,-1.12295 -0.175298,-0.61767 -0.481101,-1.68978 -0.680061,-2.38228 -0.323666,-1.12641 -0.262755,-1.17631 0.579292,-0.47749 0.857178,0.71141 0.890525,0.64815 0.374138,-0.71004 -1.071802,-2.81908 -2.188509,-4.57628 -4.1558189,-6.53759 l -1.9714559,-1.96524 3.9940718,-3.73208 c 6.571561,-6.14097 14.773856,-8.75433 27.829308,-8.86663 3.852508,-0.0331 6.098106,0.5483 6.908107,1.788 0.457409,0.70002 -1.173861,5.22527 -5.111835,14.18002 -1.765565,4.01481 -3.359608,8.31035 -3.542419,9.54566 -0.294844,1.99231 -0.218458,1.8999 0.678513,-0.81597 0.737439,-2.23282 1.374849,-3.1868 2.354377,-3.52483 1.235704,-0.42649 3.757488,-4.56687 3.432865,-5.63637 -0.204372,-0.67339 1.502929,-4.47029 2.510959,-5.58414 0.58954,-0.65143 1.714424,-1.00404 3.207555,-1.00512 1.928622,-10e-4 2.480074,-0.27239 3.422015,-1.68257 0.617683,-0.92474 1.312987,-1.68222 1.544608,-1.68312 0.644782,-0.003 0.500033,2.50177 -0.183967,3.18585 -0.432031,0.43204 -0.126318,0.94578 1.069699,1.79731 1.88013,1.3388 3.007485,1.47686 4.693256,0.57465 1.00964,-0.54033 1.571464,-0.20751 4.499983,2.66703 2.746664,2.696 6.064229,7.55793 6.064229,8.8873 0,0.16809 -1.981539,-0.69075 -4.403349,-1.90841 -4.483306,-2.25415 -8.80945,-3.59238 -13.845667,-4.28295 -3.263474,-0.44746 -2.953163,0.34211 0.561208,1.4273 2.480236,0.76586 7.079525,3.49565 8.235156,4.8881 0.648771,0.78171 0.584515,0.84301 -0.518316,0.49297 -0.767556,-0.2436 -1.259353,-0.16547 -1.259353,0.2 0,0.32964 0.223689,0.59893 0.496609,0.59893 0.649687,0 7.68051,4.78142 10.082072,6.85642 2.214764,1.9136 3.135257,1.5055 3.727937,-1.65365 0.405141,-2.15961 1.977657,-4.97255 1.977657,-3.53777 0,1.32509 3.293261,-2.24279 5.029669,-5.44875 0.879866,-1.62446 1.371451,-2.8126 1.092438,-2.64014 -1.270381,0.78512 -0.286544,-2.84462 1.969389,-7.26573 l 2.476852,-4.85396 1.258837,2.03657 c 1.152258,1.86439 2.634755,2.81636 5.972762,3.8349 1.073097,0.32745 1.394532,0.007 2.447915,-2.44171 0.666937,-1.55035 1.560957,-3.10824 1.986957,-3.4618 0.426,-0.35354 0.618479,-0.89517 0.427881,-1.20354 -0.190579,-0.30837 0.0017,-0.78151 0.427363,-1.0511 0.632709,-0.40072 0.614365,-0.49165 -0.101285,-0.49867 -0.481433,-0.004 -1.365782,0.36255 -1.965253,0.81597 -2.992126,2.26312 -2.542858,-0.55314 0.576707,-3.61477 2.470094,-2.42421 2.542566,-2.45232 4.632795,-1.79731 1.98213,0.62113 2.20696,0.56987 3.38532,-0.77256 1.17825,-1.34232 1.20632,-1.54609 0.42116,-3.06441 -0.94656,-1.83045 -1.15,-8.16333 -0.27957,-8.70128 1.73711,-1.0736 -0.60408,-5.29961 -3.55843,-6.42286 -0.84916,-0.32285 -1.4696,-1.10757 -1.660368,-2.10013 -0.650089,-3.38247 -1.60596,-6.66062 -2.082043,-7.14065 -0.809112,-0.81581 -1.352609,2.50831 -0.695048,4.25038 l 0.597895,1.58389 -2.337324,-0.3359 c -1.285449,-0.18506 -5.131839,-1.66508 -8.547798,-3.2892 -3.415961,-1.6241 -7.135064,-3.25802 -8.264612,-3.63079 -1.616374,-0.53346 -2.503623,-1.41715 -4.166156,-4.14962 -1.835856,-3.01733 -2.113748,-3.92799 -2.123384,-6.95616 -0.01279,-3.81133 0.598966,-4.70364 3.919659,-5.72368 0.926491,-0.28462 1.24224,-0.54007 0.701765,-0.56793 -0.540454,-0.0278 -0.982885,-0.33204 -0.982885,-0.67593 0,-0.37285 0.668409,-0.52722 1.655196,-0.3824 1.082689,0.15896 1.524789,0.0355 1.278991,-0.35709 -0.206708,-0.33016 -0.426225,-0.93602 -0.488342,-1.34617 -0.26348,-1.74007 -0.806944,-2.34249 -2.112533,-2.34249 z m 62.836987,3.09129 2.80758,3.42511 c 1.54415,1.88393 3.36186,4.15762 4.03955,5.0524 0.89514,1.18184 1.24083,1.37034 1.26349,0.68988 0.0569,-1.7071 -0.56251,-2.54266 -4.35322,-5.86992 z m -90.233247,1.4242 c -0.265306,0.0104 -0.399349,0.20878 -0.310576,0.60823 0.07726,0.34745 -0.210804,0.75933 -0.639755,0.91519 -0.490685,0.17826 -0.629507,0.0394 -0.374136,-0.37362 0.291364,-0.47141 -0.04352,-0.55228 -1.185458,-0.28629 -1.522971,0.35472 -2.994649,1.62754 -2.994649,2.58951 0,0.59191 3.1574,0.49508 5.446696,-0.16692 2.259076,-0.65332 2.665325,-1.29359 1.536856,-2.42207 -0.580194,-0.5802 -1.137869,-0.87744 -1.478978,-0.86403 z m 84.469267,0.69918 c -0.25483,0.0796 1.02389,1.34539 3.37912,3.27887 1.62044,1.33024 2.44082,1.80486 1.82314,1.05471 -1.41938,-1.72385 -3.07038,-3.21781 -4.41937,-3.99872 -0.4427,-0.25628 -0.69796,-0.3614 -0.78289,-0.33486 z m -12.34395,3.91139 c -0.32546,0.007 -0.62556,0.0348 -0.88884,0.0842 -2.74313,0.5146 -3.74503,1.66324 -6.42131,7.36338 -2.63044,5.60251 -2.8411,6.90225 -1.39423,8.59999 3.23328,3.79387 7.20956,5.91425 8.847,4.71805 1.32382,-0.96709 3.85512,-4.94069 5.6348,-8.84597 1.05281,-2.31019 2.14857,-4.20026 2.43499,-4.20026 0.58954,0 -0.7417,-4.84294 -1.62315,-5.90506 -0.7931,-0.95562 -4.31111,-1.8664 -6.58926,-1.81436 z m -0.10698,1.55132 c 1.28278,-0.0125 3.33469,2.09941 3.33469,3.43235 0,1.10169 -0.0723,1.09013 -1.68156,-0.26406 -0.92483,-0.77822 -2.22132,-1.58623 -2.88147,-1.79576 -0.9425,-0.29914 -1.03369,-0.48632 -0.42427,-0.8723 0.42682,-0.27032 1.17038,-0.49552 1.65261,-0.50023 z m 19.70836,1.84485 c -0.044,0.0157 -0.0694,0.0629 -0.0718,0.1447 -0.0111,0.32701 0.35324,1.08517 0.80667,1.68465 0.45343,0.59949 0.83251,0.82259 0.84233,0.49558 0.0111,-0.327 -0.35324,-1.08516 -0.80667,-1.68465 -0.34007,-0.44962 -0.6385,-0.68743 -0.7705,-0.64028 z m -69.845346,1.33481 c 1.336402,0.0418 1.914387,3.24842 1.053166,7.62072 -0.228121,1.15814 -0.504521,2.10581 -0.614431,2.10581 -0.109935,0 -0.722056,-0.88551 -1.360641,-1.96783 -1.558817,-2.642 -1.708336,-5.51956 -0.363802,-7.00526 0.47817,-0.52838 0.911516,-0.76515 1.285708,-0.75344 z m -52.588003,0.0114 c -0.2099,-0.006 -0.445569,0.0719 -0.732256,0.2253 -0.878062,0.46992 -2.703194,3.25648 -2.703194,4.1274 0,0.52617 1.038108,0.3394 1.404049,-0.2527 0.19079,-0.30882 1.090045,-0.56172 1.998328,-0.56172 1.804765,0 2.13248,-0.92895 0.979268,-2.77554 -0.318948,-0.51071 -0.596366,-0.75294 -0.946195,-0.76274 z m 130.400309,3.34708 c -0.23046,-0.0315 -0.65312,0.5351 -1.54513,1.88722 -1.62034,2.45617 -1.63596,2.46418 -2.45514,1.23042 -1.13432,-1.70839 -2.10571,-1.55502 -2.94246,0.46508 -0.89109,2.15131 -2.574,3.34657 -4.71134,3.34657 -2.91323,0 -6.08998,2.06043 -9.87898,6.40684 l -3.64991,4.18683 -3.22874,0.0377 c -2.45349,0.0286 -3.48347,-0.21749 -4.2907,-1.02474 -1.0421,-1.04207 -1.08503,-1.03152 -2.25567,0.5519 -1.18084,1.59715 -1.18199,1.62556 -0.10491,2.70268 1.60018,1.60019 10.97218,6.11887 14.68799,7.08174 3.89393,1.00903 5.98976,1.04233 7.75147,0.12299 0.80858,-0.42193 1.65659,-1.68345 2.16421,-3.22048 0.99133,-3.00152 6.04726,-13.45011 8.89041,-18.37252 1.11326,-1.92748 1.93579,-4.05167 1.83555,-4.73976 -0.0596,-0.40925 -0.12838,-0.64357 -0.26665,-0.66249 z m -130.995106,0.75292 c -0.327059,0 -0.594278,0.25238 -0.594278,0.56121 0,0.30884 0.111326,0.56172 0.247531,0.56172 0.136252,0 0.403921,-0.25288 0.594794,-0.56172 0.190791,-0.30883 0.07895,-0.56121 -0.248047,-0.56121 z m -1.722891,1.08986 c -0.53618,0.0277 -1.285415,0.37806 -1.468128,0.85421 -0.173176,0.45149 -0.796823,0.97367 -1.385962,1.16065 -0.589138,0.18697 -1.071252,0.5755 -1.071252,0.86352 0,0.92741 1.362095,0.5252 2.94814,-0.87075 0.849285,-0.74752 1.544091,-1.49786 1.544091,-1.66708 0,-0.25804 -0.245182,-0.35718 -0.566889,-0.34055 z m 63.802305,7.43572 c 2.459384,-0.0715 9.194472,2.06686 11.080462,3.83026 0.26231,0.24528 -1.06068,1.13586 -2.939873,1.97921 -1.879192,0.8433 -3.703923,1.8796 -4.055049,2.3027 -1.056034,1.27243 -1.398664,0.93711 -3.233394,-3.16622 -0.967856,-2.16455 -1.759584,-4.19513 -1.759584,-4.51187 0,-0.28365 0.339889,-0.41757 0.907438,-0.43408 z m -19.874756,1.5291 c 0.368549,0.009 0.754115,0.19254 1.342038,0.4961 0.892175,0.46065 2.506451,1.62841 3.587377,2.59467 1.080908,0.96629 2.551523,2.16668 3.26802,2.66806 l 1.30276,0.91209 -2.84117,5.04 c -2.907233,5.15725 -4.520231,7.16744 -4.554759,5.67665 -0.01279,-0.52444 -0.274799,-0.43107 -0.822172,0.29198 -0.442362,0.58436 -0.772705,1.90932 -0.733806,2.944 0.07662,2.03777 -1.375481,4.13439 -2.864943,4.1367 -0.492574,5.7e-4 -3.675279,-0.66314 -7.072434,-1.47588 -3.397157,-0.81276 -6.378043,-1.65911 -6.623886,-1.8805 -0.245861,-0.22139 0.07648,-1.76807 0.715719,-3.437 l 1.162204,-3.03444 -1.184426,1.40405 c -1.09818,1.30158 -1.088734,1.21995 0.127124,-1.12293 1.200304,-2.31308 6.990215,-8.51347 12.637471,-13.53303 1.374029,-1.2213 1.940637,-1.69477 2.554883,-1.68052 z m 11.129036,8.47494 c 1.354826,0 4.125333,2.70425 5.115452,4.99298 1.145146,2.64709 1.021818,3.45831 -0.351917,2.3182 -0.660596,-0.54825 -0.855761,-0.55362 -0.855761,-0.0243 0,1.69434 -1.908265,4.42387 -3.85868,5.52008 -1.37813,0.77453 -2.494293,1.99986 -3.153296,3.46129 -1.143768,2.5364 -2.256161,3.11466 -1.380795,0.71778 0.549241,-1.50389 0.526153,-1.49671 -0.896585,0.28061 -1.340988,1.67525 -2.950345,2.31342 -3.769278,1.49448 -0.18188,-0.18189 0.756809,-2.01394 2.08566,-4.07107 3.819655,-5.91306 6.480741,-11.27249 6.480741,-13.05192 0,-0.90085 0.263107,-1.63814 0.584459,-1.63814 z m 27.289808,9.57874 c 1.368269,0.0221 2.684644,0.42789 3.519164,1.3162 l 1.26711,1.34876 -1.87121,0.39274 c -2.754126,0.57735 -7.118267,3.53846 -8.174174,5.54643 l -0.920874,1.75131 -0.403077,-1.40404 c -0.221774,-0.77208 -0.42863,-2.09886 -0.459401,-2.94815 -0.03714,-1.02313 0.228443,-1.54409 0.786513,-1.54409 0.463246,0 0.842325,-0.48685 0.842325,-1.0821 0,-2.06343 2.801477,-3.41923 5.413624,-3.37706 z m 19.344554,5.40691 c -1.11787,-0.0242 -2.1159,0.22281 -3.61425,0.81339 -1.52254,0.60015 -3.29754,1.01802 -3.94446,0.92862 -0.89761,-0.12417 -1.51682,0.46392 -2.61328,2.48306 -0.79023,1.45524 -3.24787,4.77329 -5.46168,7.37319 -3.053133,3.58558 -4.431109,4.78665 -5.706628,4.97385 -1.198693,0.17594 -1.75024,-0.007 -1.920296,-0.63511 -0.131149,-0.4849 -0.16491,0.0805 -0.07493,1.25627 0.181877,2.37582 1.798759,4.17541 4.155818,4.62555 0.792345,0.15131 2.631386,0.65683 4.087086,1.12345 1.45572,0.46664 3.24334,0.69871 3.97237,0.51572 0.85024,-0.21341 1.58706,-0.017 2.05465,0.54571 0.91,1.09648 1.15248,1.08566 2.60863,-0.11679 2.32041,-1.91609 8.45709,-9.47063 10.90993,-13.4307 2.26596,-3.65839 2.73397,-4.09692 4.97902,-4.66225 3.88938,-0.97936 6.75837,-2.66675 6.79184,-3.99459 0.004,-0.18762 -2.70814,-0.5191 -6.02806,-0.7369 -3.31996,-0.21777 -7.16244,-0.60851 -8.53901,-0.86817 -0.61578,-0.11615 -1.14862,-0.1833 -1.65675,-0.1943 z M 8.0152586,273.14397 c 0.3270593,0 0.5947955,0.25236 0.5947955,0.5612 0,0.30883 -0.1113462,0.56171 -0.2475299,0.56171 -0.1362536,0 -0.4039201,-0.25288 -0.5947958,-0.56171 -0.1907897,-0.30884 -0.079443,-0.5612 0.2475302,-0.5612 z m 1.8241779,1.68412 c 0.1544992,0 0.7380975,0.50578 1.2970785,1.12345 0.558979,0.61767 0.890288,1.12292 0.735872,1.12292 -0.154499,0 -0.738076,-0.50525 -1.297078,-1.12292 -0.558982,-0.61767 -0.8902883,-1.12345 -0.7358725,-1.12345 z m -11.2199868,11.80394 c 0.2515947,-0.014 0.4449339,0.2118 0.4449339,0.71829 0,0.79922 -1.1904911,2.19689 -1.5580442,1.82935 -0.1260612,-0.12612 -0.062759,-0.75329 0.1405599,-1.39422 0.2290241,-0.7216 0.6490713,-1.13546 0.9725504,-1.15342 z m 51.7921873,0.8382 c -2.047708,-0.006 -4.073562,0.10006 -5.993434,0.32348 -3.172132,0.36914 -6.378234,0.6986 -7.124629,0.73173 -0.746376,0.0331 -1.461899,0.37497 -1.590085,0.75964 -0.182724,0.54811 3.087955,0.68292 15.114323,0.62273 13.984766,-0.0701 15.09812,-0.14457 12.539805,-0.83614 -3.828941,-1.03489 -8.441023,-1.58866 -12.94598,-1.60144 z"
         id="path1305"
         inkscape:connector-curvature="0" />
    </g>
  </g>
</svg>
