<?xml version="1.0" encoding="UTF-8" standalone="no"?>
<!-- Created with Inkscape (http://www.inkscape.org/) -->

<svg
   xmlns:dc="http://purl.org/dc/elements/1.1/"
   xmlns:cc="http://creativecommons.org/ns#"
   xmlns:rdf="http://www.w3.org/1999/02/22-rdf-syntax-ns#"
   xmlns:svg="http://www.w3.org/2000/svg"
   xmlns="http://www.w3.org/2000/svg"
   xmlns:sodipodi="http://sodipodi.sourceforge.net/DTD/sodipodi-0.dtd"
   xmlns:inkscape="http://www.inkscape.org/namespaces/inkscape"
   width="210mm"
   height="297mm"
   viewBox="0 0 210 297"
   version="1.1"
   id="svg8"
   inkscape:version="0.92.3 (2405546, 2018-03-11)"
   sodipodi:docname="Characters.svg">
  <defs
     id="defs2" />
  <sodipodi:namedview
     id="base"
     pagecolor="#ffffff"
     bordercolor="#666666"
     borderopacity="1.0"
     inkscape:pageopacity="0.0"
     inkscape:pageshadow="2"
     inkscape:zoom="0.49497475"
     inkscape:cx="967.77346"
     inkscape:cy="601.00638"
     inkscape:document-units="mm"
     inkscape:current-layer="g913"
     showgrid="false"
     inkscape:snap-global="false"
     inkscape:window-width="1920"
     inkscape:window-height="1017"
     inkscape:window-x="-8"
     inkscape:window-y="-8"
     inkscape:window-maximized="1" />
  <metadata
     id="metadata5">
    <rdf:RDF>
      <cc:Work
         rdf:about="">
        <dc:format>image/svg+xml</dc:format>
        <dc:type
           rdf:resource="http://purl.org/dc/dcmitype/StillImage" />
        <dc:title />
      </cc:Work>
    </rdf:RDF>
  </metadata>
  <g
     inkscape:label="Layer 1"
     inkscape:groupmode="layer"
     id="layer1">
    <g
       id="g913"
       transform="translate(10.156242)">
      <path
         style="fill:#c3a877;fill-opacity:1;stroke-width:1"
         d="m 56.830509,430.43029 c -0.36257,-0.36258 -0.75491,-1.21018 -0.87185,-1.88353 -0.11687,-0.6733 -0.32716,-1.76947 -0.46742,-2.43578 -0.16839,-0.80104 -0.10252,-1.71752 0.19485,-2.70508 0.24707,-0.82147 0.44952,-1.61534 0.44952,-1.76414 0,-0.14878 -0.99562,-0.27057 -2.21246,-0.27057 -3.07338,0 -3.1881,-0.20489 -2.1029,-3.75449 0.47759,-1.56208 1.49028,-4.28777 2.25037,-6.05709 1.87323,-4.36018 2.99543,-8.87633 3.35739,-13.51099 0.44819,-5.73954 0.46028,-5.61684 -0.57022,-5.82294 -0.48746,-0.0975 -1.1964,-0.61373 -1.57542,-1.14724 l -0.68906,-0.96999 0.90853,-3.4288 c 0.49958,-1.88583 1.11796,-4.01043 1.37392,-4.72132 1.04582,-2.90424 3.73668,-7.68069 5.85457,-10.39217 2.05096,-2.62586 2.68217,-3.16919 7.07718,-6.09227 2.65396,-1.76514 5.75418,-3.7601 6.88939,-4.43325 1.13528,-0.67313 3.45142,-2.32871 5.14703,-3.67899 1.6957,-1.3503 4.31347,-3.31001 5.81736,-4.35488 1.50396,-1.04487 2.82629,-2.03175 2.93856,-2.19302 0.35652,-0.51185 0.72436,-4.16121 0.6284,-6.23186 -0.0737,-1.58517 0.0384,-2.18338 0.55465,-2.905 0.50886,-0.71476 0.64744,-1.42177 0.64893,-3.31165 9.4e-4,-1.32159 -0.11778,-3.04755 -0.26396,-3.83551 -0.24047,-1.29701 -0.14863,-1.66234 0.97516,-3.86026 0.8742,-1.71004 1.63453,-2.71295 2.57218,-3.39275 0.73219,-0.53076 1.51578,-1.40534 1.74135,-1.94349 0.92617,-2.20962 4.784331,-5.25326 7.304371,-5.76233 0.55754,-0.11266 1.16244,-0.65981 1.74176,-1.57552 1.25617,-1.98562 3.33805,-3.18423 5.83396,-3.35886 1.09776,-0.0768 2.4502,0.0182 3.00538,0.21231 0.88055,0.30696 1.13909,0.25314 2.02512,-0.42167 0.68573,-0.52228 1.65462,-0.8456 2.98209,-0.99527 1.96549,-0.22171 1.96651,-0.22125 2.29828,0.73052 0.18281,0.52376 0.25652,1.62019 0.16451,2.43659 l -0.16737,1.48434 -0.95149,-0.49198 c -0.75594,-0.39092 -1.16081,-0.41909 -1.97016,-0.13714 -2.00066,0.69672 -3.34222,1.83485 -3.63824,3.0865 -0.21985,0.9299 -0.50143,1.2626 -1.30949,1.5477 -0.56619,0.19972 -2.48273,1.15936 -4.25912,2.13248 -2.96117,1.62212 -3.22987,1.8482 -3.23081,2.71827 -6.7e-4,0.73814 0.0848,0.8632 0.38501,0.56303 0.2123,-0.21235 0.8693,-0.38604 1.46001,-0.38604 0.85562,0 1.41502,-0.33136 2.75045,-1.62939 0.9221,-0.89619 2.32788,-1.98319 3.12407,-2.41557 0.79613,-0.43228 1.69141,-0.95903 1.98939,-1.17035 0.42838,-0.30392 0.91227,-0.26747 2.31229,0.17386 1.38359,0.43609 1.92391,0.8063 2.4724,1.69376 0.6986,1.13031 0.7051,1.13275 1.38713,0.52041 0.37689,-0.33846 0.9085,-0.69313 1.18126,-0.78834 0.59717,-0.20822 1.73676,0.55261 1.47127,0.98217 -0.28088,0.45459 -3.1285,1.31661 -5.35539,1.62114 -1.31894,0.18037 -2.18895,0.49531 -2.65444,0.96078 -0.65247,0.65239 -0.66077,0.72417 -0.14424,1.24072 0.51657,0.5166 0.50939,0.5897 -0.12305,1.26297 -0.89998,0.95797 -0.59406,3.12081 0.54715,3.86859 0.44089,0.28894 0.67324,0.66233 0.54258,0.87216 -0.12612,0.20174 -0.21867,0.65645 -0.20626,1.0103 0.0172,0.49373 -0.008,0.51309 -0.11263,0.0833 -0.15015,-0.62541 -1.2959,-1.53086 -1.9374,-1.53086 -0.27916,0 -0.35303,0.25436 -0.22415,0.76915 0.25999,1.03641 -0.17506,1.23991 -2.82572,1.32077 -1.97721,0.0603 -2.33097,0.17008 -3.05043,0.94593 -1.0429,1.12469 -1.62406,0.69532 -1.09866,-0.81179 0.47732,-1.36931 0.27602,-1.50075 -0.59952,-0.39126 -0.87487,1.10869 -0.76446,2.91459 0.30461,4.98591 1.44039,2.79041 2.98017,3.79708 5.80771,3.79708 2.7572,0 3.926,-1.0112 4.27603,-3.69942 0.0737,-0.56407 0.14591,-0.25891 0.17397,0.73411 0.0985,3.46763 -1.65028,5.21714 -5.2145,5.21714 h -1.74984 l -0.16298,1.36719 c -0.96101,8.05904 -1.20032,12.00994 -1.13704,18.77236 l 0.0698,7.43275 -0.8543,1.74613 c -0.46979,0.96039 -1.53266,2.42454 -2.36186,3.25369 -1.60752,1.60753 -3.63116,2.47829 -7.34956,3.16251 -1.056051,0.19431 -2.475691,0.63677 -3.154831,0.98325 -1.88979,0.96409 -3.03559,0.29793 -2.19355,-1.27542 0.21209,-0.39605 0.0848,-0.78504 -0.46708,-1.42647 -0.41717,-0.48505 -0.89218,-0.88187 -1.05553,-0.88187 -0.16298,0 -1.38371,0.49525 -2.712,1.10057 -1.99314,0.90832 -2.61167,1.05621 -3.54079,0.84665 -0.61925,-0.13967 -1.29815,-0.36044 -1.50888,-0.49066 -0.21058,-0.13015 -1.54822,0.1 -2.97228,0.51135 -2.57787,0.74495 -2.59744,0.75874 -4.47673,3.16885 -1.03811,1.33136 -1.82358,2.6383 -1.7454,2.90433 0.58857,2.00373 0.56439,2.19567 -0.33632,2.66759 -1.19773,0.62759 -2.32375,3.58319 -4.3152,11.32706 -3.04083,11.82461 -8.43769,23.38787 -12.96535,27.77964 l -1.44436,1.40096 z m 1.70756,-15.1551 c 0.18605,-0.3011 -2.42371,-1.65072 -2.7118,-1.40226 -0.21166,0.18255 1.68036,1.6824 2.13983,1.69629 0.2108,0.007 0.46813,-0.12584 0.57197,-0.29401 z m 24.50896,-54.92105 c -0.13877,-0.13863 -3.10659,1.49753 -3.10659,1.71273 0,0.0843 0.72458,-0.24101 1.6101,-0.72281 0.88554,-0.48199 1.55899,-0.92743 1.49649,-0.98986 z m 8.05586,-5.35495 c 0.11235,-0.18204 -0.90998,0.43946 -2.27218,1.38125 -1.36229,0.9417 -2.5689,1.86114 -2.6814,2.0432 -0.11249,0.18204 0.90997,-0.43948 2.27224,-1.38125 1.36223,-0.94172 2.56883,-1.86115 2.68134,-2.0432 z m 9.425761,-10.29338 c 0,-0.17203 -0.36172,0.0777 -0.804231,0.55519 -0.44228,0.47732 -0.80423,0.95795 -0.80423,1.06814 0,0.11013 0.36171,-0.13967 0.80423,-0.55519 0.442301,-0.41553 0.804231,-0.89621 0.804231,-1.06814 z m 3.55139,-9.87589 c 0.70072,-0.35752 1.27396,-0.86922 1.27396,-1.13725 0,-0.38358 -0.11972,-0.41243 -0.56305,-0.13557 -0.30988,0.19338 -1.14195,0.70286 -1.8497,1.13197 -1.58955,0.96384 -0.69205,1.07492 1.1387,0.14085 z m -1.89202,-1.48713 c 0.29423,-0.26623 0.62648,-0.84959 0.73857,-1.29666 0.20435,-0.81375 1.09157,-2.23422 2.20458,-3.52912 0.37775,-0.43923 0.47068,-0.76541 0.2565,-0.8978 -0.52806,-0.32639 -2.3045,0.71516 -3.96483,2.3246 -1.15188,1.11655 -1.434981,1.57259 -1.1725,1.88881 0.24706,0.29769 0.24448,0.70819 -0.008,1.43667 -0.19572,0.56079 -0.355691,1.06698 -0.355691,1.12469 0,0.2262 1.798411,-0.59477 2.302741,-1.05119 z m 8.23264,-5.17054 c -0.48653,-0.0737 -1.28274,-0.0737 -1.76933,0 -0.4865,0.0737 -0.0883,0.13404 0.88464,0.13404 0.97314,0 1.37125,-0.0603 0.88469,-0.13404 z m -4.42326,-4.99045 c 0,-0.18828 -0.20434,-0.15707 -0.48258,0.0736 -0.26512,0.22023 -0.4825,0.45055 -0.4825,0.51177 0,0.0611 0.21724,0.0284 0.4825,-0.0736 0.26512,-0.10184 0.48258,-0.33213 0.48258,-0.51177 z m 11.01792,0.18235 c -0.22127,-0.0892 -0.58313,-0.0892 -0.80426,0 -0.22099,0.0892 -0.0392,0.16213 0.40202,0.16213 0.44229,0 0.62328,-0.0728 0.402,-0.16213 z m -6.942,-6.434 c -0.0628,-0.062 -0.57662,-0.0206 -1.14331,0.0932 -0.68595,0.13714 -1.18773,0.51027 -1.50105,1.11615 l -0.47053,0.91004 1.61389,-1.00325 c 0.88767,-0.55182 1.56314,-1.05407 1.50106,-1.11615 z m 19.18545,64.16358 c -0.37559,-0.40594 -0.916,-1.53303 -1.20117,-2.50459 -0.43261,-1.47415 -0.45556,-2.04676 -0.13933,-3.46015 0.20864,-0.93154 0.29819,-1.77467 0.19895,-1.87364 -0.0987,-0.0989 -0.99074,0.27763 -1.98177,0.8369 -1.34156,0.75717 -1.80181,0.89582 -1.80181,0.54279 0,-0.26072 -0.3094,-0.67942 -0.68732,-0.93037 l -0.68734,-0.45635 0.98034,-3.75926 c 0.53922,-2.06761 0.90227,-4.05786 0.80685,-4.42278 -0.0951,-0.36495 -0.73399,-0.94942 -1.41895,-1.29889 -1.47233,-0.75113 -1.58772,-1.47768 -0.40933,-2.57677 0.75585,-0.70498 0.81769,-0.93983 0.64344,-2.44418 -0.17225,-1.4878 -0.0994,-1.77777 0.68671,-2.73437 1.1206,-1.36359 1.42231,-1.57176 2.01566,-1.39069 0.26512,0.0811 1.6406,0.23274 3.05607,0.33708 4.89279,0.36089 10.58478,1.59747 12.61586,2.74086 1.0231,0.57594 1.90813,1.08355 1.96671,1.12798 0.0585,0.0446 -0.0462,0.36699 -0.23418,0.71679 -0.48076,0.89843 -5.08037,3.52049 -7.84134,4.47014 -3.10044,1.06637 -4.22049,2.16118 -4.74641,4.63937 -0.49017,2.31011 -0.47306,2.35019 2.59368,6.0408 1.74158,2.09587 2.19183,2.84626 2.04906,3.41515 -0.10053,0.40147 0.058,1.19498 0.3531,1.7658 0.2947,0.57021 0.41503,1.14741 0.2674,1.28275 -0.14795,0.13529 -1.64882,0.34239 -3.3356,0.45984 -2.9227,0.20374 -3.09911,0.17908 -3.74974,-0.52436 z m 14.86528,-26.61419 c -0.12013,-0.37842 -0.7836,-1.06215 -1.47426,-1.51926 -1.44036,-0.95313 -1.3808,-1.39595 0.18776,-1.39595 1.42602,0 2.52117,1.10042 2.23805,2.24869 -0.28857,1.16977 -0.70018,1.4582 -0.95144,0.66648 z m -22.58717,-3.06591 c -0.49639,-0.43675 -0.72972,-0.79863 -0.51839,-0.80421 0.21123,-0.006 0.79032,0.34714 1.28671,0.78387 0.49644,0.4367 0.72973,0.79864 0.51848,0.80423 -0.21124,0.006 -0.79036,-0.34712 -1.2868,-0.78389 z m 22.89364,0.14086 c -0.32492,-0.35931 -1.72273,-1.26403 -3.10561,-2.01057 -1.38294,-0.74652 -2.51459,-1.43927 -2.51477,-1.53943 -6.5e-4,-0.38997 3.76222,-1.72535 4.87252,-1.72927 1.09724,-0.003 1.14491,-0.0446 0.73565,-0.62903 -0.38853,-0.55448 -0.33925,-0.71735 0.43515,-1.44636 0.91249,-0.85896 2.64201,-1.21061 2.64201,-0.53722 0,0.21286 -0.50662,0.97892 -1.12591,1.70238 -1.23267,1.44009 -1.37765,1.94094 -0.64335,2.22268 0.58129,0.22302 0.62766,1.64832 0.11012,3.37634 -0.42712,1.42487 -0.58899,1.49292 -1.40563,0.59036 z m -3.63797,-7.48655 c -0.26712,-0.32168 -0.0349,-0.6211 0.99004,-1.28677 1.49373,-0.96855 2.85393,-1.11654 3.46748,-0.37724 0.4724,0.56931 0.5463,0.48566 -1.2227,1.38394 -1.56239,0.79338 -2.72525,0.89408 -3.23482,0.28014 z m 3.96855,-4.56294 c -1.56825,-0.73655 -2.13243,-1.33497 -2.40726,-2.55338 l -0.2591,-1.1501 1.2529,-0.0477 c 0.68903,-0.0267 1.43387,-0.0627 1.655,-0.0804 0.48991,-0.0394 1.59094,3.12907 1.32669,3.81763 -0.22757,0.59366 -0.33273,0.59469 -1.56796,0.0152 z m -32.00821,-0.44326 c 0,-0.46194 1.28966,-1.95243 2.0342,-2.35089 0.62625,-0.33527 0.60737,-0.25507 -0.18583,0.78479 -0.48578,0.63694 -0.88333,1.31253 -0.88333,1.50126 0,0.18878 -0.21726,0.34318 -0.48261,0.34318 -0.26511,0 -0.48251,-0.12515 -0.48251,-0.27831 z m 5.84121,-1.33013 c 0,-0.44229 0.0729,-0.62329 0.16213,-0.40207 0.0891,0.22111 0.0891,0.58305 0,0.80422 -0.0891,0.22113 -0.16213,0.0399 -0.16213,-0.40207 z m 17.77511,-0.50459 c -0.54617,-0.26942 -1.63186,-1.15071 -2.4127,-1.95828 -1.22802,-1.27008 -1.31108,-1.4365 -0.61551,-1.23265 0.44227,0.12974 0.96596,0.36451 1.16364,0.52199 0.22041,0.17545 0.49269,0.12584 0.70339,-0.1282 0.49639,-0.59814 -0.43831,-2.3694 -1.61431,-3.05945 l -0.94622,-0.55521 1.07056,-0.19009 1.07056,-0.19011 -1.36718,-0.25313 c -2.09628,-0.38813 -1.75811,-0.85828 0.88464,-1.22979 0.80327,-0.11304 0.80303,-0.1136 -0.16078,-0.52046 -0.96475,-0.40718 -3.6526,-0.33609 -4.74864,0.12556 -0.41928,0.17654 -0.51962,0.11653 -0.38639,-0.23072 0.34052,-0.88775 2.09926,-1.88676 3.64329,-2.06963 2.08792,-0.24718 3.98514,0.62243 6.34577,2.90887 1.55408,1.50523 1.77821,1.86008 1.43561,2.27286 -0.30282,0.36486 -0.32062,0.73435 -0.07,1.45383 0.20715,0.59471 0.22015,1.03637 0.0349,1.15162 -0.16688,0.1029 -0.30248,0.73499 -0.30248,1.40488 0,2.09007 -1.57359,2.84077 -3.72734,1.77808 z m -5.27996,-5.92924 c 0.26513,-0.17148 0.69971,-0.30394 0.96507,-0.2942 0.31808,0.0125 0.26368,0.11193 -0.16078,0.2942 -0.88438,0.37999 -1.39227,0.37999 -0.80423,0 z m -5.0947,-2.43032 c 0.0569,-0.36351 -0.15994,-1.06372 -0.48248,-1.55593 -0.32248,-0.49218 -0.52247,-0.9588 -0.44438,-1.03686 0.24935,-0.24934 1.83958,0.4897 1.83958,0.85486 0,0.20995 0.29125,0.26985 0.72378,0.14863 0.71036,-0.19901 0.70929,-0.19095 -0.0603,0.42715 -0.43105,0.34634 -0.9856,0.89834 -1.23219,1.2265 -0.43018,0.57245 -0.44396,0.56978 -0.34448,-0.0644 z m 11.04597,-8.37892 c -1.94623,-0.9297 -4.39569,-1.84267 -5.44327,-2.02881 -2.39095,-0.42481 -4.16088,-1.57886 -5.02776,-3.27801 -0.36958,-0.72465 -0.61522,-1.37449 -0.54565,-1.44406 0.0699,-0.0697 1.28081,0.43174 2.69174,1.11406 1.41082,0.68231 3.81491,1.53511 5.34237,1.8952 2.0798,0.49029 3.16339,0.94956 4.31535,1.82916 1.35725,1.03633 2.54659,2.79525 2.29436,3.39308 -0.0487,0.11535 -1.68091,-0.55098 -3.62711,-1.48062 z"
         id="path1076"
         inkscape:connector-curvature="0"
         sodipodi:nodetypes="ccccssccccccccccccccccccccccsccccccccccccccsccccccccccccccccscccsccsccsccccccccccscccccccscccccccccsccccccccscscscscccccccccccsccccscccscccccsccccccccccccccscccccsccccccccccccccccccsccccccccccccccsccccccccccccccccccccccsscssccsccccccccccccccccccccsccccccccccsccccccccccccc" />
      <g
         id="g1186"
         transform="matrix(2.5466953,0,0,2.5466953,12.464741,52.430854)"
         style="fill:#c3a877;fill-opacity:1;stroke-width:0.39266571">
        <path
           id="path1178"
           d="m 49.910745,15.981232 c -0.860973,0.02754 -1.831049,0.167741 -2.86856,0.419613 -0.291922,0.07087 -0.31506,0.10614 -0.119372,0.18035 0.221684,0.08403 0.223346,0.11845 0.01704,0.382923 -0.18238,0.233804 -0.209479,0.240741 -0.13901,0.03617 0.04815,-0.139729 0.02671,-0.254248 -0.04754,-0.254248 -0.151527,0 -0.497329,1.149081 -0.380854,1.265556 0.04109,0.04109 0.283493,0.0017 0.538985,-0.08733 1.433113,-0.499585 4.722572,0.23092 5.219319,1.159102 0.08949,0.16721 0.282705,0.652592 0.429432,1.079004 0.294965,0.857334 0.185613,1.595004 -0.302308,2.036568 -0.230428,0.208519 -0.304167,0.201987 -0.846976,-0.07493 -0.326932,-0.166791 -0.594278,-0.273721 -0.594278,-0.237711 0,0.03604 0.527651,0.437473 1.172538,0.891935 1.065369,0.750785 1.620877,1.383589 1.404565,1.599902 -0.04547,0.0455 -0.268105,-0.01222 -0.49506,-0.128157 -0.297076,-0.15177 -0.478335,-0.168892 -0.646991,-0.06046 -0.128857,0.08287 -0.351173,0.106 -0.494024,0.05116 -0.246536,-0.09458 -0.245645,-0.110793 0.01654,-0.314193 0.266745,-0.20695 0.261245,-0.227 -0.159165,-0.583943 -0.239501,-0.203346 -0.705988,-0.531681 -1.03663,-0.729672 -0.330642,-0.197995 -0.634825,-0.488801 -0.675925,-0.645955 -0.09888,-0.378131 -0.466604,-0.362801 -0.742075,0.03049 -0.194048,0.277104 -0.267856,0.294458 -0.599964,0.143144 -0.478231,-0.21789 -0.61365,-0.131582 -0.725019,0.461987 -0.07808,0.416229 -0.200853,0.52378 -0.985469,0.86558 -0.492917,0.214707 -1.158997,0.390684 -1.480532,0.390674 -0.629719,-2.2e-5 -1.229897,-0.322789 -1.229897,-0.661458 0,-0.321084 -0.257442,-0.249482 -0.514699,0.143143 -0.21249,0.32425 -0.211445,0.383043 0.01603,0.730188 0.335294,0.511717 0.153136,0.635222 -0.368453,0.249598 -0.500002,-0.369664 -0.849895,-0.405141 -0.967899,-0.09767 -0.130902,0.341134 0.293489,0.857821 0.946711,1.152384 0.754909,0.340422 1.452798,0.182077 1.729095,-0.39274 l 0.187586,-0.390674 0.581875,0.23306 c 0.65551,0.262282 1.769348,0.184138 2.15284,-0.150895 0.37718,-0.329518 1.135798,-0.669812 1.491382,-0.669209 0.183595,2.91e-4 0.54777,0.131003 0.809255,0.290421 0.461912,0.281633 0.469331,0.301374 0.261998,0.702283 -0.117358,0.226944 -0.418396,0.570115 -0.66921,0.762227 -0.975008,0.746893 -0.986989,0.779914 -0.301273,0.829924 0.396475,0.02894 0.750824,-0.0409 0.983403,-0.19327 0.813662,-0.533127 0.56956,0.20747 -0.436666,1.3255 -0.802926,0.892137 -1.673471,1.29832 -3.071648,1.432988 -0.558837,0.05383 -1.987127,0.223461 -3.173966,0.376721 -1.186846,0.153308 -2.190988,0.278535 -2.23139,0.278535 -0.268949,0 0.409044,0.45379 1.399916,0.936895 1.018529,0.496591 1.20623,0.648732 1.457793,1.183907 0.158779,0.337791 0.351113,0.653106 0.427363,0.700215 0.07627,0.04715 0.246304,0.410411 0.378272,0.807704 0.131972,0.397293 0.295908,0.757145 0.364318,0.799433 0.06843,0.04233 0.404212,-0.01931 0.745692,-0.136943 0.341479,-0.117642 0.637738,-0.196837 0.658357,-0.176215 0.02074,0.02074 -0.01609,0.376864 -0.08165,0.791681 -0.0656,0.414811 -0.0927,0.754478 -0.06046,0.754478 0.03224,0 0.496316,-0.282837 1.030946,-0.628386 1.3653,-0.882425 1.344313,-0.872074 1.244886,-0.612883 -0.169987,0.442973 0.185208,0.210238 1.110009,-0.72657 0.985983,-0.998791 1.776851,-1.575355 2.039667,-1.487765 0.08587,0.02862 -0.04394,0.278678 -0.288353,0.556038 -0.405784,0.460528 -0.576324,0.867132 -0.363802,0.867132 0.04677,0 0.50746,-0.112546 1.02371,-0.250116 0.883586,-0.235442 0.93296,-0.270902 0.84801,-0.609264 -0.04962,-0.197686 -0.251991,-0.509908 -0.450101,-0.693497 -0.414139,-0.38381 -0.352417,-0.591256 0.325559,-1.092957 0.461587,-0.341571 2.539408,-2.612278 3.719672,-4.064868 0.371922,-0.457739 0.74187,-1.078041 0.822171,-1.378728 0.08032,-0.300686 0.335479,-1.20898 0.566891,-2.017964 l 0.420645,-1.470712 -0.581877,-1.115177 c -0.320177,-0.613424 -0.743214,-1.225236 -0.939993,-1.359607 -0.196765,-0.134355 -0.630073,-0.51358 -0.962731,-0.842326 -0.633064,-0.62562 -2.90562,-1.845464 -4.29328,-2.304769 -0.602427,-0.199412 -1.354397,-0.284893 -2.215367,-0.257348 z m -6.708635,4.02146 c -0.05537,0.0037 -0.110373,0.01243 -0.163814,0.02584 -0.597278,0.14991 -1.670944,2.045016 -1.463995,2.584338 0.08859,0.230828 0.817692,0.261471 1.084173,0.04548 0.103518,-0.08391 0.329747,-0.354408 0.502811,-0.600997 l 0.314709,-0.448552 -0.544153,0.471806 c -0.484198,0.419709 -1.11466,0.632714 -1.11466,0.376721 0,-0.05217 0.164398,-0.442384 0.365352,-0.86713 0.406104,-0.858456 0.768885,-1.128259 1.393198,-1.036629 0.27717,0.04068 0.418579,-0.002 0.418579,-0.126091 0,-0.250122 -0.404598,-0.450508 -0.7922,-0.42478 z m 1.71204,0.28267 c -0.01307,-3.18e-4 -0.03008,0.0054 -0.05064,0.01809 -0.07894,0.04879 -0.14366,0.150189 -0.14366,0.225309 0,0.208783 0.104013,0.162581 0.200504,-0.08888 0.03715,-0.09712 0.03302,-0.153596 -0.0062,-0.154512 z m 1.207677,0.01137 c -0.163428,0.0014 -0.314677,0.02343 -0.439248,0.0708 -0.72409,0.275307 -1.403133,2.26641 -0.933278,2.736267 0.243231,0.243195 0.254238,0.228412 0.192238,-0.261483 -0.03032,-0.239491 0.01252,-0.435116 0.09508,-0.435116 0.08265,0 0.115631,-0.08997 0.07338,-0.199987 -0.04223,-0.11002 -0.0038,-0.273746 0.08578,-0.363286 0.0896,-0.08955 0.114843,-0.16278 0.05581,-0.16278 -0.106752,0 0.03596,-0.201521 0.520898,-0.735873 0.139708,-0.153914 0.433639,-0.279219 0.65319,-0.278019 0.316614,0.0018 0.354092,0.03299 0.181385,0.149862 -0.160954,0.10894 -0.112358,0.122846 0.187069,0.05323 0.285019,-0.06626 0.489712,-0.01787 0.689879,0.163298 0.254331,0.230286 0.284221,0.232106 0.284221,0.02067 0,-0.382969 -0.93822,-0.763758 -1.646412,-0.757577 z m -1.746663,0.717786 c -0.180681,-0.01144 -0.497763,0.35092 -1.020093,1.146183 l -0.641821,0.976684 0.735357,-0.400492 c 0.749027,-0.407672 1.23734,-1.136864 1.064016,-1.588534 -0.03244,-0.08455 -0.07723,-0.130029 -0.137459,-0.133841 z m 3.130558,0.399458 c -0.181168,0.01673 -0.600903,0.438571 -0.90537,0.931209 -0.302175,0.488924 -0.935495,0.704286 -1.364776,0.464055 -0.142539,-0.07981 -0.225308,-0.06834 -0.225308,0.03101 0,0.08638 0.146957,0.216154 0.326596,0.288354 0.533664,0.214509 0.788575,0.169554 1.251085,-0.219624 0.499052,-0.419925 1.112171,-1.344011 0.979786,-1.476396 -0.01511,-0.01511 -0.03613,-0.02099 -0.06201,-0.0186 z m -5.464781,1.955953 c -0.04145,-3.1e-5 -0.09433,0.007 -0.160715,0.01964 -0.21185,0.0405 -0.3048,0.137045 -0.255281,0.266133 0.111355,0.290186 0.436224,0.25039 0.518313,-0.06356 0.04169,-0.159347 0.02204,-0.222114 -0.102317,-0.222209 z m 0.22841,2.520777 c -0.421473,0 -0.45217,0.03527 -0.45217,0.516764 0,0.374662 0.04979,0.486797 0.181385,0.407727 0.134734,-0.08099 0.132498,-0.04918 -0.0083,0.12454 -0.159322,0.196631 -0.147468,0.258964 0.07286,0.390157 0.318254,0.189465 1.671736,0.142839 1.738395,-0.05994 0.02625,-0.07986 -0.206129,-0.422955 -0.516247,-0.762228 C 42.85286,26.034682 42.616121,25.89071 42.269316,25.89071 Z m -0.425297,1.747697 c -0.103134,0.0094 -0.172082,0.05095 -0.172082,0.128674 -3e-6,0.07397 0.114035,0.164511 0.25373,0.201021 h 5.29e-4 c 0.139708,0.03653 0.384517,0.07195 0.544153,0.07855 0.286126,0.01206 0.286208,0.0092 0.0083,-0.201021 -0.196585,-0.148687 -0.462698,-0.222862 -0.634585,-0.207222 z m 12.566674,5.822382 c -0.152344,-0.0021 -0.31156,0.01045 -0.470773,0.04031 -0.265417,0.04979 -1.186492,0.513664 -2.046904,1.030427 -1.16776,0.701353 -1.699699,0.939478 -2.097545,0.939478 -0.680376,0 -1.503482,0.537839 -1.563211,1.021125 -0.02434,0.196842 -0.133914,0.651536 -0.243396,1.010793 -0.109532,0.359251 -0.227343,1.128418 -0.261485,1.708938 -0.03424,0.580514 -0.08779,1.078193 -0.119372,1.106392 -0.03155,0.0282 -0.746289,0.417724 -1.588016,0.865063 -2.086083,1.108652 -3.787968,2.510571 -4.730978,3.896921 -0.722968,1.062861 -0.744622,1.080371 -0.694531,0.56999 0.02842,-0.289598 0.07932,-0.920224 0.112655,-1.401464 0.05758,-0.831554 0.044,-0.874239 -0.266134,-0.86093 -0.179475,0.0079 -0.567563,0.156734 -0.862478,0.330729 -0.294921,0.174016 -0.567616,0.316262 -0.606166,0.316262 -0.03855,0 -0.318408,0.261508 -0.622184,0.580842 -0.631579,0.66393 -0.82614,0.714589 -0.969967,0.25373 -0.05604,-0.17962 -0.151414,-0.359021 -0.211873,-0.398941 -0.124291,-0.08203 0.350729,-1.40883 0.623734,-1.742012 0.316846,-0.386686 1.955196,-1.741498 2.105816,-1.741498 0.08029,0 0.186586,0.163174 0.236677,0.362771 0.05008,0.19958 0.171472,0.362338 0.269751,0.361733 0.39719,-0.0026 1.612112,-0.844365 1.83193,-1.269172 0.128564,-0.248457 0.462656,-0.73364 0.742074,-1.077971 0.504579,-0.621803 0.504838,-0.623782 0.07234,-0.29559 -0.239501,0.181748 -0.917913,0.662906 -1.5074,1.069187 l -1.071769,0.738973 0.101285,-0.56224 c 0.284488,-1.584441 0.364025,-1.723599 1.618507,-2.81895 0.33855,-0.295608 1.521383,-1.195326 1.604552,-1.220597 0.01066,-0.0032 0.06481,-0.218027 0.120407,-0.477491 0.06674,-0.31165 0.04596,-0.471805 -0.0615,-0.471805 -0.263522,0 -2.789941,2.001758 -3.366719,2.667537 -0.29174,0.336752 -0.840097,1.066009 -1.218531,1.621089 -0.378436,0.555083 -0.841494,1.194033 -1.029396,1.419553 -0.857882,1.029566 -2.374532,5.003615 -2.374532,6.22236 0,0.399087 -0.09635,0.899136 -0.214455,1.111044 -0.11811,0.211899 -0.435967,1.185209 -0.705901,2.163175 l -0.49041,1.778185 h 0.383955 c 0.517599,0 1.613665,-1.144783 2.710429,-2.830319 1.037881,-1.595044 1.743572,-2.395202 2.112018,-2.395202 0.609264,0 0.444934,0.441717 -0.556556,1.496034 -0.551839,0.580935 -1.474669,1.641281 -2.050521,2.356445 l -0.527246,2.765351 0.781714,-1.375553 c 0.406165,-0.82732 0.802309,-1.327692 0.838478,-1.363861 0.181025,-0.181025 2.218481,-3.812069 2.218481,-4.186928 -3e-6,-0.238808 0.05913,-0.397859 0.131773,-0.352949 0.254566,0.157329 0.583925,-0.09626 1.032497,-0.7953 0.544007,-0.847765 1.309044,-1.560182 2.264976,-2.109949 0.38916,-0.223809 0.862007,-0.524529 1.051099,-0.668176 0.189111,-0.143629 0.821264,-0.490974 1.404565,-0.771531 1.10386,-0.530936 1.860476,-1.081153 2.099098,-1.527037 0.09518,-0.177861 0.06391,-0.568246 -0.0987,-1.227315 -0.234061,-0.948438 -0.232269,-0.981572 0.09508,-1.792139 0.425463,-1.053481 0.574444,-1.206294 1.178224,-1.208196 0.271573,-0.0011 0.657201,-0.06878 0.856795,-0.150379 0.354845,-0.145071 0.479245,-0.208833 1.669147,-0.858345 0.319337,-0.174307 0.791795,-0.500729 1.049549,-0.725535 0.507236,-0.442426 1.203931,-0.633709 1.979724,-0.543121 0.437253,0.05106 0.473443,0.02945 0.331764,-0.197403 -0.1479,-0.236805 -0.54342,-0.379981 -1.000456,-0.38654 z m -10.568863,3.027207 -0.567407,0.375171 c -0.453059,0.299813 -0.876951,0.935178 -0.876951,1.314648 0,0.02797 0.0816,0.05116 0.181385,0.05116 0.221433,-8e-6 0.930061,-0.866637 1.122413,-1.372526 z m 8.68164,0.579808 c -0.08796,0 -1.205793,1.492811 -1.42627,1.904793 -0.09245,0.172736 -0.356976,0.872295 -0.587561,1.554427 -0.371774,1.099836 -0.419097,1.441218 -0.419097,3.015838 v 1.775602 l -0.428397,0.09405 c -0.23558,0.05176 -0.719051,0.05019 -1.074352,-0.0031 -0.664337,-0.09963 -1.25522,0.0034 -1.25522,0.218591 0,0.101952 0.804376,0.461047 3.592544,1.605071 0.17961,0.0737 0.326597,0.241771 0.326597,0.373102 0,0.202105 -0.116904,0.225616 -0.761712,0.153996 -0.419132,-0.04655 -1.093266,-0.146815 -1.497584,-0.222724 -0.404323,-0.07597 -1.350986,-0.174715 -2.104263,-0.219625 l -1.369944,-0.08165 1.615406,0.267169 c 0.888508,0.146814 1.699607,0.318804 1.802474,0.382405 0.126188,0.07799 -0.06268,0.225851 -0.581359,0.454752 -0.880916,0.388779 -1.236916,0.413943 -1.747697,0.121957 -0.506566,-0.289671 -1.580396,-0.283861 -1.69292,0.0093 -0.120555,0.314171 0.150963,0.773363 1.214913,2.053103 0.948979,1.141449 1.030529,1.318675 0.73949,1.609722 h -5.3e-4 c -0.135474,0.135464 0.05635,2.646392 2.499538,2.646392 1.937599,0 3.643193,-2.527893 3.698533,-2.617455 0.04934,-0.07984 0.186886,-0.145211 0.305406,-0.145211 0.118523,0 0.555355,-0.34258 0.971003,-0.761709 0.415641,-0.419126 1.14296,-1.056166 1.615921,-1.415417 0.842711,-0.640236 0.879586,-0.652434 1.850533,-0.619086 0.910683,0.03126 0.990637,0.0099 0.990637,-0.261482 0,-0.162378 -0.103912,-0.496287 -0.230995,-0.742072 -0.12706,-0.245787 -0.200861,-0.60303 -0.16433,-0.794268 0.09387,-0.491054 -0.08928,-0.540848 -0.750342,-0.203605 -0.356087,0.18166 -0.786839,0.601247 -1.130162,1.101741 -0.305057,0.444704 -0.631548,0.919332 -0.725538,1.054716 -0.15435,0.2222 -0.213193,0.198993 -0.606682,-0.240294 -0.239702,-0.26761 -0.501377,-0.445601 -0.581877,-0.395843 -0.251761,0.155577 -0.430334,-0.365313 -0.29042,-0.846977 0.160309,-0.551807 0.04832,-1.113787 -0.397909,-1.999361 -0.398545,-0.790937 -1.050854,-1.332436 -1.871205,-1.553911 -0.319341,-0.08621 -0.783733,-0.281953 -1.031978,-0.434596 -0.397695,-0.244549 -0.462391,-0.378339 -0.544153,-1.126549 -0.120364,-1.101957 0.41987,-3.129832 1.113629,-4.179588 0.898091,-1.358974 1.00448,-1.532207 0.93586,-1.532207 z m -9.215974,13.208497 c -0.09265,0 0.06548,1.466054 0.194302,1.802474 0.06994,0.18134 0.306737,0.2272 1.124995,0.219107 l 1.03663,-0.0098 -0.610815,-0.271301 c -0.399547,-0.177602 -0.794086,-0.526116 -1.138949,-1.006139 -0.2901,-0.403805 -0.562724,-0.734322 -0.606163,-0.734322 z"
           style="fill:#c3a877;fill-opacity:1;stroke-width:0.39266571"
           inkscape:connector-curvature="0"
           sodipodi:nodetypes="sccccsccccccsccccccccccscccsccscccccscccccccccsccccccccscccccsccccccccccccscccccccsccsccccscccccccsccscccccsccsccccscccsccccccccccsscccccssccccccccccscccccsccccsccccscccccccccccscccscccsssccccscccccscccccccccccccsccccccscccscscccccccccsccscscccsccsccccccsccccccccccccc" />
      </g>
      <path
         style="fill:#c3a877;fill-opacity:1;stroke-width:1"
         d="m 192.83963,113.13151 c -0.6806,0.0149 -0.5774,0.28372 0.42995,1.12292 1.72884,1.44028 2.78998,1.42709 1.48208,-0.0186 0,0 0,-5.1e-4 0,-5.1e-4 -0.55898,-0.61754 -1.41952,-1.11409 -1.91203,-1.10381 z m -10.73268,2.00711 0.98806,2.40192 c 0.62018,1.50752 1.8602,3.03558 3.33158,4.10518 1.41899,1.03149 2.22674,2.01043 2.04639,2.48046 -0.23407,0.60995 -0.91547,0.44582 -3.17759,-0.76636 -1.5837,-0.84866 -3.13625,-1.86026 -3.44992,-2.24792 -0.3467,-0.42847 -1.561,-0.63961 -3.09697,-0.53847 l -2.52697,0.1664 -9.92498,16.54162 -9.92549,16.54111 -0.25993,4.86637 c -0.2802,5.24332 -0.62199,6.32802 -1.84537,5.85856 -0.43203,-0.16575 -0.78548,-0.034 -0.78548,0.293 0,0.32705 -1.89489,3.95237 -4.21111,8.05584 -4.30114,7.61991 -4.83308,8.81289 -3.39411,7.61866 0.88127,-0.7314 1.28781,-0.58159 4.12326,1.51619 1.43874,1.06444 1.7131,1.53854 1.22732,2.1239 -0.51227,0.61724 -1.18584,0.44616 -3.71916,-0.94413 -1.70137,-0.93373 -3.16703,-1.61068 -3.25716,-1.50482 -0.0902,0.10595 -1.62564,2.42592 -3.4122,5.15576 -1.78655,2.72983 -3.56945,5.08675 -3.96203,5.23741 -0.39261,0.15066 -1.22386,5.6e-4 -1.84691,-0.3328 -1.70561,-0.91282 -2.13033,0.33693 -0.65009,1.91254 0.99748,1.06179 1.11503,1.52413 0.62063,2.44792 -0.86557,1.61733 -0.76435,1.94581 0.4992,1.6154 0.61005,-0.1596 2.07515,-0.0451 3.25561,0.25477 1.83925,0.46685 2.62445,1.23484 5.48855,5.36763 1.83826,2.65254 4.05906,5.9828 4.9351,7.40058 1.39182,2.25251 1.54563,2.36545 1.21957,0.89348 -0.20522,-0.92652 -0.73231,-2.08334 -1.17151,-2.5709 -0.43919,-0.48757 -0.7984,-1.6459 -0.7984,-2.57348 0,-1.44625 0.28716,-1.7742 2.0159,-2.30477 3.38735,-1.03958 4.26222,-0.1311 2.94814,3.06079 -0.55187,1.34053 -1.5852,8.03827 -1.24024,8.03827 0.0634,0 0.60777,-0.82149 1.20975,-1.82521 v -5.2e-4 c 4.3092,-7.18486 5.30627,-9.49406 4.98626,-11.54606 -0.28359,-1.81863 -0.23137,-1.94895 0.4284,-1.07022 0.69819,0.9299 0.77735,0.8968 1.12086,-0.47181 0.2033,-0.80993 1.97394,-4.44726 3.93516,-8.08271 4.42706,-8.20629 5.93297,-11.58012 5.93297,-13.29324 0,-0.73281 0.21769,-1.33222 0.48369,-1.33222 0.266,0 0.36455,-0.62502 0.21859,-1.38855 -0.37681,-1.97117 2.30998,-6.32066 4.57027,-7.39851 1.53103,-0.7301 2.62562,-2.40463 6.83834,-10.4619 2.75852,-5.27599 6.74252,-12.64204 8.85321,-16.36902 4.99613,-8.82203 7.67343,-14.12019 7.67343,-15.18512 0,-1.05395 -0.0536,-1.05445 -2.04174,-0.0171 -3.44502,1.79671 -7.1731,0.56696 -5.83892,-1.92597 0.66748,-1.2472 2.75687,-1.5365 4.47105,-0.61909 0.84726,0.45344 1.24555,0.10431 2.48977,-2.18178 0.81467,-1.49683 1.47676,-2.94 1.47122,-3.20704 -0.007,-0.26704 -1.93347,-1.09433 -4.28397,-1.83864 -3.40312,-1.07761 -4.48591,-1.22047 -5.31647,-0.70177 -1.36473,0.8523 -1.62006,0.82236 -1.62006,-0.19069 0,-1.28952 -0.84683,-1.00369 -1.6893,0.57051 l -0.75654,1.41335 -1.58957,-1.52342 z M 52.167602,135.2144 c -0.480023,-0.009 -0.965229,0.0227 -1.419034,0.10697 -3.956391,0.73492 -5.853054,4.53429 -6.477124,12.97388 -0.194186,2.62499 -0.04697,3.07392 1.57458,4.79764 l 1.789038,1.90169 2.411222,-2.41432 c 2.787095,-2.79065 6.023742,-4.5572 13.872538,-7.57215 l 5.615162,-2.15697 -3.895886,0.34778 -3.895886,0.34727 0.890902,-1.3193 c 0.677635,-1.00383 1.374195,-1.30394 2.912999,-1.25522 1.112401,0.0352 2.022615,-0.12051 2.022615,-0.34623 0,-0.59692 -5.210215,-2.66485 -6.024438,-2.39107 -0.379524,0.12751 -1.217194,1.16039 -1.861386,2.29495 -0.64421,1.13455 -2.21157,2.69439 -3.482991,3.46645 -1.271423,0.77211 -3.1208,2.09938 -4.110342,2.94969 -2.249908,1.93335 -5.858041,3.5257 -5.858041,2.58538 0,-0.36104 0.592254,-1.438 1.316199,-2.39366 1.971106,-2.60201 2.686055,-4.15556 2.957959,-6.42493 0.250616,-2.09159 1.422339,-3.44792 2.992065,-3.46335 0.481433,-0.004 1.245801,-0.24279 1.698603,-0.52917 1.038688,-0.65694 -0.948655,-1.46609 -3.028754,-1.50533 z m -9.024773,1.89962 -2.716112,0.28887 c -1.493814,0.15896 -3.009619,0.59876 -3.368786,0.9772 -0.667279,0.70305 -0.529389,0.68798 3.079398,-0.34416 0.965242,-0.27608 0.806646,0.0544 -0.796335,1.65726 -2.082377,2.08238 -2.256282,3.65472 -0.588595,5.32526 0.407411,0.40811 0.740524,1.10289 0.740524,1.54409 0,0.44117 0.265454,0.80253 0.589629,0.80253 0.388967,0 0.458439,-1.15635 0.204637,-3.39979 -0.364411,-3.22094 -0.299463,-3.48986 1.235586,-5.12527 z m 44.563172,6.6735 c -0.354795,-0.0418 -1.887709,0.2879 -3.710884,0.80925 -2.083652,0.59588 -4.420926,1.09858 -5.193998,1.11673 -1.292858,0.0303 -1.32324,0.0865 -0.374656,0.70176 2.922217,1.89531 2.861617,2.00656 -0.653706,1.19786 -1.954321,-0.4496 -4.034856,-1.07483 -4.622974,-1.38958 -0.824199,-0.44109 -1.6826,-0.24272 -3.746024,0.86455 -9.117735,4.89274 -15.620915,10.37795 -16.249655,13.70666 -0.308936,1.63556 -0.225237,1.86674 0.568441,1.56217 0.738503,-0.28337 0.931725,-0.0126 0.931725,1.30949 0,0.91681 -0.252891,1.66656 -0.561721,1.66656 -0.308829,0 -0.561723,-0.35401 -0.561723,-0.78703 0,-1.04714 -2.930041,-2.02055 -6.083351,-2.02055 -2.666145,0 -9.203335,2.89599 -11.713495,5.18883 -2.376056,2.17036 -2.782112,6.29098 -0.427366,4.33669 0.893173,-0.74125 1.079947,-0.13958 0.326081,1.04955 -0.342363,0.54004 -1.170554,0.64321 -2.978632,0.37207 -2.150798,-0.32254 -2.736958,-0.18125 -4.149616,0.99942 -1.192305,0.99642 -1.954358,1.25228 -2.768307,0.93017 -1.913424,-0.75724 -4.069828,-0.57973 -4.432286,0.36484 -0.535194,1.39467 -0.44018,1.43848 1.2423,0.56844 1.293577,-0.66893 1.832938,-0.69121 2.948141,-0.11989 1.09124,0.55907 1.71322,0.55743 3.103169,-0.008 0.956161,-0.38979 3.988265,-1.01832 6.73809,-1.39682 5.48486,-0.75489 7.06673,-1.66643 8.16591,-4.70617 0.585086,-1.618 0.94479,-1.82692 4.072104,-2.36264 1.886831,-0.32323 3.655486,-0.38025 3.93051,-0.12713 0.28631,0.26363 -0.205606,2.20467 -1.150835,4.54133 -1.506357,3.72371 -1.918859,4.24212 -4.711342,5.91953 -4.059045,2.43824 -12.775343,5.20222 -17.659903,5.60018 -6.452354,0.52572 -8.22914,2.51523 -5.682856,6.36292 1.626984,2.45853 5.884175,5.61722 7.571113,5.61722 0.631243,0 1.28094,0.49244 1.481047,1.12293 0.396862,1.25039 1.68497,1.40008 3.33933,0.38809 v -0.001 c 2.964916,-1.81367 5.869379,-4.06625 8.842873,-6.85798 3.078456,-2.89025 4.319921,-3.77646 3.553788,-2.5368 -0.197371,0.31929 0.362135,0.29676 1.372007,-0.0553 2.068838,-0.72119 2.303714,-1.05401 1.882574,-2.66444 -0.198855,-0.76066 -0.629248,-1.13617 -1.096057,-0.95705 -1.174795,0.45082 -0.927876,-1.15774 0.580326,-3.78116 1.355442,-2.35774 2.346968,-5.6614 2.09858,-6.9913 -0.07343,-0.39298 0.223678,-1.07117 0.659908,-1.5074 0.683196,-0.68322 1.075176,-0.60129 2.829284,0.59066 1.120019,0.76108 1.975888,1.66048 1.901693,1.99884 -0.07407,0.33836 0.216405,0.74278 0.645438,0.89866 0.523221,0.19015 0.633267,0.046 0.334346,-0.43771 -0.294421,-0.47635 -0.222467,-0.58309 0.211873,-0.3147 0.36159,0.22348 0.519504,0.62874 0.351401,0.90072 -0.168082,0.27202 0.207137,0.76861 0.833541,1.1038 0.668255,0.35767 1.13843,0.38867 1.138433,0.0749 0,-0.29396 -0.315706,-0.66242 -0.701768,-0.81907 -0.541536,-0.21974 -0.52416,-0.40957 0.077,-0.82992 0.610593,-0.4269 0.246563,-0.9328 -1.684136,-2.33887 -1.355037,-0.98683 -3.158739,-2.15733 -4.008022,-2.60088 -1.66315,-0.86862 -1.962687,-1.34267 -0.842328,-1.33325 0.386038,0.004 2.212788,1.14046 4.059701,2.52698 1.846913,1.38649 3.52316,2.52077 3.724838,2.52077 0.201616,0 0.519573,-0.44192 0.706417,-0.98237 0.766387,-2.21689 2.497177,-4.38357 3.896402,-4.87773 1.92427,-0.67962 2.449211,-0.10583 1.509985,1.64899 -0.412692,0.77114 -0.556048,1.59209 -0.318844,1.82418 0.674476,0.65994 4.249354,-3.81884 4.249354,-5.32371 0,-1.6681 0.602729,-2.80962 3.719152,-7.04298 1.351643,-1.83608 2.458654,-3.87886 2.4598,-4.53977 0.0011,-0.6609 0.51884,-2.04934 1.150316,-3.08508 0.998056,-1.63707 1.393129,-1.85421 3.022555,-1.66399 1.291222,0.15068 1.793901,0.011 1.61644,-0.45268 -0.141769,-0.36923 0.253836,-0.83373 0.878498,-1.03198 0.974477,-0.30929 3.437517,-3.46167 3.437517,-4.39973 0,-0.0217 -0.02683,-0.0354 -0.07752,-0.0413 z m -58.730781,1.45365 c -0.652539,-0.0384 -1.191152,0.59431 -1.519804,1.90376 -0.253844,1.01141 -0.06944,1.80742 0.586526,2.53215 1.155525,1.27685 1.324239,1.28854 2.87166,0.20464 v 5.1e-4 c 1.174965,-0.82298 1.184299,-0.9087 0.265618,-2.51819 -0.78482,-1.37498 -1.551464,-2.08446 -2.204,-2.12287 z m -3.994589,1.07126 c -0.48686,-0.0214 -1.209744,0.54744 -1.209744,1.08572 0,0.7176 0.969311,0.66939 1.426784,-0.0708 0.203525,-0.32938 0.235117,-0.73333 0.07028,-0.89814 -0.07542,-0.0754 -0.174969,-0.11185 -0.28732,-0.11678 z m 10.533207,0.77824 c -0.329258,-0.0167 -0.513146,0.18124 -0.513146,0.57258 0,0.95439 0.03264,0.96499 1.029909,0.3328 0.603018,-0.38226 0.575596,-0.5412 -0.140559,-0.81598 -0.140669,-0.054 -0.266452,-0.0838 -0.376204,-0.0894 z m 21.337715,3.36052 c -0.223496,-0.0447 -1.189379,0.32403 -2.33784,0.90434 -2.898132,1.46443 -5.407959,4.28469 -5.045689,5.66994 0.346967,1.32688 1.092354,1.28341 1.528072,-0.0894 v -5.2e-4 c 0.19164,-0.6038 1.598676,-2.22154 3.126425,-3.59513 1.527747,-1.37356 2.777609,-2.65355 2.777609,-2.84427 0,-0.0239 -0.01665,-0.0386 -0.04858,-0.045 z m 11.566736,1.4056 c 1.589164,0 0.619265,1.29928 -3.058729,4.09742 -3.558278,2.70708 -4.276187,2.97634 -3.660759,1.37253 0.490435,-1.27803 5.639856,-5.46995 6.719488,-5.46995 z m 22.092192,0.23926 c -0.2501,-0.006 -0.46175,0.0299 -0.604099,0.11782 -0.344461,0.21289 -0.03268,0.6737 0.748792,1.10691 1.6231,0.89968 2.742986,0.9841 2.742986,0.20671 0,-0.61332 -1.803922,-1.40701 -2.887679,-1.43144 z m -54.342421,1.43196 c -1.895231,0.0312 -4.097221,0.87573 -7.224881,2.64221 -3.889052,2.19651 -5.019723,3.17603 -6.878648,5.95985 -1.638615,2.45382 -2.224154,3.90606 -2.224154,5.51335 0,1.20015 0.106117,2.18178 0.235643,2.18178 0.129678,0 0.65046,-1.24886 1.157552,-2.77554 0.507072,-1.52668 1.368513,-3.35872 1.914613,-4.07107 0.546076,-0.71233 1.16736,-1.77189 1.380794,-2.35438 0.36004,-0.98266 0.461092,-0.99285 1.398365,-0.14469 0.891982,0.80724 1.136917,0.81803 2.093928,0.094 1.533287,-1.15994 1.925982,-1.05194 1.925982,0.52865 0,2.87653 4.022362,2.96997 9.85366,0.22893 4.058515,-1.90771 3.886576,-4.77819 -0.419095,-7.00474 -1.049967,-0.54297 -2.076619,-0.81715 -3.213759,-0.7984 z m 51.403065,0.0842 c -0.340231,-0.003 -0.299027,0.32601 -0.0894,0.9865 0.271182,0.8544 -0.02515,1.12506 -1.542542,1.40974 -2.923596,0.54847 -10.267469,9.17048 -13.796058,16.19694 -1.923738,3.83073 -2.268273,4.18992 -5.697326,5.94176 -2.721771,1.39049 -4.120536,1.79089 -5.500954,1.57509 -1.605529,-0.25102 -1.93647,-0.0887 -2.494939,1.2237 -0.354142,0.83219 -0.992434,1.93284 -1.418519,2.44533 -0.675153,0.81206 -0.62611,0.97907 0.383956,1.29966 0.63746,0.20226 1.382736,0.22953 1.656231,0.0605 0.773858,-0.4783 6.028346,1.25528 6.866762,2.2655 0.412758,0.49731 0.885336,2.03848 1.050066,3.4246 l 0.299722,2.52026 4.490683,0.26975 c 2.469901,0.14855 4.807196,0.53321 5.193998,0.85421 0.806733,0.66953 0.970481,2.362 0.181386,1.8743 -0.639414,-0.39518 -3.955254,0.38154 -12.393044,2.90215 -9.095557,2.71712 -9.13503,2.73653 -8.651669,4.23747 0.222989,0.69236 0.407901,1.57456 0.41083,1.9606 0.0064,0.97771 1.170765,0.83632 5.763471,-0.6997 v 5.2e-4 c 4.253487,-1.42255 12.584763,-3.1674 12.584763,-2.6355 0,0.17635 0.342599,-0.14787 0.761193,-0.72037 0.493295,-0.67465 1.108689,-0.90725 1.749248,-0.66146 0.840349,0.32248 0.949899,0.11876 0.732772,-1.36064 -0.244441,-1.66556 -0.0018,-1.90942 5.690608,-5.71955 6.650804,-4.45151 10.15752,-7.13253 10.15752,-7.76644 0,-0.23334 -1.83203,-0.28612 -4.071069,-0.11731 -2.478773,0.18696 -5.388444,0.0149 -7.439856,-0.43873 l -3.369305,-0.7457 2.807581,-0.37155 c 1.544151,-0.20438 3.691906,-0.69638 4.772835,-1.09295 1.080908,-0.39655 2.664399,-0.96819 3.518649,-1.27021 1.400413,-0.49515 1.459555,-0.6172 0.602546,-1.24385 -0.851212,-0.62242 -0.699199,-0.87712 1.45211,-2.43551 1.321229,-0.95709 2.894867,-1.89647 3.497458,-2.08773 0.847101,-0.26884 0.952749,-0.51996 0.465606,-1.10691 -0.468021,-0.56394 -0.451371,-1.09264 0.06459,-2.05672 0.513522,-0.95953 0.765316,-1.08625 0.965317,-0.48628 0.14877,0.44631 0.610237,-0.51724 1.025776,-2.14095 0.65446,-2.55732 0.641408,-3.17321 -0.09818,-4.60334 -0.469569,-0.90806 -1.100034,-1.65106 -1.400948,-1.65106 -0.300894,0 -0.547253,-0.75697 -0.547253,-1.68258 0,-2.05588 -3.156757,-5.76111 -6.255949,-7.34219 -1.316648,-0.67171 -2.038434,-1.00786 -2.378667,-1.01131 z m -48.699354,1.99833 c 3.263014,-0.0333 4.762847,2.53712 1.003041,4.48138 -1.71037,0.88448 -6.992662,2.87518 -7.839316,2.95434 -0.241321,0.0225 -0.581773,-0.33161 -0.756541,-0.78703 -0.550619,-1.4349 2.050804,-4.85677 4.513937,-5.93762 1.113269,-0.48851 2.165236,-0.70175 3.078879,-0.71107 z m 17.906402,8.75915 c 0.279966,-0.0149 0.731536,0.1132 1.337387,0.4253 1.627174,0.83824 4.39973,3.38675 4.39973,4.0442 0,0.55512 -2.634708,-0.91109 -4.922179,-2.73937 -1.218089,-0.97356 -1.430867,-1.69742 -0.814938,-1.73013 z m 23.015133,3.20962 c 0.313605,0 0.715724,0.37909 0.893485,0.84233 0.177845,0.46324 0.235598,0.84233 0.128675,0.84233 -0.106958,0 -0.50904,-0.37909 -0.893488,-0.84233 -0.402928,-0.48548 -0.457353,-0.84233 -0.128672,-0.84233 z m 9.5343,4.50981 c 1.463082,0.017 1.487974,0.0601 0.478525,0.82424 -1.072927,0.81215 -2.022615,0.66487 -2.022615,-0.31368 0,-0.2906 0.694807,-0.52036 1.54409,-0.51056 z m -66.006823,6.73809 c -0.683705,0.0311 -2.357477,1.48773 -2.357477,2.05155 0,0.29797 0.820997,0.53665 1.824693,0.5302 1.003721,-0.007 2.267128,0.19137 2.807581,0.43925 0.540452,0.24792 0.982885,0.26289 0.982885,0.0336 0,-0.52214 -2.726608,-3.07878 -3.257682,-3.05459 z m 37.946523,1.97714 c 0.143356,-0.0174 0.274103,0.0385 0.36845,0.1912 0.211167,0.34179 0.228,0.87405 0.03721,1.18287 -0.404778,0.65497 -1.407848,0.75617 -1.395265,0.14056 0.01591,-0.74868 0.559531,-1.46228 0.989606,-1.51463 z m -7.703408,3.62045 c -0.290621,0 -0.684522,0.25237 -0.875397,0.56121 -0.190791,0.30883 0.04717,0.56172 0.528648,0.56172 0.481478,0 0.8754,-0.25289 0.8754,-0.56172 0,-0.30884 -0.238048,-0.56121 -0.528651,-0.56121 z m 10.916648,9.03821 c -1.205484,-0.0396 -2.946779,0.83919 -2.510441,1.2671 0.145584,0.14261 1.022226,-0.0757 1.948717,-0.48524 1.303531,-0.57631 1.430745,-0.75323 0.561724,-0.78186 z m 4.819343,0.0155 c -0.195067,0.008 -0.362493,0.0597 -0.455787,0.15296 -0.186545,0.18655 0.145095,0.31895 0.736907,0.29456 0.654142,-0.027 0.786921,-0.15977 0.338997,-0.339 -0.202676,-0.0811 -0.42505,-0.11656 -0.620117,-0.10852 z m 78.692871,4.54856 c 0.96525,-0.0126 2.19751,0.97629 1.79834,1.62212 -0.50339,0.81454 -2.34121,0.56528 -2.69854,-0.36587 -0.18931,-0.49315 0.0287,-1.00139 0.50849,-1.18545 0.12146,-0.0466 0.25382,-0.069 0.39171,-0.0708 z M 36.435745,199.1314 c -0.03078,0.002 -0.05944,0.015 -0.08578,0.0413 -0.167444,0.16744 0.08017,1.40269 0.550355,2.74505 0.114194,0.326 0.216358,0.59222 0.310576,0.81907 0.183375,0.77925 0.417227,1.77941 0.774628,3.35793 0.304004,1.3246 0.416928,2.22099 0.464056,2.71922 -0.02757,0.45304 0.0032,0.94834 0.09509,1.29966 0.141343,0.54046 0.256831,0.0986 0.256831,-0.98237 0,-0.002 0,-0.003 0,-0.006 l 0.05271,-0.0238 c -0.02752,-5.20221 -1.019699,-7.2944 -1.37201,-7.8791 -0.301334,-1.10046 -0.75964,-2.10686 -1.046448,-2.09134 z m -3.164147,2.19779 c -0.119282,0.009 -0.241869,0.0518 -0.367938,0.12971 -0.392572,0.24264 -0.325334,1.10862 0.205674,2.64997 0.785487,2.27991 0.651082,3.33778 -0.424264,3.33778 -1.245254,0 -8.979371,3.93244 -8.681641,4.4142 0.175511,0.28411 -0.310097,0.92933 -1.079521,1.4335 -2.066502,1.354 -1.81202,3.25768 0.706419,5.28082 l 2.105813,1.69137 -1.544092,0.38912 c -0.849283,0.21399 -1.54409,0.7407 -1.54409,1.17047 0,0.42976 -0.252894,0.78135 -0.561724,0.78135 -0.308829,0 -0.561723,0.37908 -0.561723,0.84233 0,0.46324 -0.315727,0.85252 -0.701765,0.86506 -0.386038,0.0125 -1.576578,0.77071 -2.645833,1.68465 l -1.944068,1.66191 h 2.257742 c 1.241859,0 2.650236,-0.31624 3.129526,-0.70228 1.053211,-0.84828 4.396631,-5.75736 4.396631,-6.45542 0,-0.27371 1.892552,-1.81854 4.205428,-3.43338 4.318301,-3.01505 5.624989,-4.57343 5.482352,-6.53552 -0.447204,-6.1511 -1.279861,-9.28972 -2.432926,-9.20564 z m 116.487462,0.57671 c 0.56874,0 0.83376,0.16254 0.63304,0.48731 -0.19079,0.30882 -1.2796,0.5362 -2.4195,0.5054 -1.86161,-0.0503 -1.92962,-0.10151 -0.66869,-0.5054 1.01406,-0.32477 1.88641,-0.48731 2.45515,-0.48731 z m -99.321587,0.48731 c -0.963014,0 -1.636601,0.51569 -2.268077,1.73684 -1.084895,2.09796 -0.878834,2.40375 1.108977,1.64797 2.072487,-0.78795 2.589927,-0.72582 2.209684,0.2651 -0.207558,0.54098 0.01067,0.84232 0.612365,0.84232 0.514519,0 0.778954,0.25237 0.588079,0.56121 -0.190791,0.30883 -0.22061,0.56172 -0.06615,0.56172 0.154498,0 0.426424,-0.23547 0.604097,-0.52296 0.177633,-0.28749 0.07711,-0.67424 -0.223243,-0.8599 -0.300384,-0.1857 -0.411204,-0.68905 -0.246496,-1.11828 0.503335,-1.31164 -0.839137,-3.11402 -2.31924,-3.11402 z m 25.88731,0 c -2.052474,0 -5.89048,2.62352 -8.756055,5.98568 -2.926461,3.43364 -7.19886,6.72348 -7.80986,6.01359 -0.231177,-0.26859 -0.969166,-1.21746 -1.639691,-2.1084 -1.503659,-1.99795 -1.609791,-1.22943 -0.138494,1.00252 0.811128,1.2304 0.94773,1.95952 0.558107,2.98432 -0.685808,1.80379 -0.657558,4.65191 0.04599,4.65191 0.308832,0 0.561208,-0.33472 0.561208,-0.74414 0,-0.7153 1.772533,-2.5924 3.222543,-3.41271 0.476339,-0.26951 0.583395,-0.10219 0.340545,0.53071 -0.195035,0.50821 0.239725,3.2904 0.965835,6.18257 0.726085,2.89216 1.14241,5.43599 0.925007,5.6534 -0.217406,0.2174 -1.028049,0.10689 -1.80144,-0.24546 -1.084897,-0.49431 -1.409401,-0.48268 -1.419037,0.0496 -0.0064,0.3794 -0.493204,0.0637 -1.081069,-0.70125 l -1.06867,-1.39113 -3.931026,2.68562 c -7.636401,5.21774 -14.788867,14.08535 -15.571658,19.30529 -0.19546,1.30282 -0.517501,2.3483 -0.715719,2.32285 -1.982208,-0.25437 -7.935121,0.20282 -7.695139,0.59118 0.17148,0.2776 -1.51943,0.67851 -3.757392,0.8909 -5.545069,0.52624 -11.096496,1.8081 -12.876216,2.97295 -7.9394416,5.19645 -11.1264528,7.49676 -11.1264528,8.03207 0,0.36901 0.404029,0.47964 0.9658323,0.26405 0.5310309,-0.20373 0.7874167,-0.1928 0.5699911,0.0248 -0.2174031,0.21741 0.04322,0.72803 0.578776,1.1348 0.894891,0.67953 0.868431,0.74115 -0.3276285,0.75758 -1.2059721,0.017 -1.2826624,0.20402 -1.0381795,2.55024 0.1829388,1.7558 0.6686892,2.86959 1.5828492,3.6313 0.7251964,0.60425 1.002538,1.10696 0.6164998,1.11726 -1.1157535,0.0298 -2.6720686,-1.82835 -4.1279133,-4.9284 -0.7407949,-1.57739 -1.47339336,-2.87385 -1.62780763,-2.88097 -0.15450079,-0.007 -1.12597775,1.27961 -2.15955827,2.85978 l -1.8794716,2.87321 2.30218504,4.64625 c 2.19417686,4.42804 2.52790906,6.70097 0.89141828,6.073 -0.41400915,-0.15896 -1.03743782,0.24324 -1.38544512,0.89348 -0.348007,0.65026 -0.8555916,1.04507 -1.1275798,0.87696 -0.8046958,-0.49734 -1.2300638,0.72874 -0.6371704,1.83658 0.8843233,1.65237 -0.079256,2.54656 -2.2510252,2.08825 -1.4884225,-0.31414 -1.7539456,-0.25236 -1.2371337,0.28887 0.3619077,0.37899 0.524547,1.03732 0.3612182,1.46296 -0.2430828,0.63344 0.9614109,0.76388 6.64145483,0.71882 4.15711427,-0.0329 7.41308917,-0.31904 8.12198487,-0.71366 2.3252072,-1.29432 5.2418212,-4.24103 5.5965572,-5.65444 0.214113,-0.85307 0.122991,-1.43814 -0.223759,-1.43814 -0.321521,0 -0.728091,-0.5053 -0.903304,-1.12295 -0.175298,-0.61767 -0.481101,-1.68978 -0.680061,-2.38228 -0.323666,-1.12641 -0.262755,-1.17631 0.579292,-0.47749 0.857178,0.71141 0.890525,0.64815 0.374138,-0.71004 -1.071802,-2.81908 -2.188509,-4.57628 -4.1558189,-6.53759 l -1.9714559,-1.96524 3.9940718,-3.73208 c 6.571561,-6.14097 14.773856,-8.75433 27.829308,-8.86663 3.852508,-0.0331 6.098106,0.5483 6.908107,1.788 0.457409,0.70002 -1.173861,5.22527 -5.111835,14.18002 -1.765565,4.01481 -3.359608,8.31035 -3.542419,9.54566 -0.294844,1.99231 -0.218458,1.8999 0.678513,-0.81597 0.737439,-2.23282 1.374849,-3.1868 2.354377,-3.52483 1.235704,-0.42649 3.757488,-4.56687 3.432865,-5.63637 -0.204372,-0.67339 1.502929,-4.47029 2.510959,-5.58414 0.58954,-0.65143 1.714424,-1.00404 3.207555,-1.00512 1.928622,-10e-4 2.480074,-0.27239 3.422015,-1.68257 0.617683,-0.92474 1.312987,-1.68222 1.544608,-1.68312 0.644782,-0.003 0.500033,2.50177 -0.183967,3.18585 -0.432031,0.43204 -0.126318,0.94578 1.069699,1.79731 1.88013,1.3388 3.007485,1.47686 4.693256,0.57465 1.00964,-0.54033 1.571464,-0.20751 4.499983,2.66703 2.746664,2.696 6.064229,7.55793 6.064229,8.8873 0,0.16809 -1.981539,-0.69075 -4.403349,-1.90841 -4.483306,-2.25415 -8.80945,-3.59238 -13.845667,-4.28295 -3.263474,-0.44746 -2.953163,0.34211 0.561208,1.4273 2.480236,0.76586 7.079525,3.49565 8.235156,4.8881 0.648771,0.78171 0.584515,0.84301 -0.518316,0.49297 -0.767556,-0.2436 -1.259353,-0.16547 -1.259353,0.2 0,0.32964 0.223689,0.59893 0.496609,0.59893 0.649687,0 7.68051,4.78142 10.082072,6.85642 2.214764,1.9136 3.135257,1.5055 3.727937,-1.65365 0.405141,-2.15961 1.977657,-4.97255 1.977657,-3.53777 0,1.32509 3.293261,-2.24279 5.029669,-5.44875 0.879866,-1.62446 1.371451,-2.8126 1.092438,-2.64014 -1.270381,0.78512 -0.286544,-2.84462 1.969389,-7.26573 l 2.476852,-4.85396 1.258837,2.03657 c 1.152258,1.86439 2.634755,2.81636 5.972762,3.8349 1.073097,0.32745 1.394532,0.007 2.447915,-2.44171 0.666937,-1.55035 1.560957,-3.10824 1.986957,-3.4618 0.426,-0.35354 0.618479,-0.89517 0.427881,-1.20354 -0.190579,-0.30837 0.0017,-0.78151 0.427363,-1.0511 0.632709,-0.40072 0.614365,-0.49165 -0.101285,-0.49867 -0.481433,-0.004 -1.365782,0.36255 -1.965253,0.81597 -2.992126,2.26312 -2.542858,-0.55314 0.576707,-3.61477 2.470094,-2.42421 2.542566,-2.45232 4.632795,-1.79731 1.98213,0.62113 2.20696,0.56987 3.38532,-0.77256 1.17825,-1.34232 1.20632,-1.54609 0.42116,-3.06441 -0.94656,-1.83045 -1.15,-8.16333 -0.27957,-8.70128 1.73711,-1.0736 -0.60408,-5.29961 -3.55843,-6.42286 -0.84916,-0.32285 -1.4696,-1.10757 -1.660368,-2.10013 -0.650089,-3.38247 -1.60596,-6.66062 -2.082043,-7.14065 -0.809112,-0.81581 -1.352609,2.50831 -0.695048,4.25038 l 0.597895,1.58389 -2.337324,-0.3359 c -1.285449,-0.18506 -5.131839,-1.66508 -8.547798,-3.2892 -3.415961,-1.6241 -7.135064,-3.25802 -8.264612,-3.63079 -1.616374,-0.53346 -2.503623,-1.41715 -4.166156,-4.14962 -1.835856,-3.01733 -2.113748,-3.92799 -2.123384,-6.95616 -0.01279,-3.81133 0.598966,-4.70364 3.919659,-5.72368 0.926491,-0.28462 1.24224,-0.54007 0.701765,-0.56793 -0.540454,-0.0278 -0.982885,-0.33204 -0.982885,-0.67593 0,-0.37285 0.668409,-0.52722 1.655196,-0.3824 1.082689,0.15896 1.524789,0.0355 1.278991,-0.35709 -0.206708,-0.33016 -0.426225,-0.93602 -0.488342,-1.34617 -0.26348,-1.74007 -0.806944,-2.34249 -2.112533,-2.34249 z m 62.836987,3.09129 2.80758,3.42511 c 1.54415,1.88393 3.36186,4.15762 4.03955,5.0524 0.89514,1.18184 1.24083,1.37034 1.26349,0.68988 0.0569,-1.7071 -0.56251,-2.54266 -4.35322,-5.86992 z m -90.233247,1.4242 c -0.265306,0.0104 -0.399349,0.20878 -0.310576,0.60823 0.07726,0.34745 -0.210804,0.75933 -0.639755,0.91519 -0.490685,0.17826 -0.629507,0.0394 -0.374136,-0.37362 0.291364,-0.47141 -0.04352,-0.55228 -1.185458,-0.28629 -1.522971,0.35472 -2.994649,1.62754 -2.994649,2.58951 0,0.59191 3.1574,0.49508 5.446696,-0.16692 2.259076,-0.65332 2.665325,-1.29359 1.536856,-2.42207 -0.580194,-0.5802 -1.137869,-0.87744 -1.478978,-0.86403 z m 84.469267,0.69918 c -0.25483,0.0796 1.02389,1.34539 3.37912,3.27887 1.62044,1.33024 2.44082,1.80486 1.82314,1.05471 -1.41938,-1.72385 -3.07038,-3.21781 -4.41937,-3.99872 -0.4427,-0.25628 -0.69796,-0.3614 -0.78289,-0.33486 z m -12.34395,3.91139 c -0.32546,0.007 -0.62556,0.0348 -0.88884,0.0842 -2.74313,0.5146 -3.74503,1.66324 -6.42131,7.36338 -2.63044,5.60251 -2.8411,6.90225 -1.39423,8.59999 3.23328,3.79387 7.20956,5.91425 8.847,4.71805 1.32382,-0.96709 3.85512,-4.94069 5.6348,-8.84597 1.05281,-2.31019 2.14857,-4.20026 2.43499,-4.20026 0.58954,0 -0.7417,-4.84294 -1.62315,-5.90506 -0.7931,-0.95562 -4.31111,-1.8664 -6.58926,-1.81436 z m -0.10698,1.55132 c 1.28278,-0.0125 3.33469,2.09941 3.33469,3.43235 0,1.10169 -0.0723,1.09013 -1.68156,-0.26406 -0.92483,-0.77822 -2.22132,-1.58623 -2.88147,-1.79576 -0.9425,-0.29914 -1.03369,-0.48632 -0.42427,-0.8723 0.42682,-0.27032 1.17038,-0.49552 1.65261,-0.50023 z m 19.70836,1.84485 c -0.044,0.0157 -0.0694,0.0629 -0.0718,0.1447 -0.0111,0.32701 0.35324,1.08517 0.80667,1.68465 0.45343,0.59949 0.83251,0.82259 0.84233,0.49558 0.0111,-0.327 -0.35324,-1.08516 -0.80667,-1.68465 -0.34007,-0.44962 -0.6385,-0.68743 -0.7705,-0.64028 z m -69.845346,1.33481 c 1.336402,0.0418 1.914387,3.24842 1.053166,7.62072 -0.228121,1.15814 -0.504521,2.10581 -0.614431,2.10581 -0.109935,0 -0.722056,-0.88551 -1.360641,-1.96783 -1.558817,-2.642 -1.708336,-5.51956 -0.363802,-7.00526 0.47817,-0.52838 0.911516,-0.76515 1.285708,-0.75344 z m -52.588003,0.0114 c -0.2099,-0.006 -0.445569,0.0719 -0.732256,0.2253 -0.878062,0.46992 -2.703194,3.25648 -2.703194,4.1274 0,0.52617 1.038108,0.3394 1.404049,-0.2527 0.19079,-0.30882 1.090045,-0.56172 1.998328,-0.56172 1.804765,0 2.13248,-0.92895 0.979268,-2.77554 -0.318948,-0.51071 -0.596366,-0.75294 -0.946195,-0.76274 z m 130.400309,3.34708 c -0.23046,-0.0315 -0.65312,0.5351 -1.54513,1.88722 -1.62034,2.45617 -1.63596,2.46418 -2.45514,1.23042 -1.13432,-1.70839 -2.10571,-1.55502 -2.94246,0.46508 -0.89109,2.15131 -2.574,3.34657 -4.71134,3.34657 -2.91323,0 -6.08998,2.06043 -9.87898,6.40684 l -3.64991,4.18683 -3.22874,0.0377 c -2.45349,0.0286 -3.48347,-0.21749 -4.2907,-1.02474 -1.0421,-1.04207 -1.08503,-1.03152 -2.25567,0.5519 -1.18084,1.59715 -1.18199,1.62556 -0.10491,2.70268 1.60018,1.60019 10.97218,6.11887 14.68799,7.08174 3.89393,1.00903 5.98976,1.04233 7.75147,0.12299 0.80858,-0.42193 1.65659,-1.68345 2.16421,-3.22048 0.99133,-3.00152 6.04726,-13.45011 8.89041,-18.37252 1.11326,-1.92748 1.93579,-4.05167 1.83555,-4.73976 -0.0596,-0.40925 -0.12838,-0.64357 -0.26665,-0.66249 z m -130.995106,0.75292 c -0.327059,0 -0.594278,0.25238 -0.594278,0.56121 0,0.30884 0.111326,0.56172 0.247531,0.56172 0.136252,0 0.403921,-0.25288 0.594794,-0.56172 0.190791,-0.30883 0.07895,-0.56121 -0.248047,-0.56121 z m -1.722891,1.08986 c -0.53618,0.0277 -1.285415,0.37806 -1.468128,0.85421 -0.173176,0.45149 -0.796823,0.97367 -1.385962,1.16065 -0.589138,0.18697 -1.071252,0.5755 -1.071252,0.86352 0,0.92741 1.362095,0.5252 2.94814,-0.87075 0.849285,-0.74752 1.544091,-1.49786 1.544091,-1.66708 0,-0.25804 -0.245182,-0.35718 -0.566889,-0.34055 z m 63.802305,7.43572 c 2.459384,-0.0715 9.194472,2.06686 11.080462,3.83026 0.26231,0.24528 -1.06068,1.13586 -2.939873,1.97921 -1.879192,0.8433 -3.703923,1.8796 -4.055049,2.3027 -1.056034,1.27243 -1.398664,0.93711 -3.233394,-3.16622 -0.967856,-2.16455 -1.759584,-4.19513 -1.759584,-4.51187 0,-0.28365 0.339889,-0.41757 0.907438,-0.43408 z m -19.874756,1.5291 c 0.368549,0.009 0.754115,0.19254 1.342038,0.4961 0.892175,0.46065 2.506451,1.62841 3.587377,2.59467 1.080908,0.96629 2.551523,2.16668 3.26802,2.66806 l 1.30276,0.91209 -2.84117,5.04 c -2.907233,5.15725 -4.520231,7.16744 -4.554759,5.67665 -0.01279,-0.52444 -0.274799,-0.43107 -0.822172,0.29198 -0.442362,0.58436 -0.772705,1.90932 -0.733806,2.944 0.07662,2.03777 -1.375481,4.13439 -2.864943,4.1367 -0.492574,5.7e-4 -3.675279,-0.66314 -7.072434,-1.47588 -3.397157,-0.81276 -6.378043,-1.65911 -6.623886,-1.8805 -0.245861,-0.22139 0.07648,-1.76807 0.715719,-3.437 l 1.162204,-3.03444 -1.184426,1.40405 c -1.09818,1.30158 -1.088734,1.21995 0.127124,-1.12293 1.200304,-2.31308 6.990215,-8.51347 12.637471,-13.53303 1.374029,-1.2213 1.940637,-1.69477 2.554883,-1.68052 z m 11.129036,8.47494 c 1.354826,0 4.125333,2.70425 5.115452,4.99298 1.145146,2.64709 1.021818,3.45831 -0.351917,2.3182 -0.660596,-0.54825 -0.855761,-0.55362 -0.855761,-0.0243 0,1.69434 -1.908265,4.42387 -3.85868,5.52008 -1.37813,0.77453 -2.494293,1.99986 -3.153296,3.46129 -1.143768,2.5364 -2.256161,3.11466 -1.380795,0.71778 0.549241,-1.50389 0.526153,-1.49671 -0.896585,0.28061 -1.340988,1.67525 -2.950345,2.31342 -3.769278,1.49448 -0.18188,-0.18189 0.756809,-2.01394 2.08566,-4.07107 3.819655,-5.91306 6.480741,-11.27249 6.480741,-13.05192 0,-0.90085 0.263107,-1.63814 0.584459,-1.63814 z m 27.289808,9.57874 c 1.368269,0.0221 2.684644,0.42789 3.519164,1.3162 l 1.26711,1.34876 -1.87121,0.39274 c -2.754126,0.57735 -7.118267,3.53846 -8.174174,5.54643 l -0.920874,1.75131 -0.403077,-1.40404 c -0.221774,-0.77208 -0.42863,-2.09886 -0.459401,-2.94815 -0.03714,-1.02313 0.228443,-1.54409 0.786513,-1.54409 0.463246,0 0.842325,-0.48685 0.842325,-1.0821 0,-2.06343 2.801477,-3.41923 5.413624,-3.37706 z m 19.344554,5.40691 c -1.11787,-0.0242 -2.1159,0.22281 -3.61425,0.81339 -1.52254,0.60015 -3.29754,1.01802 -3.94446,0.92862 -0.89761,-0.12417 -1.51682,0.46392 -2.61328,2.48306 -0.79023,1.45524 -3.24787,4.77329 -5.46168,7.37319 -3.053133,3.58558 -4.431109,4.78665 -5.706628,4.97385 -1.198693,0.17594 -1.75024,-0.007 -1.920296,-0.63511 -0.131149,-0.4849 -0.16491,0.0805 -0.07493,1.25627 0.181877,2.37582 1.798759,4.17541 4.155818,4.62555 0.792345,0.15131 2.631386,0.65683 4.087086,1.12345 1.45572,0.46664 3.24334,0.69871 3.97237,0.51572 0.85024,-0.21341 1.58706,-0.017 2.05465,0.54571 0.91,1.09648 1.15248,1.08566 2.60863,-0.11679 2.32041,-1.91609 8.45709,-9.47063 10.90993,-13.4307 2.26596,-3.65839 2.73397,-4.09692 4.97902,-4.66225 3.88938,-0.97936 6.75837,-2.66675 6.79184,-3.99459 0.004,-0.18762 -2.70814,-0.5191 -6.02806,-0.7369 -3.31996,-0.21777 -7.16244,-0.60851 -8.53901,-0.86817 -0.61578,-0.11615 -1.14862,-0.1833 -1.65675,-0.1943 z M 8.0152586,273.14397 c 0.3270593,0 0.5947955,0.25236 0.5947955,0.5612 0,0.30883 -0.1113462,0.56171 -0.2475299,0.56171 -0.1362536,0 -0.4039201,-0.25288 -0.5947958,-0.56171 -0.1907897,-0.30884 -0.079443,-0.5612 0.2475302,-0.5612 z m 1.8241779,1.68412 c 0.1544992,0 0.7380975,0.50578 1.2970785,1.12345 0.558979,0.61767 0.890288,1.12292 0.735872,1.12292 -0.154499,0 -0.738076,-0.50525 -1.297078,-1.12292 -0.558982,-0.61767 -0.8902883,-1.12345 -0.7358725,-1.12345 z m -11.2199868,11.80394 c 0.2515947,-0.014 0.4449339,0.2118 0.4449339,0.71829 0,0.79922 -1.1904911,2.19689 -1.5580442,1.82935 -0.1260612,-0.12612 -0.062759,-0.75329 0.1405599,-1.39422 0.2290241,-0.7216 0.6490713,-1.13546 0.9725504,-1.15342 z m 51.7921873,0.8382 c -2.047708,-0.006 -4.073562,0.10006 -5.993434,0.32348 -3.172132,0.36914 -6.378234,0.6986 -7.124629,0.73173 -0.746376,0.0331 -1.461899,0.37497 -1.590085,0.75964 -0.182724,0.54811 3.087955,0.68292 15.114323,0.62273 13.984766,-0.0701 15.09812,-0.14457 12.539805,-0.83614 -3.828941,-1.03489 -8.441023,-1.58866 -12.94598,-1.60144 z"
         id="path1305"
         inkscape:connector-curvature="0" />
      <path
         style="fill:#c3a877;fill-opacity:1;stroke-width:1"
         d="m 102.31534,121.2056 c -0.32491,-1.68012 -0.31923,-2.08028 0.0478,-3.37055 0.24769,-0.8707 0.31608,-1.52616 0.16875,-1.61722 -0.13626,-0.0842 -1.25998,-0.12142 -2.49715,-0.0827 -3.083699,0.0966 -3.338519,-0.15677 -2.397089,-2.3829 0.37689,-0.89122 0.98655,-2.36454 1.3548,-3.27404 0.36825,-0.90951 1.197389,-2.78474 1.842539,-4.16719 0.64514,-1.38245 1.35875,-3.19659 1.5858,-4.03143 0.50274,-1.84859 0.87597,-5.790391 0.98215,-10.372761 l 0.0793,-3.42397 -1.19062,-0.343656 c -1.33379,-0.38497 -2.377919,-1.45882 -2.379939,-2.44768 -7.1e-4,-0.3539 0.428169,-2.49702 0.953099,-4.7625 1.24008,-5.35195 2.60225,-8.37468 5.67165,-12.58571 2.13127,-2.92397 2.56224,-3.35578 5.45086,-5.46145 1.72514,-1.25755 4.92256,-3.44579 7.10537,-4.86277 2.18281,-1.41697 4.80219,-3.25505 5.82083,-4.08461 1.01865,-0.82955 3.4892,-2.73381 5.49011,-4.23167 l 3.63802,-2.72338 0.006,-1.3566 c 0.003,-0.77475 0.23028,-1.85129 0.52917,-2.50998 0.31482,-0.69381 0.52335,-1.72378 0.52335,-2.58495 0,-1.08653 0.1661,-1.69468 0.68914,-2.52323 0.61343,-0.97173 0.67438,-1.28361 0.55485,-2.83901 -0.0739,-0.96105 -0.30901,-2.51454 -0.52256,-3.45221 l -0.38828,-1.70486 1.00711,-2.08256 1.0071,-2.08255 -0.76381,-1.29541 c -0.42009,-0.71248 -0.89648,-1.78815 -1.05864,-2.39039 -0.25502,-0.94706 -0.22997,-1.16727 0.18543,-1.6302 0.44134,-0.49181 0.71105,-0.52445 3.32563,-0.4024 2.71517,0.12675 2.86647,0.10561 3.30729,-0.46201 0.72499,-0.93355 3.66722,-2.78122 4.42881,-2.78122 0.77436,0 1.75721,-0.92496 2.2519,-2.11924 0.20349,-0.49125 0.92727,-1.16159 1.94734,-1.80354 1.37923,-0.86798 1.91775,-1.04597 3.57947,-1.18306 1.43253,-0.11819 2.20661,-0.0567 2.89246,0.22991 0.92508,0.38652 0.94796,0.38012 1.88047,-0.52646 0.85779,-0.833931 1.12954,-0.934361 2.97599,-1.099781 l 2.032,-0.18205 0.17738,0.945531 c 0.0976,0.52004 0.13194,1.5775 0.0764,2.34992 -0.0745,1.03623 0.005,1.48889 0.30416,1.72671 0.71225,0.56661 -0.1802,0.38661 -1.5667,-0.31598 -1.12361,-0.56938 -1.40816,-0.61618 -2.17402,-0.3576 -1.55434,0.52481 -3.31048,1.98048 -3.49355,2.89583 -0.25536,1.27678 -0.24317,1.29189 1.04195,1.29189 1.11856,0 3.81768,0.91087 3.82068,1.28935 7.9e-4,0.0912 0.27986,0.51398 0.6203,0.93946 l 0.619,0.77359 1.23079,-0.88388 c 0.67693,-0.48614 1.45942,-0.90074 1.73887,-0.92132 0.27944,-0.0206 0.7046,-0.20054 0.9448,-0.39988 0.31075,-0.2579 1.17572,-0.35248 2.99864,-0.32788 2.69741,0.0364 3.61086,0.15541 4.11026,0.53549 0.16705,0.12714 0.96511,0.43306 1.77347,0.67984 0.80835,0.24677 1.67039,0.68303 1.91564,0.96945 0.24524,0.28643 0.40839,0.52078 0.36254,0.52078 -0.0459,0 -0.90788,-0.27919 -1.91564,-0.62041 -1.75071,-0.5928 -5.33792,-1.09302 -7.21013,-1.00542 -1.00122,0.0468 -1.82317,0.42847 -2.4164,1.12192 -0.57575,0.673 -3.15145,1.50073 -5.34148,1.71653 -1.42338,0.14026 -2.04312,0.3379 -2.64342,0.84302 l -0.78415,0.65982 0.57359,0.61055 0.57358,0.61055 -0.69246,0.64175 c -0.86977,0.80608 -0.86498,0.90703 0.0897,1.89201 0.91708,0.94619 3.19362,4.84414 3.17104,5.42953 -0.017,0.44007 -0.002,0.45863 -1.39194,-1.77907 -0.67236,-1.08281 -0.78636,-1.16115 -1.15426,-0.79325 -0.3679,0.3679 -0.56678,0.32706 -2.01378,-0.41353 -1.04679,-0.53576 -1.64109,-0.71517 -1.70763,-0.51552 -0.23903,0.71708 -1.19932,1.63594 -2.58773,2.47611 -1.08217,0.65485 -1.52599,1.09719 -1.63242,1.62697 -0.0804,0.40019 -0.23248,0.72761 -0.33797,0.72761 -0.84363,0 -3.7108,-3.05716 -3.7108,-3.9567 0,-0.14467 -0.33609,-0.43685 -0.74687,-0.64927 -0.41078,-0.21242 -0.90701,-0.57917 -1.10272,-0.81499 -0.19572,-0.23582 -0.58301,-0.55034 -0.86065,-0.69893 -0.45502,-0.24352 -0.47513,-0.21471 -0.20393,0.29204 0.42153,0.78762 3.75951,4.62445 4.74361,5.45252 0.44902,0.37782 0.8164,0.7977 0.8164,0.93306 0,0.30799 -1.15116,0.0425 -2.42516,-0.55923 -0.88972,-0.42026 -0.77425,-0.23369 1.39613,2.25567 1.8645,2.13853 2.64851,2.83533 3.69833,3.28695 3.01945,1.29893 5.66617,0.88268 6.51497,-1.0246 0.50486,-1.13445 0.69583,-0.64582 0.40306,1.03128 -0.16919,0.96914 -0.39604,1.31515 -1.25884,1.92011 -0.57885,0.40586 -1.91967,0.94544 -2.9796,1.19907 -1.66112,0.39749 -1.94922,0.55246 -2.08701,1.1226 -0.0879,0.3638 -0.24868,0.78052 -0.35725,0.92604 -0.10857,0.14552 -0.33485,1.51474 -0.50284,3.04271 -0.16799,1.52797 -0.47704,3.80592 -0.68677,5.06212 -0.4968,2.97561 -0.55875,9.46994 -0.12128,12.71502 0.31138,2.30974 0.29905,2.73552 -0.12444,4.30003 -0.43451,1.60522 -2.74064,5.44738 -3.26213,5.43493 -0.2335,-0.006 -4.19343,-5.24396 -4.42707,-5.85634 -0.30511,-0.7997 -1.24739,-0.79501 -2.37906,0.0119 -0.58209,0.41501 -2.15132,1.30252 -3.48719,1.97224 -2.41406,1.21024 -3.78885,2.46203 -3.78885,3.44983 0,0.50018 -2.10039,1.53358 -5.15938,2.53844 -1.01865,0.33461 -2.5322,0.94837 -3.36346,1.36391 -0.83126,0.41553 -2.41592,1.11483 -3.52145,1.554 -4.65106,1.8476 -5.67969,2.61655 -7.53671,5.63411 -1.56731,2.546786 -1.6625,3.376866 -0.53809,4.692346 0.95437,1.11654 0.96705,1.34959 0.16698,3.06789 -0.42335,0.90922 -0.77569,2.46967 -1.06604,4.72128 -0.40342,3.128481 -0.53191,3.559951 -1.84114,6.182531 -0.7741,1.55064 -1.62077,3.47419 -1.8815,4.27456 -0.26072,0.80036 -0.93082,2.13092 -1.48911,2.9568 -0.55829,0.82588 -1.51571,2.82914 -2.1276,4.4517 -0.99754,2.64518 -1.22892,3.03368 -2.23869,3.75884 -0.61939,0.44482 -1.16317,1.06093 -1.2084,1.36914 -0.0452,0.30822 -0.24814,-0.29751 -0.45092,-1.34606 z m 1.52847,-11.21788 c -0.19883,-0.12596 -0.49576,-0.23085 -0.65984,-0.23308 -0.16408,-0.002 -0.44655,-0.18264 -0.62771,-0.40092 -0.18116,-0.21828 -0.52316,-0.39655 -0.76,-0.39616 -0.26812,5.3e-4 0.0187,0.38949 0.76,1.03096 0.98446,0.85186 1.23032,0.96081 1.41984,0.62924 0.14954,-0.26161 0.10355,-0.48063 -0.13229,-0.63004 z M 132.9172,51.970893 c 0.61846,-0.43729 1.12448,-0.9058 1.12448,-1.04113 0,-0.14746 -0.13251,-0.1443 -0.33073,0.008 -0.1819,0.13967 -1.31299,0.99304 -2.51354,1.89637 -2.39452,1.80172 -3.01861,2.53484 -0.79375,0.93241 0.76398,-0.55025 1.89508,-1.35824 2.51354,-1.79554 z m 8.53281,-9.31118 c 0,-0.19759 0.24833,-0.49215 0.55183,-0.65458 0.3035,-0.16243 0.48086,-0.3663 0.39412,-0.45304 -0.17397,-0.17397 -1.7397,1.23426 -1.7397,1.5647 0,0.11372 0.1786,0.13824 0.39688,0.0545 0.21828,-0.0838 0.39687,-0.31396 0.39687,-0.51156 z m 9.00889,-12.66527 c -0.17398,-0.20963 -0.4962,-0.31212 -0.71604,-0.22776 -0.32476,0.12462 -0.33353,0.19533 -0.0468,0.37709 0.1941,0.12304 0.51632,0.22554 0.71604,0.22777 0.28616,0.003 0.29608,-0.0767 0.0468,-0.3771 z m 2.7527,-4.62591 c 0.20739,-0.33558 -0.47385,-0.43696 -2.07606,-0.30895 -1.09807,0.0877 -1.22726,0.14474 -0.68969,0.30436 0.96239,0.28575 2.5903,0.28846 2.76575,0.005 z m -3.29492,-1.31463 c 0,-0.24358 -0.62634,-0.55748 -1.11237,-0.55748 -0.16672,0 -0.1454,0.15657 0.054,0.39688 0.35945,0.43311 1.05833,0.53916 1.05833,0.1606 z m 4.58926,-2.80644 c 1.98552,-1.01864 3.61066,-1.92076 3.61143,-2.00469 0.006,-0.699 -7.36454,2.8703 -7.62311,3.69141 -0.14426,0.45813 -0.2814,0.51579 4.01168,-1.68672 z m 4.67116,-0.66146 c 0,-0.14552 -0.29766,-0.26458 -0.66146,-0.26458 -0.3638,0 -0.66146,0.11906 -0.66146,0.26458 0,0.14553 0.29766,0.26459 0.66146,0.26459 0.3638,0 0.66146,-0.11906 0.66146,-0.26459 z m -10.98021,-0.26458 c 0.0899,-0.14552 0.0445,-0.26458 -0.10106,-0.26458 -0.14553,0 -0.33817,0.11906 -0.42811,0.26458 -0.0899,0.14552 -0.0445,0.26458 0.10106,0.26458 0.14553,0 0.33817,-0.11906 0.42811,-0.26458 z m -0.53104,-2.90739 c 0.0927,-0.14998 -0.0135,-0.19433 -0.24897,-0.10398 -0.45837,0.17589 -0.54223,0.36554 -0.16165,0.36554 0.13693,0 0.32171,-0.1177 0.41062,-0.26156 z m 2.50547,-1.71083 c 0.17568,-0.21169 0.84511,-0.69296 1.4876,-1.06949 0.6425,-0.37653 1.16818,-0.72645 1.16818,-0.77761 0,-0.11815 -2.12745,0.35534 -2.42622,0.53999 -0.12286,0.0759 -0.40418,0.48769 -0.62517,0.91503 -0.41778,0.8079 -0.16084,1.06255 0.39561,0.39208 z m 6.81745,-0.8333 c -0.0879,-0.0879 -0.31612,-0.0973 -0.50712,-0.0209 -0.21106,0.0845 -0.14837,0.14716 0.15986,0.15986 0.27891,0.0115 0.43518,-0.051 0.34726,-0.13897 z m 11.42431,60.70377 c -0.20045,-0.37454 -0.24915,-1.20426 -0.13976,-2.38125 0.15767,-1.69646 0.13505,-1.80641 -0.37162,-1.80641 -0.29673,0 -0.97469,0.18182 -1.50657,0.40406 -0.82783,0.34589 -1.02025,0.35086 -1.33661,0.0345 -0.61842,-0.61842 -0.47598,-3.00117 0.36629,-6.1271 0.43131,-1.60073 0.76796,-3.08902 0.74813,-3.3073 -0.0198,-0.21828 -0.0542,-0.65641 -0.0764,-0.97362 -0.0278,-0.39851 -0.40165,-0.75723 -1.20953,-1.1607 -1.35235,-0.67539 -1.64435,-1.33602 -0.89164,-2.01721 1.12922,-1.02193 1.45154,-2.72781 0.69676,-3.68764 -0.31455,-0.40001 0.10248,-1.43919 0.94036,-2.34328 0.62339,-0.67266 0.76985,-0.7119 1.93812,-0.5193 0.69507,0.11459 1.40634,0.18433 1.5806,0.15497 0.17426,-0.0293 1.9602,0.19449 3.96875,0.49743 2.00855,0.30294 4.42582,0.66606 5.3717,0.80694 1.83485,0.27328 6.34127,2.26053 6.34685,2.79886 0.0102,0.97792 -4.09306,3.42571 -7.41788,4.42517 -2.70441,0.81297 -3.26143,1.33623 -3.69764,3.47359 -0.46189,2.2632 -0.42683,2.48669 0.63719,4.06149 0.52606,0.7786 0.95648,1.65338 0.95648,1.94395 0,0.82399 -5.58981,6.29769 -6.43128,6.29769 -0.0906,0 -0.30312,-0.25868 -0.47232,-0.57484 z m 15.66063,-25.57835 c -1.49778,-1.4823 -1.50518,-1.67967 -0.0773,-2.05964 0.86896,-0.23123 1.90939,0.79913 1.88499,1.86676 -0.0383,1.6755 -0.28319,1.70163 -1.80771,0.19288 z m 1.57166,-1.70771 c -0.40509,-0.49819 -1.68102,-1.28319 -3.37343,-2.07547 -1.49706,-0.70083 -2.72192,-1.37965 -2.72192,-1.50849 0,-0.36153 3.71965,-1.63077 4.77494,-1.62934 0.7368,0.001 1.14905,0.21691 1.91823,1.00462 1.10324,1.12982 1.17121,1.62636 0.50056,3.65694 l -0.44686,1.35298 z M 162.433,47.978743 c -0.52576,-0.46254 -0.62072,-0.65554 -0.32546,-0.66146 0.22929,-0.005 0.69653,0.2893 1.03831,0.6531 0.80251,0.85423 0.25592,0.86065 -0.71285,0.008 z m 23.46702,-4.91877 c 0,-0.15411 -0.10938,-0.2126 -0.24306,-0.12998 -0.13368,0.0826 -0.3227,-0.21244 -0.42006,-0.65567 -0.14872,-0.67716 -0.0591,-0.89942 0.56112,-1.39138 0.65782,-0.52178 2.45771,-1.07499 2.71383,-0.83411 0.13439,0.12639 -1.19078,2.36165 -1.70488,2.87576 -0.47865,0.47864 -0.90695,0.54258 -0.90695,0.13538 z m -4.11613,-2.39003 c -0.12568,-0.20336 0.12047,-0.61416 0.65322,-1.09017 0.74583,-0.66639 1.02941,-0.75374 2.22257,-0.68454 1.05392,0.0611 1.38786,0.18554 1.4557,0.54234 0.0484,0.25466 -0.0695,0.46375 -0.26211,0.46465 -0.19257,7.9e-4 -0.66782,0.16738 -1.05611,0.36996 -1.07785,0.56236 -2.77323,0.78615 -3.01327,0.39776 z m -18.00707,-2.29476 c -0.27082,-0.17841 -0.43781,-0.60096 -0.80875,-2.04647 -0.12456,-0.48537 -0.10033,-0.48081 0.29281,0.0551 0.25699,0.35029 0.59096,0.52193 0.83403,0.42865 0.26727,-0.10256 0.45564,0.0365 0.55279,0.40796 0.2542,0.97206 0.54696,0.61862 0.73514,-0.88751 0.0997,-0.79807 0.30808,-1.52939 0.46305,-1.62517 0.19339,-0.11952 0.22593,0.23186 0.10375,1.12031 -0.36308,2.64034 -0.40984,2.74997 -1.17117,2.7456 -0.38862,-0.002 -0.83936,-0.0915 -1.00165,-0.19844 z m 21.86941,-2.87173 c -0.87902,-0.73965 -1.5983,-1.9182 -1.5983,-2.61884 0,-0.59997 -1.71709,-2.3591 -2.08236,-2.13335 -0.16439,0.1016 -0.29889,0.69503 -0.29889,1.31873 0,1.29634 -0.50597,1.91252 -1.77961,2.16725 -1.21599,0.2432 -2.41424,-0.28748 -4.04122,-1.78976 -1.20256,-1.11038 -1.34037,-1.32092 -0.79375,-1.21264 0.3638,0.0721 0.88935,0.22611 1.16788,0.34231 0.34361,0.14335 0.44855,0.11764 0.32641,-0.08 -0.099,-0.1602 -0.0563,-0.36774 0.0949,-0.4612 0.37634,-0.23258 -0.74901,-2.19747 -1.37175,-2.39512 -0.26514,-0.0842 -0.48206,-0.25614 -0.48206,-0.38218 0,-0.12605 -0.32743,-0.28482 -0.72761,-0.35282 -0.40018,-0.068 0.0168,-0.10567 0.92652,-0.0837 0.90977,0.022 1.65391,0.0143 1.65365,-0.0169 -0.002,-0.17946 -1.32578,-0.72795 -2.11715,-0.87689 l -0.92604,-0.1743 0.78188,-0.31997 c 1.34381,-0.54993 2.66852,-0.12422 4.5316,1.45628 0.92513,0.78481 1.78394,1.42692 1.90847,1.42692 0.12454,0 0.49551,-0.28642 0.82439,-0.63649 0.46381,-0.4937 0.53838,-0.74597 0.33242,-1.12448 -0.49117,-0.90264 -2.01619,-2.1536 -3.83425,-3.14518 -1.78997,-0.97627 -1.82645,-0.98364 -4.24391,-0.85719 -1.91024,0.0999 -2.79349,0.28689 -4.07765,0.86319 -0.90157,0.4046 -1.77837,0.90329 -1.94842,1.1082 -0.17006,0.2049 -0.62757,1.35028 -1.01668,2.54527 l -0.70749,2.17273 -0.17187,-1.63592 c -0.0945,-0.89975 -0.18864,-1.73319 -0.20912,-1.85208 -0.0205,-0.1189 -0.0232,-0.91536 -0.006,-1.76992 0.029,-1.43793 0.0658,-1.52702 0.49435,-1.19519 0.42992,0.33294 0.42945,0.31905 -0.007,-0.19425 -0.43936,-0.51711 -0.44094,-0.57662 -0.0244,-0.92148 0.33722,-0.2792 1.3822,-0.36602 4.30616,-0.35777 3.40045,0.01 4.03443,0.0828 5.31609,0.61356 2.20667,0.91388 5.31944,2.81019 6.33814,3.86123 0.50018,0.51605 1.07168,0.93827 1.27,0.93827 0.19833,0 0.30339,0.0926 0.23348,0.20567 -0.0699,0.11312 0.25311,0.8087 0.71782,1.54572 0.56752,0.9001 0.99958,1.31736 1.31597,1.27092 0.66137,-0.0971 2.26523,0.97288 2.41027,1.6079 0.0665,0.29104 0.18908,1.12448 0.27248,1.85209 l 0.15162,1.32291 -0.50161,-1.41331 c -0.6405,-1.80467 -1.07071,-2.24131 -1.98272,-2.01241 -1.09522,0.27488 -1.19705,1.26053 -0.25296,2.44833 0.42728,0.53757 0.8656,1.12622 0.97406,1.30812 0.33428,0.56067 -0.28012,0.36649 -1.14617,-0.36224 z m -0.60935,-6.10462 c -0.25644,-0.0669 -0.39824,-0.23168 -0.31511,-0.36618 0.22629,-0.36615 0.57302,-0.29523 0.74476,0.15231 0.0838,0.21828 0.12626,0.38307 0.0944,0.36619 -0.0318,-0.0169 -0.26766,-0.0854 -0.5241,-0.15232 z m -12.63062,-1.13991 c 0.21829,-0.14106 0.51594,-0.25648 0.66146,-0.25648 0.14552,0 0.086,0.11542 -0.13229,0.25648 -0.21828,0.14107 -0.51594,0.25648 -0.66146,0.25648 -0.14552,0 -0.086,-0.11541 0.13229,-0.25648 z m 12.73212,-4.41513 c -0.43233,-0.88986 -0.48459,-1.14226 -0.18502,-0.89364 0.22962,0.19056 0.41749,0.47306 0.41749,0.62776 0,0.1547 0.25888,0.55685 0.57529,0.89365 0.42848,0.4561 0.47569,0.61236 0.18501,0.61236 -0.21465,0 -0.6614,-0.55806 -0.99277,-1.24013 z m -4.02953,-0.59163 -0.63279,-0.52207 0.59943,0.15052 c 0.60572,0.1521 1.01059,0.54919 0.78746,0.77232 -0.0667,0.0667 -0.40606,-0.11363 -0.7541,-0.40077 z m -1.41097,-0.95478 c -0.28247,-0.21365 -0.38635,-0.38846 -0.23083,-0.38846 0.15551,0 0.43097,0.17859 0.61213,0.39688 0.41201,0.49644 0.2824,0.49358 -0.3813,-0.008 z m 4.35005,-0.12388 c 0,-0.14552 0.11906,-0.26458 0.26459,-0.26458 0.14552,0 0.26458,0.11906 0.26458,0.26458 0,0.14553 -0.11906,0.26459 -0.26458,0.26459 -0.14553,0 -0.26459,-0.11906 -0.26459,-0.26459 z m -2.51354,-3.61838 c -2.33751,-1.28067 -6.66801,-2.90378 -8.33438,-3.12379 -2.20781,-0.2915 -3.88411,-1.31049 -4.65347,-2.82874 -1.09532,-2.161511 -0.86007,-2.255651 2.17748,-0.87139 2.10909,0.96114 6.14939,2.24022 7.07632,2.24022 0.28719,0 1.28256,0.49543 2.21195,1.10094 1.39085,0.90618 1.83015,1.37899 2.48317,2.67261 0.43635,0.86442 0.75581,1.59602 0.7099,1.62579 -0.0459,0.0298 -0.79784,-0.33727 -1.67097,-0.81564 z"
         id="path1589"
         inkscape:connector-curvature="0"
         sodipodi:nodetypes="cccccccccccccscccscccscccccccccccscccccccccccccsccccccscccsccccscccccccsccccsssccccsccscccscssccsccccscccccccccscccccccscccccscccccsssscsscccccccccccscccccccssssscscscccscccscccccccccsscssccccccccscccccssccccccccssccccccccccscccccscccccccccccccccccccscssccccccssccccscscccccccccccccccccscccccccccccccccccccscscccscscccssccscccsssssccccscccc" />
    </g>
  </g>
</svg>
