<?xml version="1.0" encoding="UTF-8" standalone="no"?>
<!-- Created with Inkscape (http://www.inkscape.org/) -->

<svg
   xmlns:dc="http://purl.org/dc/elements/1.1/"
   xmlns:cc="http://creativecommons.org/ns#"
   xmlns:rdf="http://www.w3.org/1999/02/22-rdf-syntax-ns#"
   xmlns:svg="http://www.w3.org/2000/svg"
   xmlns="http://www.w3.org/2000/svg"
   xmlns:sodipodi="http://sodipodi.sourceforge.net/DTD/sodipodi-0.dtd"
   xmlns:inkscape="http://www.inkscape.org/namespaces/inkscape"
   width="55mm"
   height="72mm"
   viewBox="0 0 55 72"
   version="1.1"
   id="svg8"
   inkscape:version="0.92.3 (2405546, 2018-03-11)"
   sodipodi:docname="GRASP.svg">
  <defs
     id="defs2" />
  <sodipodi:namedview
     id="base"
     pagecolor="#ffffff"
     bordercolor="#666666"
     borderopacity="1.0"
     inkscape:pageopacity="0.0"
     inkscape:pageshadow="2"
     inkscape:zoom="2.8"
     inkscape:cx="141.3218"
     inkscape:cy="62.81383"
     inkscape:document-units="mm"
     inkscape:current-layer="layer1"
     showgrid="false"
     inkscape:snap-global="false"
     inkscape:window-width="1920"
     inkscape:window-height="1017"
     inkscape:window-x="-8"
     inkscape:window-y="-8"
     inkscape:window-maximized="1" />
  <metadata
     id="metadata5">
    <rdf:RDF>
      <cc:Work
         rdf:about="">
        <dc:format>image/svg+xml</dc:format>
        <dc:type
           rdf:resource="http://purl.org/dc/dcmitype/StillImage" />
        <dc:title />
      </cc:Work>
    </rdf:RDF>
  </metadata>
  <g
     inkscape:label="Layer 1"
     inkscape:groupmode="layer"
     id="layer1"
     transform="translate(0,-225)">
    <path
       inkscape:connector-curvature="0"
       style="opacity:1;fill:#727272;fill-opacity:1;stroke:none;stroke-width:0.49999994;stroke-linecap:round;stroke-linejoin:round;stroke-miterlimit:4;stroke-dasharray:5.99999993, 0.49999997;stroke-dashoffset:0;stroke-opacity:1"
       d="m 64.979404,256.61968 v 30.76378 c 0,4.90173 3.94699,8.84716 8.84869,8.84716 h 34.667546 c 4.90171,0 8.84873,-3.94543 8.84873,-8.84716 v -30.76378 z"
       id="path928"
       inkscape:export-xdpi="137.25958"
       inkscape:export-ydpi="137.25958" />
    <path
       style="font-style:normal;font-weight:normal;font-size:17.12781334px;line-height:1.25;font-family:sans-serif;letter-spacing:0px;word-spacing:0px;fill:#29251e;fill-opacity:1;stroke:none;stroke-width:0.99999994"
       d="M 32.478516 214.02344 C 25.503483 214.02344 19.539953 216.49911 14.587891 221.45117 C 9.6569011 226.38216 7.1914062 232.33551 7.1914062 239.31055 C 7.1914062 246.28558 9.6569011 252.24911 14.587891 257.20117 C 19.539953 262.13216 25.503483 264.59766 32.478516 264.59766 C 38.378845 264.59766 43.679715 262.72358 48.378906 258.97266 C 48.863576 258.48799 49.105469 257.89657 49.105469 257.20117 L 49.105469 241.83984 C 49.105469 241.14445 48.863576 240.54285 48.378906 240.03711 C 47.873164 239.55244 47.283698 239.31055 46.609375 239.31055 L 34.060547 239.31055 C 33.365151 239.31055 32.763555 239.56457 32.257812 240.07031 C 31.773143 240.55498 31.53125 241.14445 31.53125 241.83984 C 31.53125 242.53524 31.773143 243.13488 32.257812 243.64062 C 32.763555 244.12529 33.365151 244.36914 34.060547 244.36914 L 44.048828 244.36914 L 44.048828 255.9375 C 40.698284 258.33978 36.840545 259.54102 32.478516 259.54102 C 26.894275 259.54102 22.121806 257.57144 18.160156 253.63086 C 14.219579 249.66921 12.25 244.89479 12.25 239.31055 C 12.25 233.72631 14.219579 228.96401 18.160156 225.02344 C 22.121806 221.06179 26.894275 219.08203 32.478516 219.08203 C 37.240924 219.08203 41.403574 220.51499 44.964844 223.38086 C 45.470586 223.8866 46.070229 224.13867 46.765625 224.13867 C 47.461021 224.13867 48.052439 223.89678 48.537109 223.41211 C 49.042852 222.90637 49.294922 222.30477 49.294922 221.60938 C 49.294922 220.91398 49.053029 220.31434 48.568359 219.80859 C 43.869168 215.95231 38.505281 214.02344 32.478516 214.02344 z M 57.134766 214.02344 C 56.43937 214.02344 55.837774 214.27746 55.332031 214.7832 C 54.847361 215.26787 54.605469 215.85734 54.605469 216.55273 L 54.605469 262.07031 C 54.605469 262.76571 54.847361 263.36535 55.332031 263.87109 C 55.837774 264.35576 56.43937 264.59766 57.134766 264.59766 C 57.830162 264.59766 58.419627 264.35576 58.904297 263.87109 C 59.410039 263.36535 59.662109 262.76571 59.662109 262.07031 L 59.662109 244.36914 L 69.777344 244.36914 C 70.156651 244.36914 70.526531 244.35701 70.884766 244.33594 L 82.738281 263.30273 C 83.307242 264.16671 84.043097 264.59766 84.949219 264.59766 C 85.644615 264.59766 86.236033 264.35576 86.720703 263.87109 C 87.226446 263.36535 87.478516 262.76571 87.478516 262.07031 C 87.478516 261.5435 87.342303 261.07811 87.068359 260.67773 L 76.068359 243.04102 C 77.669877 242.32455 79.155671 241.28183 80.525391 239.91211 C 83.475555 236.96194 84.949219 233.38876 84.949219 229.19531 C 84.949219 225.00186 83.465378 221.43063 80.494141 218.48047 C 77.543976 215.50923 73.970792 214.02344 69.777344 214.02344 L 57.134766 214.02344 z M 112.76562 214.02344 C 112.07023 214.02344 111.48076 214.26533 110.99609 214.75 C 110.68 215.06609 110.45847 215.41561 110.33203 215.79492 L 92.757812 260.99414 C 92.610304 261.31023 92.537109 261.66993 92.537109 262.07031 C 92.537109 262.76571 92.779002 263.36535 93.263672 263.87109 C 93.769414 264.35576 94.369057 264.59766 95.064453 264.59766 C 95.759849 264.59766 96.361445 264.35576 96.867188 263.87109 C 97.098986 263.61822 97.277861 263.34384 97.404297 263.04883 L 103.69336 246.89648 L 121.83789 246.89648 L 128.12695 263.04883 C 128.25339 263.34384 128.44439 263.61822 128.69727 263.87109 C 129.18194 264.35576 129.7714 264.59766 130.4668 264.59766 C 131.16219 264.59766 131.75166 264.35576 132.23633 263.87109 C 132.74207 263.36535 132.99609 262.76571 132.99609 262.07031 C 132.99609 261.66993 132.9229 261.31023 132.77539 260.99414 L 115.19922 215.79492 C 115.07278 215.41561 114.86338 215.06609 114.56836 214.75 C 114.06262 214.26533 113.46102 214.02344 112.76562 214.02344 z M 153.22461 214.02344 C 150.12694 214.02344 147.38902 215.0458 145.00781 217.08984 C 142.35266 219.34461 140.87705 222.21052 140.58203 225.6875 C 140.30809 229.18555 141.29797 232.26282 143.55273 234.91797 C 145.82858 237.02523 148.56845 238.36268 151.77148 238.93164 C 155.07988 239.79562 157.51289 241.10254 159.07227 242.85156 C 160.86344 244.9799 161.64391 247.44539 161.41211 250.24805 C 161.18031 253.02963 159.99943 255.32643 157.87109 257.13867 C 155.74276 258.92984 153.2894 259.72049 150.50781 259.50977 C 147.70516 259.27797 145.40836 258.08691 143.61719 255.9375 C 143.28003 255.57927 142.98334 255.19921 142.73047 254.79883 C 142.20365 254.01914 141.48815 253.63086 140.58203 253.63086 C 139.88664 253.63086 139.28504 253.88293 138.7793 254.38867 C 138.29463 254.87334 138.05273 255.46281 138.05273 256.1582 C 138.05273 256.72716 138.22143 257.23326 138.55859 257.67578 C 138.91683 258.22367 139.31724 258.73994 139.75977 259.22461 C 143.02602 262.80695 146.92447 264.59766 151.45508 264.59766 C 155.07957 264.59766 158.31535 263.38624 161.16016 260.96289 C 164.34212 258.2656 166.10034 254.83058 166.4375 250.6582 C 166.47965 250.17353 166.50195 249.68975 166.50195 249.20508 C 166.50195 245.62274 165.31089 242.41943 162.92969 239.5957 C 160.63277 236.9827 157.28113 235.192 152.87695 234.22266 C 150.36931 233.56941 148.55825 232.70556 147.44141 231.63086 C 146.07169 230.02934 145.47009 228.18384 145.63867 226.09766 C 145.80725 224.03254 146.6934 222.32716 148.29492 220.97852 C 149.89644 219.6088 151.73998 219.0072 153.82617 219.17578 C 155.89129 219.34436 157.6088 220.23051 158.97852 221.83203 C 159.3789 222.35885 159.76913 222.87512 160.14844 223.38086 C 160.52774 223.8866 161.11721 224.13867 161.91797 224.13867 C 162.61336 224.13867 163.20283 223.89678 163.6875 223.41211 C 164.19324 222.90637 164.44727 222.30477 164.44727 221.60938 C 164.44727 221.10363 164.31928 220.65038 164.06641 220.25 C 163.70817 219.65997 163.29758 219.09281 162.83398 218.54492 C 160.09455 215.53154 156.89124 214.02344 153.22461 214.02344 z M 174.08789 214.02344 C 173.39249 214.02344 172.7909 214.27746 172.28516 214.7832 C 171.80049 215.26787 171.55859 215.85734 171.55859 216.55273 L 171.55859 262.07031 C 171.55859 262.76571 171.80049 263.36535 172.28516 263.87109 C 172.7909 264.35576 173.39249 264.59766 174.08789 264.59766 C 174.78329 264.59766 175.37275 264.35576 175.85742 263.87109 C 176.36316 263.36535 176.61523 262.76571 176.61523 262.07031 L 176.61523 246.89648 L 184.20117 246.89648 C 188.73178 246.89648 192.5997 245.29483 195.80273 242.0918 C 199.02684 238.86769 200.63867 234.99155 200.63867 230.46094 C 200.63867 225.93033 199.02684 222.06241 195.80273 218.85938 C 192.5997 215.63527 188.73178 214.02344 184.20117 214.02344 L 174.08789 214.02344 z M 59.662109 219.08203 L 69.777344 219.08203 C 72.58 219.08203 74.962123 220.07191 76.921875 222.05273 C 78.9027 224.01249 79.892578 226.39266 79.892578 229.19531 C 79.892578 231.99797 78.9027 234.39027 76.921875 236.37109 C 74.962123 238.33085 72.58 239.31055 69.777344 239.31055 L 59.662109 239.31055 L 59.662109 219.08203 z M 176.61523 219.08203 L 184.20117 219.08203 C 187.34099 219.08203 190.01785 220.19794 192.23047 222.43164 C 194.46416 224.64426 195.58203 227.32112 195.58203 230.46094 C 195.58203 233.60076 194.46416 236.28779 192.23047 238.52148 C 190.01785 240.73411 187.34099 241.83984 184.20117 241.83984 L 176.61523 241.83984 L 176.61523 219.08203 z M 112.76562 223.53906 L 119.87891 241.83984 L 105.6543 241.83984 L 112.76562 223.53906 z "
       transform="matrix(0.26458333,0,0,0.26458333,0,225)"
       id="text932" />
    <circle
       style="opacity:1;fill:#c27884;fill-opacity:1;stroke:none;stroke-width:0.5;stroke-linecap:round;stroke-linejoin:round;stroke-miterlimit:4;stroke-dasharray:6.00000008, 0.50000000000000000;stroke-dashoffset:0;stroke-opacity:1"
       id="circle878"
       cx="27.832256"
       cy="252.04675"
       r="26.711746"
       inkscape:export-xdpi="137.25958"
       inkscape:export-ydpi="137.25958" />
    <path
       style="fill:#29251e;stroke-width:1.00000012;fill-opacity:1"
       d="m 29.227234,234.25236 c -0.63961,0.012 -1.22578,0.26374 -1.72499,0.76304 -0.66974,0.66974 -2.21556,5.08797 -3.22928,9.22944 -0.19216,0.78483 -0.63856,1.42817 -0.99149,1.42817 -1.06748,0 -2.3369,-1.78787 -2.04977,-2.88585 0.21502,-0.82242 -0.22524,-1.26999 -2.17566,-2.21764 -2.15157,-1.04529 -2.53532,-1.09644 -3.20753,-0.42423 -0.67222,0.67221 -0.47142,1.34385 1.67215,5.61009 1.83842,3.65895 2.52946,5.70767 2.82056,8.36073 0.21201,1.9327 0.27306,3.6245 0.13683,3.76078 -0.83659,0.83659 -2.9715,0.0241 -4.80508,-1.82756 -1.49478,-1.5098 -2.48246,-2.07465 -3.62248,-2.07465 -1.76802,0 -1.80585,-0.13412 1.20904,4.22234 1.52883,2.20903 2.5734,3.13605 4.25809,3.77942 1.22753,0.4688 3.16447,1.72087 4.30624,2.78174 l 2.07774,1.92855 0.3652,7.00564 c 0.092,1.76396 0.20509,3.42791 0.31236,4.84393 a 26.711747,26.711747 0 0 0 3.25262,0.22224 26.711747,26.711747 0 0 0 7.442285,-1.0723 c -0.31288,-1.53595 -0.43738,-2.11229 -0.84694,-4.15704 l -1.541595,-7.68787 1.247885,-3.72812 c 0.68556,-2.05067 1.41398,-5.2454 1.61928,-7.10042 0.2054,-1.85503 0.72322,-3.91015 1.15001,-4.56577 l 0.77548,-1.19195 1.37996,1.32094 c 0.79672,0.76327 1.98347,1.32246 2.80971,1.32246 h 1.43127 l -1.67681,-2.33413 c -1.4781,-2.05826 -1.90988,-2.33574 -3.6349,-2.33574 -2.48886,0 -2.96235,-0.77593 -1.45614,-2.37925 0.96554,-1.0277 1.50922,-1.20407 2.90762,-0.94175 1.17596,0.22073 1.72033,0.1251 1.72033,-0.30301 0,-0.95282 -2.05912,-3.63959 -2.7895,-3.63959 -0.35437,0 -1.8755,1.04993 -3.38006,2.33417 -1.50453,1.28428 -3.048295,2.33574 -3.429765,2.33574 -0.38141,0 -1.08977,0.15126 -1.57424,0.33723 -0.79475,0.305 -0.84443,0.012 -0.5035,-2.98377 0.43497,-3.82363 0.49364,-3.94581 1.51054,-3.10186 0.59508,0.49394 1.05134,0.47473 2.138335,-0.0947 l 1.38156,-0.7242 -1.798035,-1.90525 c -1.20771,-1.28058 -2.42123,-1.92924 -3.48727,-1.90991 z"
       id="path882"
       inkscape:connector-curvature="0"
       inkscape:export-xdpi="137.25958"
       inkscape:export-ydpi="137.25958" />
  </g>
</svg>
