<?xml version="1.0" encoding="UTF-8" standalone="no"?>
<!-- Created with Inkscape (http://www.inkscape.org/) -->

<svg
   xmlns:dc="http://purl.org/dc/elements/1.1/"
   xmlns:cc="http://creativecommons.org/ns#"
   xmlns:rdf="http://www.w3.org/1999/02/22-rdf-syntax-ns#"
   xmlns:svg="http://www.w3.org/2000/svg"
   xmlns="http://www.w3.org/2000/svg"
   xmlns:sodipodi="http://sodipodi.sourceforge.net/DTD/sodipodi-0.dtd"
   xmlns:inkscape="http://www.inkscape.org/namespaces/inkscape"
   width="55mm"
   height="72mm"
   viewBox="0 0 55 72"
   version="1.1"
   id="svg8"
   inkscape:version="0.92.3 (2405546, 2018-03-11)"
   sodipodi:docname="GRASP.svg">
  <defs
     id="defs2" />
  <sodipodi:namedview
     id="base"
     pagecolor="#ffffff"
     bordercolor="#666666"
     borderopacity="1.0"
     inkscape:pageopacity="0.0"
     inkscape:pageshadow="2"
     inkscape:zoom="3.959798"
     inkscape:cx="51.334687"
     inkscape:cy="126.19138"
     inkscape:document-units="mm"
     inkscape:current-layer="layer1"
     showgrid="false"
     inkscape:snap-global="false"
     inkscape:window-width="1920"
     inkscape:window-height="1017"
     inkscape:window-x="-8"
     inkscape:window-y="-8"
     inkscape:window-maximized="1" />
  <metadata
     id="metadata5">
    <rdf:RDF>
      <cc:Work
         rdf:about="">
        <dc:format>image/svg+xml</dc:format>
        <dc:type
           rdf:resource="http://purl.org/dc/dcmitype/StillImage" />
        <dc:title />
      </cc:Work>
    </rdf:RDF>
  </metadata>
  <g
     inkscape:label="Layer 1"
     inkscape:groupmode="layer"
     id="layer1"
     transform="translate(0,-225)">
    <path
       inkscape:connector-curvature="0"
       style="opacity:1;fill:#727272;fill-opacity:1;stroke:none;stroke-width:0.49999994;stroke-linecap:round;stroke-linejoin:round;stroke-miterlimit:4;stroke-dasharray:5.99999993, 0.49999997;stroke-dashoffset:0;stroke-opacity:1"
       d="m 64.979404,256.61968 v 30.76378 c 0,4.90173 3.94699,8.84716 8.84869,8.84716 h 34.667546 c 4.90171,0 8.84873,-3.94543 8.84873,-8.84716 v -30.76378 z"
       id="path928"
       inkscape:export-xdpi="137.25958"
       inkscape:export-ydpi="137.25958" />
    <path
       style="font-style:normal;font-weight:normal;font-size:17.12781334px;line-height:1.25;font-family:sans-serif;letter-spacing:0px;word-spacing:0px;fill:#29251e;fill-opacity:1;stroke:none;stroke-width:0.26458332"
       d="m 9.127813,283.23065 c -1.8454774,0 -3.4233281,0.65502 -4.7335611,1.96526 -1.3046577,1.30465 -1.9569866,2.87981 -1.9569866,4.72529 0,1.84548 0.6523289,3.42333 1.9569866,4.73356 1.310233,1.30466 2.8880837,1.95699 4.7335611,1.95699 1.561129,0 2.96365,-0.49585 4.206978,-1.48828 0.128236,-0.12824 0.192237,-0.28472 0.192237,-0.46871 v -4.06435 c 0,-0.18399 -0.064,-0.34316 -0.192237,-0.47697 -0.133811,-0.12824 -0.289774,-0.19224 -0.468188,-0.19224 H 9.546392 c -0.1839901,0 -0.3431624,0.0672 -0.4769736,0.20102 -0.1282353,0.12823 -0.1922362,0.2842 -0.1922362,0.46819 0,0.18399 0.064001,0.34264 0.1922362,0.47645 0.1338112,0.12824 0.2929835,0.19276 0.4769736,0.19276 h 2.642733 v 3.06079 c -0.886498,0.63561 -1.907192,0.95343 -3.061312,0.95343 -1.4774971,0 -2.7402128,-0.52111 -3.7883994,-1.56373 -1.0426109,-1.04818 -1.5637287,-2.31141 -1.5637287,-3.78891 0,-1.4775 0.5211178,-2.73752 1.5637287,-3.78013 1.0481866,-1.04819 2.3109023,-1.572 3.7883994,-1.572 1.260054,0 2.361421,0.37914 3.303674,1.1374 0.133811,0.13381 0.292467,0.2005 0.476457,0.2005 0.18399,0 0.340469,-0.064 0.468705,-0.19223 0.133811,-0.13381 0.200505,-0.29299 0.200505,-0.47698 0,-0.18399 -0.064,-0.34264 -0.192237,-0.47645 -1.243327,-1.02031 -2.662523,-1.53066 -4.257104,-1.53066 z m 6.523633,0 c -0.183991,0 -0.343163,0.0672 -0.476974,0.20102 -0.128236,0.12824 -0.192236,0.2842 -0.192236,0.46819 v 12.04319 c 0,0.18399 0.064,0.34265 0.192236,0.47646 0.133811,0.12823 0.292983,0.19224 0.476974,0.19224 0.18399,0 0.339952,-0.064 0.468188,-0.19224 0.133811,-0.13381 0.200504,-0.29247 0.200504,-0.47646 v -4.68343 h 2.676323 c 0.100358,0 0.198222,-0.003 0.293005,-0.009 l 3.136243,5.0183 c 0.150538,0.22859 0.345232,0.34262 0.584977,0.34262 0.18399,0 0.34047,-0.064 0.468705,-0.19224 0.133812,-0.13381 0.200505,-0.29247 0.200505,-0.47646 0,-0.13938 -0.03604,-0.26252 -0.108521,-0.36845 l -2.910416,-4.66638 c 0.423735,-0.18957 0.816851,-0.46545 1.179256,-0.82786 0.780564,-0.78056 1.170471,-1.72597 1.170471,-2.83548 0,-1.10952 -0.392599,-2.05441 -1.178739,-2.83497 -0.780565,-0.78614 -1.72597,-1.17926 -2.835486,-1.17926 z m 14.718996,0 c -0.183988,0 -0.339952,0.064 -0.468188,0.19224 -0.08363,0.0836 -0.142245,0.17611 -0.175699,0.27647 l -4.649845,11.95896 c -0.03903,0.0836 -0.0584,0.1788 -0.0584,0.28473 0,0.18399 0.064,0.34265 0.192237,0.47646 0.133811,0.12823 0.292466,0.19224 0.476457,0.19224 0.18399,0 0.343162,-0.064 0.476973,-0.19224 0.06133,-0.0669 0.108657,-0.1395 0.14211,-0.21756 l 1.663981,-4.27364 h 4.800741 l 1.66398,4.27364 c 0.03345,0.0781 0.08399,0.15065 0.150897,0.21756 0.128236,0.12823 0.284197,0.19224 0.468188,0.19224 0.183989,0 0.339953,-0.064 0.468189,-0.19224 0.13381,-0.13381 0.201019,-0.29247 0.201019,-0.47646 0,-0.10593 -0.01936,-0.2011 -0.05839,-0.28473 L 31.01433,283.69936 c -0.03345,-0.10036 -0.08886,-0.19284 -0.166915,-0.27647 -0.13381,-0.12824 -0.292984,-0.19224 -0.476975,-0.19224 z m 10.704775,0 c -0.819592,0 -1.544,0.2705 -2.174029,0.81132 -0.702508,0.59657 -1.09293,1.35485 -1.170987,2.2748 -0.07248,0.92552 0.189425,1.73972 0.785997,2.44223 0.602152,0.55754 1.327076,0.91141 2.174545,1.06195 0.875347,0.22859 1.519081,0.57438 1.931667,1.03714 0.473914,0.56312 0.680413,1.21545 0.619083,1.95699 -0.06133,0.73596 -0.373772,1.34365 -0.936895,1.82314 -0.563121,0.47392 -1.212239,0.68311 -1.948201,0.62736 -0.741535,-0.0613 -1.34923,-0.37647 -1.823144,-0.94517 -0.08921,-0.0948 -0.167706,-0.19534 -0.234611,-0.30127 -0.139388,-0.20629 -0.328697,-0.30903 -0.568441,-0.30903 -0.183989,0 -0.343162,0.0667 -0.476973,0.20051 -0.128235,0.12823 -0.192238,0.2842 -0.192238,0.46819 0,0.15053 0.04463,0.28444 0.133842,0.40152 0.09478,0.14497 0.200726,0.28156 0.317812,0.4098 0.864196,0.94783 1.895661,1.42162 3.094384,1.42162 0.95898,0 1.815113,-0.32052 2.567803,-0.9617 0.841893,-0.71366 1.307089,-1.62251 1.396296,-2.72645 0.01115,-0.12824 0.01705,-0.25624 0.01705,-0.38447 0,-0.94783 -0.315134,-1.79537 -0.94516,-2.54248 -0.607727,-0.69136 -1.494515,-1.16515 -2.659787,-1.42162 -0.66348,-0.17284 -1.142657,-0.4014 -1.438154,-0.68575 -0.362405,-0.42373 -0.521578,-0.91202 -0.476975,-1.46399 0.0446,-0.5464 0.279064,-0.99761 0.7028,-1.35444 0.423735,-0.36241 0.911505,-0.52158 1.463476,-0.47698 0.546397,0.0446 1.000821,0.27907 1.363226,0.7028 0.105934,0.13939 0.209182,0.27599 0.309542,0.4098 0.100356,0.13381 0.25632,0.2005 0.468188,0.2005 0.183988,0 0.339952,-0.064 0.468188,-0.19223 0.13381,-0.13381 0.201022,-0.29299 0.201022,-0.47698 0,-0.13381 -0.03386,-0.25373 -0.100769,-0.35966 -0.09478,-0.15612 -0.20342,-0.30618 -0.32608,-0.45114 -0.724808,-0.79729 -1.57235,-1.19631 -2.542479,-1.19631 z m 5.520076,0 c -0.183992,0 -0.343162,0.0672 -0.476973,0.20102 -0.128235,0.12824 -0.192238,0.2842 -0.192238,0.46819 v 12.04319 c 0,0.18399 0.064,0.34265 0.192238,0.47646 0.133811,0.12823 0.292981,0.19224 0.476973,0.19224 0.183991,0 0.339952,-0.064 0.468188,-0.19224 0.13381,-0.13381 0.200504,-0.29247 0.200504,-0.47646 v -4.01474 h 2.007113 c 1.198724,0 2.222111,-0.42377 3.069579,-1.27124 0.853046,-0.85304 1.279509,-1.87861 1.279509,-3.07733 0,-1.19872 -0.426463,-2.22211 -1.279509,-3.06958 -0.847468,-0.85305 -1.870855,-1.27951 -3.069579,-1.27951 z m -30.275155,1.33842 h 2.676323 c 0.741536,0 1.371806,0.26191 1.890324,0.786 0.524093,0.51852 0.785998,1.14827 0.785998,1.88981 0,0.74153 -0.261905,1.3745 -0.785998,1.89859 -0.518518,0.51852 -1.148788,0.77773 -1.890324,0.77773 h -2.676323 z m 30.943847,0 h 2.007113 c 0.830744,0 1.538997,0.29525 2.124419,0.88625 0.590997,0.58542 0.886767,1.29368 0.886767,2.12442 0,0.83074 -0.29577,1.54169 -0.886767,2.13268 -0.585422,0.58543 -1.293675,0.87799 -2.124419,0.87799 h -2.007113 z m -16.893543,1.17926 1.882058,4.84208 h -3.763594 z"
       id="text932"
       inkscape:connector-curvature="0" />
    <circle
       style="opacity:1;fill:#c27884;fill-opacity:1;stroke:none;stroke-width:0.5;stroke-linecap:round;stroke-linejoin:round;stroke-miterlimit:4;stroke-dasharray:6.00000008, 0.50000000000000000;stroke-dashoffset:0;stroke-opacity:1"
       id="circle878"
       cx="27.832256"
       cy="252.04675"
       r="26.711746"
       inkscape:export-xdpi="137.25958"
       inkscape:export-ydpi="137.25958" />
    <path
       style="fill:#29251e;stroke-width:1.00000012;fill-opacity:1"
       d="m 29.227234,234.25236 c -0.63961,0.012 -1.22578,0.26374 -1.72499,0.76304 -0.66974,0.66974 -2.21556,5.08797 -3.22928,9.22944 -0.19216,0.78483 -0.63856,1.42817 -0.99149,1.42817 -1.06748,0 -2.3369,-1.78787 -2.04977,-2.88585 0.21502,-0.82242 -0.22524,-1.26999 -2.17566,-2.21764 -2.15157,-1.04529 -2.53532,-1.09644 -3.20753,-0.42423 -0.67222,0.67221 -0.47142,1.34385 1.67215,5.61009 1.83842,3.65895 2.52946,5.70767 2.82056,8.36073 0.21201,1.9327 0.27306,3.6245 0.13683,3.76078 -0.83659,0.83659 -2.9715,0.0241 -4.80508,-1.82756 -1.49478,-1.5098 -2.48246,-2.07465 -3.62248,-2.07465 -1.76802,0 -1.80585,-0.13412 1.20904,4.22234 1.52883,2.20903 2.5734,3.13605 4.25809,3.77942 1.22753,0.4688 3.16447,1.72087 4.30624,2.78174 l 2.07774,1.92855 0.3652,7.00564 c 0.092,1.76396 0.20509,3.42791 0.31236,4.84393 a 26.711747,26.711747 0 0 0 3.25262,0.22224 26.711747,26.711747 0 0 0 7.442285,-1.0723 c -0.31288,-1.53595 -0.43738,-2.11229 -0.84694,-4.15704 l -1.541595,-7.68787 1.247885,-3.72812 c 0.68556,-2.05067 1.41398,-5.2454 1.61928,-7.10042 0.2054,-1.85503 0.72322,-3.91015 1.15001,-4.56577 l 0.77548,-1.19195 1.37996,1.32094 c 0.79672,0.76327 1.98347,1.32246 2.80971,1.32246 h 1.43127 l -1.67681,-2.33413 c -1.4781,-2.05826 -1.90988,-2.33574 -3.6349,-2.33574 -2.48886,0 -2.96235,-0.77593 -1.45614,-2.37925 0.96554,-1.0277 1.50922,-1.20407 2.90762,-0.94175 1.17596,0.22073 1.72033,0.1251 1.72033,-0.30301 0,-0.95282 -2.05912,-3.63959 -2.7895,-3.63959 -0.35437,0 -1.8755,1.04993 -3.38006,2.33417 -1.50453,1.28428 -3.048295,2.33574 -3.429765,2.33574 -0.38141,0 -1.08977,0.15126 -1.57424,0.33723 -0.79475,0.305 -0.84443,0.012 -0.5035,-2.98377 0.43497,-3.82363 0.49364,-3.94581 1.51054,-3.10186 0.59508,0.49394 1.05134,0.47473 2.138335,-0.0947 l 1.38156,-0.7242 -1.798035,-1.90525 c -1.20771,-1.28058 -2.42123,-1.92924 -3.48727,-1.90991 z"
       id="path882"
       inkscape:connector-curvature="0"
       inkscape:export-xdpi="137.25958"
       inkscape:export-ydpi="137.25958" />
  </g>
</svg>
