<?xml version="1.0" encoding="UTF-8" standalone="no"?>
<!-- Created with Inkscape (http://www.inkscape.org/) -->

<svg
   xmlns:dc="http://purl.org/dc/elements/1.1/"
   xmlns:cc="http://creativecommons.org/ns#"
   xmlns:rdf="http://www.w3.org/1999/02/22-rdf-syntax-ns#"
   xmlns:svg="http://www.w3.org/2000/svg"
   xmlns="http://www.w3.org/2000/svg"
   xmlns:sodipodi="http://sodipodi.sourceforge.net/DTD/sodipodi-0.dtd"
   xmlns:inkscape="http://www.inkscape.org/namespaces/inkscape"
   width="55mm"
   height="72mm"
   viewBox="0 0 55 72"
   version="1.1"
   id="svg8"
   inkscape:version="0.92.3 (2405546, 2018-03-11)"
   sodipodi:docname="REACH.svg">
  <defs
     id="defs2" />
  <sodipodi:namedview
     id="base"
     pagecolor="#ffffff"
     bordercolor="#666666"
     borderopacity="1.0"
     inkscape:pageopacity="0.0"
     inkscape:pageshadow="2"
     inkscape:zoom="1.979899"
     inkscape:cx="-29.090588"
     inkscape:cy="92.627058"
     inkscape:document-units="mm"
     inkscape:current-layer="layer1"
     showgrid="false"
     inkscape:snap-global="false"
     inkscape:window-width="1920"
     inkscape:window-height="1017"
     inkscape:window-x="-8"
     inkscape:window-y="-8"
     inkscape:window-maximized="1" />
  <metadata
     id="metadata5">
    <rdf:RDF>
      <cc:Work
         rdf:about="">
        <dc:format>image/svg+xml</dc:format>
        <dc:type
           rdf:resource="http://purl.org/dc/dcmitype/StillImage" />
        <dc:title />
      </cc:Work>
    </rdf:RDF>
  </metadata>
  <g
     inkscape:label="Layer 1"
     inkscape:groupmode="layer"
     id="layer1"
     transform="translate(0,-225)">
    <circle
       style="opacity:1;fill:#78a8c2;fill-opacity:1;stroke:none;stroke-width:0.5;stroke-linecap:round;stroke-linejoin:round;stroke-miterlimit:4;stroke-dasharray:6.00000008, 0.50000000000000000;stroke-dashoffset:0;stroke-opacity:1"
       id="circle898"
       cx="27.491362"
       cy="252.99083"
       r="26.711746"
       inkscape:export-xdpi="137.25955"
       inkscape:export-ydpi="137.25955" />
    <path
       style="fill:#29251e;stroke-width:1;fill-opacity:1"
       d="m 3.7621035,240.77934 a 26.711747,26.711747 0 0 0 -2.7242405,8.71971 l 0.4677782,0.0544 c 4.4564784,0.51631 8.5174728,0.94605 9.0243158,0.95573 0.506812,0.009 1.873097,0.70024 3.036573,1.53382 1.163507,0.83364 3.713597,2.23373 5.666056,3.11275 4.210485,1.89526 5.841619,4.03396 6.077839,7.96294 0.159385,2.65354 2.153855,7.06827 2.770853,6.13377 0.200584,-0.30373 0.132019,-2.0025 -0.153971,-3.7732 -0.285689,-1.7707 -0.460711,-3.44 -0.388507,-3.70951 0.07217,-0.26945 -0.180135,-1.21381 -0.55944,-2.09951 -0.861578,-2.01125 -0.368178,-2.34686 1.426611,-0.96972 2.012664,1.54438 3.047339,3.82727 3.370709,7.433 0.183142,2.04072 0.615976,3.41497 1.2106,3.84315 0.509008,0.36652 0.97835,0.64328 1.042765,0.61384 0.421136,-0.19337 0.242084,-5.1864 -0.264037,-7.35995 -0.33603,-1.44234 -0.566085,-2.79016 -0.511293,-2.99463 0.05473,-0.20449 1.006798,1.36082 2.116625,3.47949 1.572463,3.00199 2.287016,3.88314 3.238601,3.99077 1.192316,0.13503 1.187775,0.0541 -0.205095,-3.42664 -0.784562,-1.96067 -1.595438,-4.3555 -1.801134,-5.3226 -0.247196,-1.16254 -1.01585,-2.24221 -2.267348,-3.18423 -1.041051,-0.78372 -2.388932,-1.79614 -2.996187,-2.2518 -1.050523,-0.78832 -1.049711,-0.83614 -0.006,-0.96972 2.624821,-0.33549 5.193676,0.82769 6.999411,3.16868 2.441349,3.16505 3.247353,3.84646 4.205223,3.55875 0.337203,-0.10134 0.582324,-0.25321 0.641808,-0.38228 0.02105,-0.0433 0.02105,-0.083 -0.006,-0.11818 -0.09984,-0.14074 -1.233334,-1.88985 -2.519115,-3.88667 l -2.337268,-3.63023 -3.404902,-0.91222 c -1.872556,-0.50173 -6.603355,-2.13963 -10.511551,-3.63956 -5.325184,-2.04376 -7.743256,-2.75964 -9.655238,-2.85632 -1.694557,-0.0857 -5.9360766,-1.29399 -10.987089,-3.07389 z"
       id="path839"
       inkscape:export-xdpi="137.25955"
       inkscape:export-ydpi="137.25955"
       inkscape:connector-curvature="0" />
    <path
       style="font-style:normal;font-weight:normal;font-size:17.15550804px;line-height:1.25;font-family:sans-serif;letter-spacing:0px;word-spacing:0px;fill:#29251e;fill-opacity:1;stroke:none;stroke-width:0.99999994"
       d="M 3.8769531 220.69727 C 3.1804327 220.69727 2.5788259 220.95047 2.0722656 221.45703 C 1.586812 221.94248 1.3457031 222.53395 1.3457031 223.23047 L 1.3457031 268.82227 C 1.3457031 269.51879 1.586812 270.11844 2.0722656 270.625 C 2.5788259 271.11045 3.1804327 271.35352 3.8769531 271.35352 C 4.5734735 271.35352 5.164937 271.11045 5.6503906 270.625 C 6.1569509 270.11844 6.4101562 269.51879 6.4101562 268.82227 L 6.4101562 251.0918 L 16.541016 251.0918 C 16.920936 251.0918 17.291577 251.08165 17.650391 251.06055 L 29.521484 270.05664 C 30.091365 270.92201 30.830694 271.35352 31.738281 271.35352 C 32.434802 271.35352 33.026265 271.11045 33.511719 270.625 C 34.018279 270.11844 34.271484 269.51879 34.271484 268.82227 C 34.271484 268.2946 34.133762 267.82876 33.859375 267.42773 L 22.841797 249.76172 C 24.445904 249.04409 25.934707 247.99889 27.306641 246.62695 C 30.261576 243.67202 31.738281 240.09476 31.738281 235.89453 C 31.738281 231.6943 30.251432 228.11704 27.275391 225.16211 C 24.320456 222.18607 20.741245 220.69727 16.541016 220.69727 L 3.8769531 220.69727 z M 41.869141 220.69727 C 41.17262 220.69727 40.571013 220.95047 40.064453 221.45703 C 39.579 221.94248 39.337891 222.53395 39.337891 223.23047 L 39.337891 268.82227 C 39.337891 269.51879 39.579 270.11844 40.064453 270.625 C 40.571013 271.11045 41.17262 271.35352 41.869141 271.35352 L 72.263672 271.35352 C 72.960192 271.35352 73.551656 271.11045 74.037109 270.625 C 74.54367 270.11844 74.796875 269.51879 74.796875 268.82227 C 74.796875 268.12575 74.54367 267.53428 74.037109 267.04883 C 73.551656 266.54227 72.960192 266.28906 72.263672 266.28906 L 44.402344 266.28906 L 44.402344 248.55859 L 64.664062 248.55859 C 65.360583 248.55859 65.952046 248.31553 66.4375 247.83008 C 66.94406 247.32352 67.197266 246.72191 67.197266 246.02539 C 67.197266 245.32887 66.94406 244.73936 66.4375 244.25391 C 65.952046 243.74735 65.360583 243.49414 64.664062 243.49414 L 44.402344 243.49414 L 44.402344 225.76367 L 72.263672 225.76367 C 72.960192 225.76367 73.551656 225.52061 74.037109 225.03516 C 74.54367 224.5286 74.796875 223.92699 74.796875 223.23047 C 74.796875 222.53395 74.54367 221.94248 74.037109 221.45703 C 73.551656 220.95047 72.960192 220.69727 72.263672 220.69727 L 41.869141 220.69727 z M 100.125 220.69727 C 99.42848 220.69727 98.837016 220.94033 98.351562 221.42578 C 98.034962 221.74238 97.812187 222.09078 97.685547 222.4707 L 80.083984 267.74414 C 79.936238 268.06074 79.861328 268.42124 79.861328 268.82227 C 79.861328 269.51879 80.10439 270.11844 80.589844 270.625 C 81.096404 271.11045 81.698011 271.35352 82.394531 271.35352 C 83.091052 271.35352 83.692658 271.11045 84.199219 270.625 C 84.431392 270.37172 84.611641 270.09823 84.738281 269.80273 L 91.037109 253.625 L 109.21094 253.625 L 115.51172 269.80273 C 115.63836 270.09823 115.8268 270.37172 116.08008 270.625 C 116.56553 271.11045 117.157 271.35352 117.85352 271.35352 C 118.55004 271.35352 119.1415 271.11045 119.62695 270.625 C 120.13351 270.11844 120.38672 269.51879 120.38672 268.82227 C 120.38672 268.42124 120.31181 268.06074 120.16406 267.74414 L 102.5625 222.4707 C 102.43586 222.09078 102.22518 221.74238 101.92969 221.42578 C 101.42313 220.94033 100.82152 220.69727 100.125 220.69727 z M 148.62695 220.69727 C 141.64064 220.69727 135.6671 223.1786 130.70703 228.13867 C 125.76807 233.07763 123.29883 239.03908 123.29883 246.02539 C 123.29883 253.0117 125.76807 258.98524 130.70703 263.94531 C 135.6671 268.88428 141.64064 271.35352 148.62695 271.35352 C 154.53682 271.35352 159.84595 269.47574 164.55273 265.71875 C 165.03819 265.2333 165.28125 264.64183 165.28125 263.94531 C 165.28125 263.24879 165.02804 262.65733 164.52148 262.17188 C 164.03603 261.66531 163.44457 261.41211 162.74805 261.41211 C 162.19927 261.41211 161.71315 261.55998 161.29102 261.85547 C 157.68177 264.8104 153.46038 266.28906 148.62695 266.28906 C 143.03368 266.28906 138.25321 264.31414 134.28516 260.36719 C 130.33821 256.39913 128.36523 251.61866 128.36523 246.02539 C 128.36523 240.43212 130.33821 235.66179 134.28516 231.71484 C 138.25321 227.74679 143.03368 225.76367 148.62695 225.76367 C 153.39706 225.76367 157.56578 227.1998 161.13281 230.07031 C 161.63937 230.57687 162.24098 230.83008 162.9375 230.83008 C 163.63402 230.83008 164.22548 230.58702 164.71094 230.10156 C 165.2175 229.595 165.4707 228.9934 165.4707 228.29688 C 165.4707 227.60035 165.22764 226.99875 164.74219 226.49219 C 160.0354 222.62967 154.66346 220.69727 148.62695 220.69727 z M 172.68945 220.69727 C 171.99293 220.69727 171.39133 220.95047 170.88477 221.45703 C 170.39931 221.94248 170.15625 222.53395 170.15625 223.23047 L 170.15625 268.82227 C 170.15625 269.51879 170.39931 270.11844 170.88477 270.625 C 171.39133 271.11045 171.99293 271.35352 172.68945 271.35352 C 173.38597 271.35352 173.97744 271.11045 174.46289 270.625 C 174.96945 270.11844 175.22266 269.51879 175.22266 268.82227 L 175.22266 248.55859 L 200.55078 248.55859 L 200.55078 268.82227 C 200.55078 269.51879 200.79189 270.11844 201.27734 270.625 C 201.7839 271.11045 202.38551 271.35352 203.08203 271.35352 C 203.77855 271.35352 204.37002 271.11045 204.85547 270.625 C 205.36203 270.11844 205.61523 269.51879 205.61523 268.82227 L 205.61523 223.23047 C 205.61523 222.53395 205.36203 221.94248 204.85547 221.45703 C 204.37002 220.95047 203.77855 220.69727 203.08203 220.69727 C 202.38551 220.69727 201.7839 220.95047 201.27734 221.45703 C 200.79189 221.94248 200.55078 222.53395 200.55078 223.23047 L 200.55078 243.49414 L 175.22266 243.49414 L 175.22266 223.23047 C 175.22266 222.53395 174.96945 221.94248 174.46289 221.45703 C 173.97744 220.95047 173.38597 220.69727 172.68945 220.69727 z M 6.4101562 225.76367 L 16.541016 225.76367 C 19.348204 225.76367 21.734345 226.75621 23.697266 228.74023 C 25.681293 230.70316 26.673828 233.08734 26.673828 235.89453 C 26.673828 238.70172 25.681293 241.098 23.697266 243.08203 C 21.734345 245.04495 19.348204 246.02539 16.541016 246.02539 L 6.4101562 246.02539 L 6.4101562 225.76367 z M 100.125 230.22852 L 107.24805 248.55859 L 93 248.55859 L 100.125 230.22852 z "
       transform="matrix(0.26458333,0,0,0.26458333,0,225)"
       id="text920" />
  </g>
</svg>
