<?xml version="1.0" encoding="UTF-8" standalone="no"?>
<!-- Created with Inkscape (http://www.inkscape.org/) -->

<svg
   xmlns:dc="http://purl.org/dc/elements/1.1/"
   xmlns:cc="http://creativecommons.org/ns#"
   xmlns:rdf="http://www.w3.org/1999/02/22-rdf-syntax-ns#"
   xmlns:svg="http://www.w3.org/2000/svg"
   xmlns="http://www.w3.org/2000/svg"
   xmlns:sodipodi="http://sodipodi.sourceforge.net/DTD/sodipodi-0.dtd"
   xmlns:inkscape="http://www.inkscape.org/namespaces/inkscape"
   width="55mm"
   height="72mm"
   viewBox="0 0 55 72"
   version="1.1"
   id="svg8"
   inkscape:version="0.92.3 (2405546, 2018-03-11)"
   sodipodi:docname="SLEIGHT.svg">
  <defs
     id="defs2" />
  <sodipodi:namedview
     id="base"
     pagecolor="#ffffff"
     bordercolor="#666666"
     borderopacity="1.0"
     inkscape:pageopacity="0.0"
     inkscape:pageshadow="2"
     inkscape:zoom="1.979899"
     inkscape:cx="118.19286"
     inkscape:cy="82.523417"
     inkscape:document-units="mm"
     inkscape:current-layer="layer1"
     showgrid="false"
     inkscape:snap-global="false"
     inkscape:window-width="1920"
     inkscape:window-height="1017"
     inkscape:window-x="-8"
     inkscape:window-y="-8"
     inkscape:window-maximized="1" />
  <metadata
     id="metadata5">
    <rdf:RDF>
      <cc:Work
         rdf:about="">
        <dc:format>image/svg+xml</dc:format>
        <dc:type
           rdf:resource="http://purl.org/dc/dcmitype/StillImage" />
        <dc:title />
      </cc:Work>
    </rdf:RDF>
  </metadata>
  <g
     inkscape:label="Layer 1"
     inkscape:groupmode="layer"
     id="layer1"
     transform="translate(0,-225)">
    <path
       style="font-style:normal;font-weight:normal;font-size:14.83078957px;line-height:1.25;font-family:sans-serif;letter-spacing:0px;word-spacing:0px;fill:#29251e;fill-opacity:1;stroke:none;stroke-width:0.99999994"
       d="M 15.179688 221.33398 C 12.706524 221.33398 10.518327 222.2953 8.6171875 224.21484 C 6.4973331 226.33228 5.3195238 229.02386 5.0839844 232.28906 C 4.8652692 235.57405 5.6568374 238.46165 7.4570312 240.95508 C 9.2740493 242.93399 11.460293 244.1903 14.017578 244.72461 C 16.658984 245.53596 18.602662 246.76376 19.847656 248.40625 C 21.277717 250.40495 21.89991 252.71961 21.714844 255.35156 C 21.529777 257.96372 20.58792 260.12236 18.888672 261.82422 C 17.189423 263.50629 15.230566 264.24672 13.009766 264.04883 C 10.772141 263.83115 8.937873 262.7138 7.5078125 260.69531 C 7.2386246 260.3589 7.0026721 260.00295 6.8007812 259.62695 C 6.3801752 258.89476 5.8074268 258.5293 5.0839844 258.5293 C 4.5287844 258.5293 4.0502662 258.7653 3.6464844 259.24023 C 3.2595268 259.69538 3.0664062 260.2493 3.0664062 260.90234 C 3.0664062 261.43665 3.1995621 261.91255 3.46875 262.32812 C 3.7547621 262.84264 4.0744253 263.32805 4.4277344 263.7832 C 7.0354918 267.14735 10.148413 268.82812 13.765625 268.82812 C 16.659395 268.82812 19.242399 267.68981 21.513672 265.41406 C 24.054132 262.88106 25.459328 259.65652 25.728516 255.73828 C 25.762164 255.28313 25.779297 254.8282 25.779297 254.37305 C 25.779297 251.0089 24.826921 248.00135 22.925781 245.34961 C 21.091939 242.89576 18.41861 241.21303 14.902344 240.30273 C 12.900259 239.68927 11.452232 238.87838 10.560547 237.86914 C 9.4669712 236.36517 8.9884529 234.63295 9.1230469 232.67383 C 9.2576408 230.7345 9.9635451 229.13174 11.242188 227.86523 C 12.52083 226.57894 13.992603 226.01552 15.658203 226.17383 C 17.306979 226.33214 18.677909 227.16205 19.771484 228.66602 C 20.091145 229.16074 20.402242 229.64616 20.705078 230.12109 C 21.007914 230.59603 21.479819 230.83398 22.119141 230.83398 C 22.674341 230.83398 23.146246 230.60554 23.533203 230.15039 C 23.936985 229.67545 24.138672 229.11202 24.138672 228.45898 C 24.138672 227.98405 24.037828 227.55763 23.835938 227.18164 C 23.549925 226.62755 23.221696 226.09459 22.851562 225.58008 C 20.664411 222.75024 18.107106 221.33398 15.179688 221.33398 z M 31.835938 221.33398 C 31.280738 221.33398 30.800266 221.57194 30.396484 222.04688 C 30.009527 222.50202 29.816406 223.05594 29.816406 223.70898 L 29.816406 266.45312 C 29.816406 267.10616 30.009527 267.67155 30.396484 268.14648 C 30.800266 268.60163 31.280738 268.82812 31.835938 268.82812 L 54.042969 268.82812 C 54.598169 268.82812 55.070074 268.60163 55.457031 268.14648 C 55.860813 267.67155 56.0625 267.10616 56.0625 266.45312 C 56.0625 265.80009 55.860813 265.24616 55.457031 264.79102 C 55.070074 264.31608 54.598169 264.08008 54.042969 264.08008 L 33.853516 264.08008 L 33.853516 223.70898 C 33.853516 223.05594 33.651829 222.50202 33.248047 222.04688 C 32.861089 221.57194 32.391137 221.33398 31.835938 221.33398 z M 62.119141 221.33398 C 61.563941 221.33398 61.083469 221.57194 60.679688 222.04688 C 60.29273 222.50202 60.099609 223.05594 60.099609 223.70898 L 60.099609 266.45312 C 60.099609 267.10616 60.29273 267.67155 60.679688 268.14648 C 61.083469 268.60163 61.563941 268.82812 62.119141 268.82812 L 86.345703 268.82812 C 86.900903 268.82812 87.372808 268.60163 87.759766 268.14648 C 88.163547 267.67155 88.365234 267.10616 88.365234 266.45312 C 88.365234 265.80009 88.163547 265.24616 87.759766 264.79102 C 87.372808 264.31608 86.900903 264.08008 86.345703 264.08008 L 64.138672 264.08008 L 64.138672 247.45703 L 80.289062 247.45703 C 80.844262 247.45703 81.316167 247.22859 81.703125 246.77344 C 82.106907 246.2985 82.308594 245.73507 82.308594 245.08203 C 82.308594 244.42899 82.106907 243.87507 81.703125 243.41992 C 81.316167 242.94498 80.844262 242.70703 80.289062 242.70703 L 64.138672 242.70703 L 64.138672 226.08398 L 86.345703 226.08398 C 86.900903 226.08398 87.372808 225.85749 87.759766 225.40234 C 88.163547 224.92741 88.365234 224.36202 88.365234 223.70898 C 88.365234 223.05594 88.163547 222.50202 87.759766 222.04688 C 87.372808 221.57194 86.900903 221.33398 86.345703 221.33398 L 62.119141 221.33398 z M 96.439453 221.33398 C 95.884253 221.33398 95.405735 221.57194 95.001953 222.04688 C 94.614996 222.50202 94.421875 223.05594 94.421875 223.70898 L 94.421875 266.45312 C 94.421875 267.10616 94.614996 267.67155 95.001953 268.14648 C 95.405735 268.60163 95.884253 268.82812 96.439453 268.82812 C 96.994653 268.82812 97.466558 268.60163 97.853516 268.14648 C 98.257297 267.67155 98.458984 267.10616 98.458984 266.45312 L 98.458984 223.70898 C 98.458984 223.05594 98.257297 222.50202 97.853516 222.04688 C 97.466558 221.57194 96.994653 221.33398 96.439453 221.33398 z M 124.70508 221.33398 C 119.13625 221.33398 114.37557 223.66011 110.42188 228.31055 C 106.485 232.94119 104.51563 238.53184 104.51562 245.08203 C 104.51562 251.63222 106.485 257.23238 110.42188 261.88281 C 114.37557 266.51346 119.13625 268.82812 124.70508 268.82812 C 129.41587 268.82812 133.64663 267.06738 137.39844 263.54492 C 137.7854 263.08977 137.97852 262.53585 137.97852 261.88281 L 137.97852 247.45703 C 137.97852 246.80399 137.7854 246.23861 137.39844 245.76367 C 136.99466 245.30852 136.5247 245.08203 135.98633 245.08203 L 125.9668 245.08203 C 125.4116 245.08203 124.93308 245.31998 124.5293 245.79492 C 124.14234 246.25007 123.94727 246.80399 123.94727 247.45703 C 123.94727 248.11007 124.14234 248.6735 124.5293 249.14844 C 124.93308 249.60359 125.4116 249.83203 125.9668 249.83203 L 133.94141 249.83203 L 133.94141 260.69531 C 131.26635 262.95127 128.1877 264.08008 124.70508 264.08008 C 120.24665 264.08008 116.43639 262.22986 113.27344 258.5293 C 110.1273 254.80895 108.55469 250.32614 108.55469 245.08203 C 108.55469 239.83792 110.1273 235.36462 113.27344 231.66406 C 116.43639 227.94371 120.24665 226.08398 124.70508 226.08398 C 128.50736 226.08398 131.83053 227.42978 134.67383 230.12109 C 135.07761 230.59603 135.55613 230.83398 136.11133 230.83398 C 136.66653 230.83398 137.13843 230.60554 137.52539 230.15039 C 137.92917 229.67545 138.13086 229.11202 138.13086 228.45898 C 138.13086 227.80594 137.93774 227.24252 137.55078 226.76758 C 133.79898 223.14618 129.51681 221.33398 124.70508 221.33398 z M 144.38867 221.33398 C 143.83347 221.33398 143.35495 221.57194 142.95117 222.04688 C 142.56421 222.50202 142.37109 223.05594 142.37109 223.70898 L 142.37109 266.45312 C 142.37109 267.10616 142.56421 267.67155 142.95117 268.14648 C 143.35495 268.60163 143.83347 268.82812 144.38867 268.82812 C 144.94387 268.82812 145.41578 268.60163 145.80273 268.14648 C 146.20652 267.67155 146.4082 267.10616 146.4082 266.45312 L 146.4082 247.45703 L 166.59766 247.45703 L 166.59766 266.45312 C 166.59766 267.10616 166.79078 267.67155 167.17773 268.14648 C 167.58152 268.60163 168.06199 268.82812 168.61719 268.82812 C 169.17239 268.82812 169.64234 268.60163 170.0293 268.14648 C 170.43308 267.67155 170.63477 267.10616 170.63477 266.45312 L 170.63477 223.70898 C 170.63477 223.05594 170.43308 222.50202 170.0293 222.04688 C 169.64234 221.57194 169.17239 221.33398 168.61719 221.33398 C 168.06199 221.33398 167.58152 221.57194 167.17773 222.04688 C 166.79078 222.50202 166.59766 223.05594 166.59766 223.70898 L 166.59766 242.70703 L 146.4082 242.70703 L 146.4082 223.70898 C 146.4082 223.05594 146.20652 222.50202 145.80273 222.04688 C 145.41578 221.57194 144.94387 221.33398 144.38867 221.33398 z M 176.69141 221.33398 C 176.13621 221.33398 175.65769 221.57194 175.25391 222.04688 C 174.86695 222.50202 174.67383 223.05594 174.67383 223.70898 C 174.67383 224.36202 174.86695 224.92741 175.25391 225.40234 C 175.65769 225.85749 176.13621 226.08398 176.69141 226.08398 L 187.79492 226.08398 L 187.79492 266.45312 C 187.79492 267.10616 187.99 267.67155 188.37695 268.14648 C 188.78073 268.60163 189.25925 268.82812 189.81445 268.82812 C 190.36965 268.82812 190.84156 268.60163 191.22852 268.14648 C 191.6323 267.67155 191.83398 267.10616 191.83398 266.45312 L 191.83398 226.08398 L 202.9375 226.08398 C 203.4927 226.08398 203.9646 225.85749 204.35156 225.40234 C 204.75534 224.92741 204.95703 224.36202 204.95703 223.70898 C 204.95703 223.05594 204.75534 222.50202 204.35156 222.04688 C 203.9646 221.57194 203.4927 221.33398 202.9375 221.33398 L 176.69141 221.33398 z "
       transform="matrix(0.26458333,0,0,0.26458333,0,225)"
       id="text926" />
    <circle
       r="26.711746"
       cy="252.93614"
       cx="27.898064"
       id="circle896"
       style="opacity:1;fill:#9078c2;fill-opacity:1;stroke:none;stroke-width:0.5;stroke-linecap:round;stroke-linejoin:round;stroke-miterlimit:4;stroke-dasharray:6.00000008, 0.50000000000000000;stroke-dashoffset:0;stroke-opacity:1"
       inkscape:export-xdpi="137.25955"
       inkscape:export-ydpi="137.25955" />
    <path
       style="fill:#29251e;stroke-width:1;fill-opacity:1"
       d="m 6.8073449,236.59697 a 26.711747,26.711747 0 0 0 -4.758467,9.74073 c 4.729447,-0.69735 11.0831111,-1.49544 12.9964461,-1.55872 1.948429,-0.0643 1.989177,0.0553 1.989177,5.82144 v 5.8867 l 3.779426,2.67297 c 4.262089,3.01468 4.835091,2.19689 1.696993,-2.4212 -1.681055,-2.47392 -1.872617,-3.20071 -0.994589,-3.7732 1.713352,-1.11711 4.835182,-0.009 7.675412,2.72421 3.351764,3.22513 3.111725,5.01511 -0.632485,4.71498 -2.666983,-0.21381 -2.711701,-0.17262 -1.181069,1.05985 0.875231,0.70478 2.307435,1.80489 3.182666,2.44607 1.490816,1.09211 1.503356,1.21646 0.19878,1.9643 -0.765828,0.43906 -1.392419,1.31718 -1.392419,1.95186 0,1.3831 -0.07849,1.37699 3.090975,0.27186 2.06899,-0.72123 2.704634,-1.52787 3.476414,-4.41348 1.08643,-4.06204 2.03453,-2.91369 2.12905,2.57815 0.0307,1.78694 0.29411,3.48772 0.58584,3.77946 0.83701,0.83698 0.9364,0.70372 1.83845,-2.45386 0.73825,-2.58428 0.51075,-4.07721 -1.70634,-11.15333 -2.48583,-7.93383 -2.66437,-8.23085 -6.174224,-10.28775 -1.987854,-1.16498 -5.230395,-3.61409 -7.20607,-5.44226 l -3.592946,-3.3241 -10.343687,-0.51749 c -1.5690951,-0.0782 -3.1393321,-0.17051 -4.6574841,-0.26734 z"
       id="path841"
       inkscape:connector-curvature="0"
       inkscape:export-xdpi="137.25955"
       inkscape:export-ydpi="137.25955" />
  </g>
</svg>
